<?xml version="1.0" standalone="no"?>
<!DOCTYPE svg PUBLIC "-//W3C//DTD SVG 1.1//EN" "http://www.w3.org/Graphics/SVG/1.1/DTD/svg11.dtd" >
<svg xmlns="http://www.w3.org/2000/svg" width="100%" height="100%">
<metadata>
Created by FontXChange 20110222 at Mon Dec 12 17:32:31 2011
 By James Beall
Copyright (c) 2011 by GM. All rights reserved.
</metadata>
<defs>
<font id="Louis-BoldItalic" horiz-adv-x="570" >
  <font-face 
    font-family="Louis"
    font-weight="550"
    font-style="italic"
    font-stretch="normal"
    units-per-em="1000"
    panose-1="0 0 0 0 0 0 0 0 0 0"
    ascent="750"
    descent="-250"
    x-height="560"
    cap-height="750"
    bbox="-144 -287 1214 1041"
    underline-thickness="50"
    underline-position="-50"
    stemh="138"
    stemv="143"
    unicode-range="U+0020-FB02"
  />
<missing-glyph 
d="M632 750l-132 -750h-490l132 750h490zM292 374l-118 281l-99 -562zM349 374l118 -281l99 562zM212 700l117 -279l216 279h-333zM312 326l-214 -276h330z" />
    <glyph glyph-name="fi" unicode="fi" horiz-adv-x="600" 
d="M361 0l77 441h-154l-104 -594h-138l104 594h-81l21 119h81l8 43c25 142 112 193 237 193c26 0 70 -2 78 -3l-23 -130c-12 1 -37 2 -49 2c-64 0 -98 -18 -109 -79l-4 -26h292l-98 -560h-138z" />
    <glyph glyph-name="fl" unicode="fl" horiz-adv-x="617" 
d="M516 0h-138l116 663c-29 2 -56 2 -76 2c-64 0 -98 -18 -109 -79l-4 -26h111l-21 -119h-111l-104 -594h-138l104 594h-81l21 119h81l8 43c25 142 111 193 237 193c63 0 180 -6 242 -11z" />
    <glyph glyph-name=".notdef" 
d="M632 750l-132 -750h-490l132 750h490zM292 374l-118 281l-99 -562zM349 374l118 -281l99 562zM212 700l117 -279l216 279h-333zM312 326l-214 -276h330z" />
    <glyph glyph-name="space" unicode=" " horiz-adv-x="220" 
 />
    <glyph glyph-name="exclam" unicode="!" horiz-adv-x="281" 
d="M208 251h-108l66 499h153zM185 0h-149l27 157h149z" />
    <glyph glyph-name="quotedbl" unicode="&#x22;" horiz-adv-x="415" 
d="M150 750h139l-76 -284h-113zM344 750h140l-77 -284h-113z" />
    <glyph glyph-name="numbersign" unicode="#" 
d="M357 700l-51 -179h113l50 179h93l-50 -179h86l-15 -88h-95l-47 -166h97l-16 -88h-105l-49 -179h-93l48 179h-112l-49 -179h-93l49 179h-85l16 88h93l47 166h-95l15 88h104l51 179h93zM282 433l-46 -166h112l47 166h-113z" />
    <glyph glyph-name="dollar" unicode="$" 
d="M569 550c0 -13 -1 -27 -4 -47h-130c5 40 -6 78 -39 93l-29 -165c88 -38 169 -98 155 -214c-14 -119 -115 -186 -227 -189l-17 -98h-58l18 102c-111 21 -174 110 -167 219h129c-3 -45 19 -86 59 -100l32 183c-110 48 -168 107 -153 213c15 114 115 172 222 174l15 89h58
l-16 -94c89 -15 152 -71 152 -166zM393 230c3 37 -21 62 -48 78l-28 -160c40 9 72 39 76 82zM267 534c-4 -40 14 -62 46 -79l26 147c-48 -7 -70 -39 -72 -68z" />
    <glyph glyph-name="percent" unicode="%" 
d="M119 0h-82l485 750h83zM208 526c29 0 49 26 59 69c12 53 -3 78 -32 78s-49 -26 -59 -69c-12 -53 3 -78 32 -78zM243 760c79 0 137 -61 116 -165c-19 -95 -80 -157 -159 -157s-137 61 -116 165c19 95 80 157 159 157zM405 78c29 0 49 26 59 69c12 53 -3 78 -32 78
s-49 -26 -59 -69c-12 -53 3 -78 32 -78zM440 312c79 0 137 -61 116 -165c-19 -95 -80 -157 -159 -157s-137 61 -116 165c19 95 80 157 159 157z" />
    <glyph glyph-name="ampersand" unicode="&#x26;" horiz-adv-x="643" 
d="M381 376l73 -115c16 37 31 79 41 117h129c-18 -78 -53 -161 -97 -235l79 -127l-2 -16h-147l-29 45c-45 -33 -101 -55 -161 -55c-132 0 -224 85 -224 206c0 117 78 186 156 226c-21 37 -40 79 -40 130c0 142 109 208 205 208c115 0 190 -66 190 -161
c0 -83 -55 -162 -173 -223zM180 202c0 -58 44 -91 94 -91c32 0 65 13 92 34l-109 178c-40 -25 -77 -64 -77 -121zM362 639c-39 0 -71 -32 -71 -75c0 -26 13 -59 31 -91c65 31 99 75 99 114c0 27 -19 52 -59 52z" />
    <glyph glyph-name="quotesingle" unicode="'" horiz-adv-x="220" 
d="M150 750h139l-76 -284h-113z" />
    <glyph glyph-name="parenleft" unicode="(" horiz-adv-x="366" 
d="M94 359c30 168 107 325 263 492h121c-147 -171 -228 -343 -256 -517s-12 -345 73 -516h-116c-102 175 -114 373 -85 541z" />
    <glyph glyph-name="parenright" unicode=")" horiz-adv-x="366" 
d="M329 310c-30 -168 -107 -325 -263 -492h-121c147 171 228 343 256 517s12 345 -73 516h116c102 -175 114 -373 85 -541z" />
    <glyph glyph-name="asterisk" unicode="*" horiz-adv-x="457" 
d="M260 760h108l-25 -143l136 54l23 -102l-140 -34l82 -108l-93 -65l-62 121l-83 -121l-81 65l102 108l-134 34l41 102l125 -54z" />
    <glyph glyph-name="plus" unicode="+" 
d="M377 359h199l-21 -118h-199l-39 -221h-118l39 221h-199l21 118h199l39 221h118z" />
    <glyph glyph-name="comma" unicode="," horiz-adv-x="252" 
d="M11 0l30 173h168l-23 -131c-5 -28 -12 -58 -22 -81c-30 -72 -88 -135 -190 -149l11 61c76 23 102 73 109 113c2 11 -2 14 -9 14h-74z" />
    <glyph glyph-name="hyphen" unicode="-" horiz-adv-x="435" 
d="M425 331h-359l21 118h359z" />
    <glyph glyph-name="period" unicode="." horiz-adv-x="262" 
d="M19 0l30 173h164l-30 -173h-164z" />
    <glyph glyph-name="slash" unicode="/" horiz-adv-x="432" 
d="M92 -77h-120l435 881h120z" />
    <glyph glyph-name="zero" unicode="0" horiz-adv-x="583" 
d="M275 -10c-151 0 -229 121 -202 276l43 244c24 139 106 250 263 250c151 0 229 -121 202 -276l-43 -244c-24 -139 -106 -250 -263 -250zM367 619c-69 0 -99 -57 -111 -127l-42 -233c-10 -53 -1 -128 73 -128c69 0 99 57 111 127l42 233c10 53 1 128 -73 128z" />
    <glyph glyph-name="one" unicode="1" horiz-adv-x="396" 
d="M70 460l27 156l194 134h123l-132 -750h-143l101 578z" />
    <glyph glyph-name="two" unicode="2" horiz-adv-x="545" 
d="M22 0l10 60c28 158 124 245 218 312c85 60 165 109 172 187c4 48 -24 73 -71 73c-39 0 -83 -17 -91 -92l-2 -24h-139l2 22c3 33 12 67 23 90c39 81 121 132 217 132c125 0 217 -78 205 -201c-9 -116 -112 -194 -205 -260c-60 -42 -146 -107 -161 -164h295l-24 -135h-449z
" />
    <glyph glyph-name="three" unicode="3" horiz-adv-x="557" 
d="M566 570c-7 -80 -59 -148 -134 -177c71 -40 92 -119 87 -180c-11 -125 -122 -223 -261 -223c-148 0 -231 90 -219 231h138c-5 -65 28 -98 93 -98c58 0 103 40 109 103c4 51 -28 106 -115 106h-50l22 126h70c76 0 111 46 115 95c4 45 -29 77 -74 77c-59 0 -90 -36 -95 -90
h-140c11 129 111 220 246 220c134 0 217 -82 208 -190z" />
    <glyph glyph-name="four" unicode="4" horiz-adv-x="581" 
d="M397 760h171l-80 -454h97l-23 -129h-97l-31 -177h-142l31 177h-290l21 121zM216 306h130l43 249h-1s-15 -25 -29 -45z" />
    <glyph glyph-name="five" unicode="5" horiz-adv-x="575" 
d="M69 232h140c-4 -71 27 -104 78 -104c62 0 93 50 103 111l7 44c3 18 3 40 1 52c-6 35 -33 54 -75 54c-44 0 -78 -27 -99 -58l-127 1l74 418h416l-24 -135h-274l-24 -133c32 24 71 41 116 41c141 0 181 -118 161 -233l-9 -52c-24 -140 -96 -248 -257 -248
c-130 0 -216 92 -207 242z" />
    <glyph glyph-name="six" unicode="6" horiz-adv-x="577" 
d="M257 496l-13 -68c30 35 85 60 134 60c79 0 155 -47 167 -141c3 -23 3 -47 -3 -84l-4 -23c-24 -139 -106 -250 -263 -250c-151 0 -229 121 -202 276l43 244c24 139 106 250 263 250c128 0 202 -81 204 -200h-144c-5 34 -24 63 -71 63c-69 0 -98 -57 -111 -127zM396 242
l2 13c7 47 0 99 -68 99c-55 0 -102 -39 -116 -103l-2 -9c-12 -55 4 -113 76 -113c65 0 98 49 108 113z" />
    <glyph glyph-name="seven" unicode="7" horiz-adv-x="515" 
d="M247 0h-160c52 194 183 432 311 615h-288l24 135h453l-21 -115c-144 -201 -268 -439 -319 -635z" />
    <glyph glyph-name="eight" unicode="8" horiz-adv-x="575" 
d="M585 562c-7 -71 -56 -143 -125 -172c55 -33 86 -98 80 -172c-11 -125 -111 -228 -265 -228s-236 103 -225 228c7 81 61 164 147 187c-50 37 -75 96 -69 157c11 123 107 198 245 198s223 -75 212 -198zM304 325c-69 0 -107 -48 -111 -97c-6 -65 30 -108 93 -108
c64 0 107 43 113 108c4 49 -25 97 -95 97zM363 638c-51 0 -89 -28 -93 -78c-4 -47 23 -86 78 -86s90 39 94 86c4 50 -28 78 -79 78z" />
    <glyph glyph-name="nine" unicode="9" horiz-adv-x="577" 
d="M391 254l13 68c-30 -35 -85 -60 -134 -60c-79 0 -155 47 -167 141c-3 23 -3 47 3 84l4 23c24 139 106 250 263 250c151 0 229 -121 202 -276l-43 -244c-24 -139 -106 -250 -263 -250c-128 0 -202 81 -204 200h144c5 -34 24 -63 71 -63c69 0 98 57 111 127zM252 508
l-2 -13c-7 -47 0 -99 68 -99c55 0 102 39 116 103l2 9c12 55 -4 113 -76 113c-65 0 -98 -49 -108 -113z" />
    <glyph glyph-name="colon" unicode=":" horiz-adv-x="278" 
d="M96 387l30 173h163l-30 -173h-163zM28 0l30 173h163l-30 -173h-163z" />
    <glyph glyph-name="semicolon" unicode=";" horiz-adv-x="278" 
d="M27 0l30 173h167l-23 -131c-5 -28 -12 -58 -21 -81c-30 -72 -88 -135 -190 -149l11 61c75 23 102 73 109 113c2 11 -3 14 -10 14h-73zM95 387l30 173h164l-30 -173h-164z" />
    <glyph glyph-name="less" unicode="&#x3c;" horiz-adv-x="552" 
d="M549 440l-353 -146l302 -146l-22 -124l-414 215l21 122l490 215z" />
    <glyph glyph-name="equal" unicode="=" horiz-adv-x="537" 
d="M523 351h-447l21 118h447zM485 131h-447l20 118h447z" />
    <glyph glyph-name="greater" unicode="&#x3e;" horiz-adv-x="552" 
d="M399 306l-300 146l22 124l414 -215l-21 -122l-490 -215l24 136z" />
    <glyph glyph-name="question" unicode="?" horiz-adv-x="498" 
d="M308 252h-123c-19 209 193 238 202 323c4 38 -26 61 -71 61c-49 0 -83 -40 -88 -87l-2 -23h-132l2 23c11 123 111 211 231 211c140 0 212 -84 203 -180c-16 -179 -228 -151 -222 -328zM284 0h-149l27 157h149z" />
    <glyph glyph-name="at" unicode="@" horiz-adv-x="916" 
d="M405 338l-20 -92c-9 -43 -11 -107 50 -107c52 0 106 58 117 112l18 86c12 57 0 114 -60 114c-52 0 -92 -54 -105 -113zM411 34c-115 0 -155 96 -131 208l22 101c30 139 114 213 218 213c46 0 84 -26 105 -72l24 59h72l-81 -356c-6 -29 -18 -88 28 -88
c70 0 129 158 145 288c27 220 -98 293 -261 293h-23c-159 0 -306 -99 -349 -324l-26 -132c-34 -172 45 -304 233 -304h8c82 0 174 25 226 56l19 -64c-64 -35 -168 -62 -256 -62h-8c-222 0 -345 144 -300 375l25 132c52 278 234 393 435 393h23c202 0 354 -93 323 -363
c-21 -184 -105 -365 -234 -357c-50 3 -83 34 -94 85c-44 -57 -97 -81 -143 -81z" />
    <glyph glyph-name="A" unicode="A" horiz-adv-x="600" 
d="M391 329l-18 237h-4l-98 -237h120zM402 193h-190l-83 -193h-149l338 750h168l74 -750h-143z" />
    <glyph glyph-name="B" unicode="B" horiz-adv-x="610" 
d="M610 543c-6 -69 -44 -125 -109 -160c59 -39 80 -100 74 -161c-9 -99 -69 -175 -160 -207c-27 -9 -60 -15 -111 -15h-260l132 750h197c46 0 86 -4 111 -12c86 -28 135 -95 126 -195zM212 137h106c27 0 47 4 61 11c30 15 50 45 53 82c3 36 -12 66 -43 80c-11 5 -22 8 -48 8
h-99zM265 444h78c30 0 52 6 67 14c25 14 51 42 55 83c3 32 -14 55 -38 64c-14 5 -31 7 -54 7h-79z" />
    <glyph glyph-name="C" unicode="C" horiz-adv-x="603" 
d="M432 270h141c-10 -143 -107 -280 -276 -280h-7c-125 0 -204 81 -215 187c-3 26 0 65 5 93l41 236c25 142 113 254 273 254h8c123 0 205 -76 214 -188c2 -24 1 -58 -3 -86h-142c3 18 6 48 4 64c-4 41 -26 71 -81 71h-8c-70 0 -111 -57 -124 -129l-41 -232
c-3 -18 -6 -44 -4 -60c4 -41 28 -71 82 -71h6c69 0 113 54 125 129z" />
    <glyph glyph-name="D" unicode="D" horiz-adv-x="623" 
d="M176 750h216c41 0 73 -5 99 -16c72 -29 117 -94 125 -172c3 -25 1 -64 -4 -92l-38 -216c-20 -114 -81 -208 -186 -241c-26 -8 -60 -13 -96 -13h-248zM384 611h-91l-83 -473h89c25 0 52 6 69 17c35 22 57 64 66 113l37 212c3 18 6 44 4 60c-4 41 -26 71 -91 71z" />
    <glyph glyph-name="E" unicode="E" horiz-adv-x="555" 
d="M44 0l132 750h443l-24 -133h-300l-29 -166h248l-24 -133h-248l-32 -185h300l-23 -133h-443z" />
    <glyph glyph-name="F" unicode="F" horiz-adv-x="552" 
d="M44 0l132 750h445l-24 -133h-302l-29 -167h248l-24 -133h-248l-55 -317h-143z" />
    <glyph glyph-name="G" unicode="G" horiz-adv-x="625" 
d="M280 -10c-115 0 -194 81 -205 187c-3 26 0 65 5 93l41 236c25 142 113 254 273 254h8c123 0 203 -75 213 -188c2 -20 2 -42 0 -64h-142c1 13 2 30 1 42c-3 41 -25 72 -80 72h-8c-70 0 -111 -58 -124 -130l-41 -232c-3 -18 -6 -44 -4 -60c4 -41 28 -72 82 -72h7
c53 0 110 35 124 119l4 22h-111l23 128h252l-70 -397h-62l-10 83h-1c-44 -60 -112 -93 -175 -93z" />
    <glyph glyph-name="H" unicode="H" horiz-adv-x="655" 
d="M44 0l132 750h143l-51 -290h221l51 290h143l-132 -750h-143l56 322h-221l-56 -322h-143z" />
    <glyph glyph-name="I" unicode="I" horiz-adv-x="291" 
d="M44 0l132 750h143l-132 -750h-143z" />
    <glyph glyph-name="J" unicode="J" horiz-adv-x="555" 
d="M355 245l90 505h142l-91 -515c-7 -37 -14 -71 -35 -114c-38 -79 -104 -130 -209 -130c-107 0 -180 62 -198 151c-6 32 -6 70 0 107l7 42h142l-9 -52c-3 -18 -5 -38 -3 -53c4 -33 24 -59 66 -59c41 0 68 27 83 62c5 11 11 32 15 56z" />
    <glyph glyph-name="K" unicode="K" horiz-adv-x="619" 
d="M310 513l230 237h174l-298 -301l170 -449h-153l-124 350l-76 -84l-47 -266h-142l132 750h142l-50 -282l1 -1s22 26 41 46z" />
    <glyph glyph-name="L" unicode="L" horiz-adv-x="552" 
d="M44 0l132 750h143l-108 -613h307l-24 -137h-450z" />
    <glyph glyph-name="M" unicode="M" horiz-adv-x="771" 
d="M618 477l-198 -340h-82l-77 340h-1s-5 -33 -10 -58l-73 -419h-133l132 750h151l85 -400l227 400h160l-132 -750h-133l73 419c5 25 11 58 11 58z" />
    <glyph glyph-name="N" unicode="N" horiz-adv-x="655" 
d="M263 489h-1s-5 -33 -9 -58l-76 -431h-133l132 750h149l138 -489h1s5 33 10 58l76 431h133l-132 -750h-151z" />
    <glyph glyph-name="O" unicode="O" horiz-adv-x="621" 
d="M80 270l41 236c25 142 113 254 273 254h8c123 0 203 -81 214 -188c3 -25 1 -64 -4 -92l-41 -236c-25 -142 -113 -254 -273 -254h-8c-123 0 -203 81 -214 188c-3 25 -1 64 4 92zM430 258l40 232c3 18 6 44 4 60c-4 41 -35 71 -84 71h-4c-70 0 -111 -57 -124 -129l-40 -232
c-3 -18 -6 -44 -4 -60c4 -41 35 -71 84 -71h4c70 0 111 57 124 129z" />
    <glyph glyph-name="P" unicode="P" horiz-adv-x="616" 
d="M259 412h102c34 0 55 5 71 13c31 16 51 49 54 88c4 39 -11 70 -36 85c-13 9 -36 14 -66 14h-90zM235 275l-48 -275h-143l132 750h213c42 0 86 -6 112 -16c85 -33 138 -120 128 -225c-9 -103 -73 -183 -163 -218c-26 -10 -65 -16 -110 -16h-121z" />
    <glyph glyph-name="Q" unicode="Q" horiz-adv-x="619" 
d="M297 -10h-7c-125 0 -204 81 -215 187c-3 26 0 65 5 93l41 236c25 142 113 254 273 254h8c123 0 203 -81 214 -188c3 -25 1 -64 -4 -92l-42 -236c-14 -81 -51 -150 -115 -194c34 -12 93 -16 140 -17l-21 -116c-121 4 -196 27 -254 75c-7 -1 -17 -2 -23 -2zM299 129h6
c69 0 112 57 125 129l41 232c3 18 6 44 4 60c-4 41 -26 71 -81 71h-8c-70 0 -111 -57 -124 -129l-41 -232c-3 -18 -6 -44 -4 -60c4 -41 28 -71 82 -71z" />
    <glyph glyph-name="R" unicode="R" horiz-adv-x="610" 
d="M608 544c-8 -65 -50 -132 -138 -173v-1c59 -23 83 -65 76 -139l-13 -129c-3 -38 0 -75 24 -96l-1 -6h-152c-15 20 -17 57 -14 90l11 118c7 71 -22 99 -97 99h-65l-53 -307h-142l132 750h186c33 0 72 -2 96 -7c99 -21 163 -88 150 -199zM263 438h83c71 0 112 41 117 98
c4 40 -14 63 -47 72c-13 4 -32 5 -56 5h-67z" />
    <glyph glyph-name="S" unicode="S" horiz-adv-x="591" 
d="M596 570c0 -15 -2 -31 -5 -53h-144c8 58 -11 112 -79 112c-70 0 -95 -41 -98 -77c-4 -49 21 -76 65 -96l42 -19c92 -40 181 -109 166 -238c-16 -135 -128 -209 -256 -209c-157 0 -244 109 -235 247h144c-5 -61 29 -116 95 -116c59 0 104 35 109 93c5 54 -44 87 -81 104
l-42 19c-103 45 -167 111 -150 229c18 129 126 194 248 194c127 0 221 -65 221 -190z" />
    <glyph glyph-name="T" unicode="T" horiz-adv-x="554" 
d="M122 750h514l-25 -138h-185l-107 -612h-143l107 612h-186z" />
    <glyph glyph-name="U" unicode="U" horiz-adv-x="634" 
d="M666 750l-89 -506c-25 -142 -113 -254 -273 -254h-7c-125 0 -204 81 -215 187c-3 26 0 65 5 93l85 480h143l-87 -490c-3 -18 -6 -44 -4 -60c4 -41 28 -71 82 -71h6c69 0 112 57 125 129l86 492h143z" />
    <glyph glyph-name="V" unicode="V" horiz-adv-x="602" 
d="M257 750l40 -571h2l244 571h151l-337 -750h-172l-73 750h145z" />
    <glyph glyph-name="W" unicode="W" horiz-adv-x="900" 
d="M529 0l-20 510l-198 -510h-168l-17 750h147l-8 -522h6l204 522h145l21 -522h6l175 522h156l-282 -750h-167z" />
    <glyph glyph-name="X" unicode="X" horiz-adv-x="616" 
d="M266 399l-133 351h156l77 -224l150 224h172l-265 -364l151 -386h-154l-94 260l-178 -260h-172z" />
    <glyph glyph-name="Y" unicode="Y" horiz-adv-x="606" 
d="M103 750h155l90 -280h2l191 280h166l-305 -421l-58 -329h-143l57 328z" />
    <glyph glyph-name="Z" unicode="Z" horiz-adv-x="587" 
d="M129 612l25 138h480l-21 -117l-393 -496h316l-24 -137h-499l20 117l393 495h-297z" />
    <glyph glyph-name="bracketleft" unicode="[" horiz-adv-x="389" 
d="M19 -190l185 1049h293l-16 -93h-165l-153 -863h165l-16 -93h-293z" />
    <glyph glyph-name="backslash" unicode="\" horiz-adv-x="432" 
d="M378 -77h-121l-136 881h119z" />
    <glyph glyph-name="bracketright" unicode="]" horiz-adv-x="389" 
d="M427 859l-185 -1049h-292l16 93h164l153 863h-165l16 93h293z" />
    <glyph glyph-name="asciicircum" unicode="^" horiz-adv-x="499" 
d="M393 390l-56 243l-142 -243h-129l230 370h116l97 -370h-116z" />
    <glyph glyph-name="underscore" unicode="_" horiz-adv-x="433" 
d="M376 -160h-436l19 104h436z" />
    <glyph glyph-name="grave" unicode="`" horiz-adv-x="530" 
d="M184 832l1 12h152l115 -187h-96z" />
    <glyph glyph-name="a" unicode="a" horiz-adv-x="549" 
d="M236 401h-132c27 113 115 169 230 169c98 0 159 -45 179 -120c7 -27 5 -67 -1 -103l-61 -347h-84v86h-1c-35 -58 -80 -96 -156 -96c-100 0 -173 62 -162 186c7 81 54 137 126 162c27 9 60 14 103 14h98l2 14c10 58 -9 93 -62 93c-44 0 -69 -24 -79 -58zM185 181
c-4 -44 16 -72 62 -72c52 0 94 46 106 116l4 23h-81c-15 0 -34 -2 -45 -6c-27 -10 -43 -32 -46 -61z" />
    <glyph glyph-name="b" unicode="b" 
d="M227 279l-6 -37c-9 -54 4 -121 69 -121c55 0 91 54 101 115l14 84c4 23 6 41 5 55c-2 35 -17 63 -57 63c-50 0 -109 -57 -126 -159zM267 509h1c40 41 80 61 131 61c79 0 141 -53 151 -143c3 -24 1 -61 -4 -91l-19 -104c-6 -31 -14 -68 -27 -98
c-34 -82 -101 -144 -200 -144c-63 0 -119 34 -143 86h-1l-24 -76h-91l138 785h138l-39 -218c-4 -25 -11 -58 -11 -58z" />
    <glyph glyph-name="c" unicode="c" horiz-adv-x="530" 
d="M353 194h141c-9 -34 -23 -68 -41 -96c-41 -63 -109 -108 -201 -108c-93 0 -159 54 -183 126c-13 37 -11 84 -4 125l17 95c7 41 24 90 47 126c41 63 108 108 200 108c93 0 160 -54 183 -126c8 -26 11 -56 9 -86h-139c1 10 0 20 -1 29c-3 28 -21 52 -61 52
c-37 0 -62 -19 -80 -48c-11 -18 -18 -43 -23 -69l-15 -91c-3 -19 -4 -41 -2 -58c3 -28 21 -52 61 -52c45 0 81 30 92 73z" />
    <glyph glyph-name="d" unicode="d" horiz-adv-x="571" 
d="M381 282l6 37c9 54 -4 121 -69 121c-55 0 -91 -54 -101 -115l-14 -84c-4 -23 -6 -41 -5 -55c2 -35 17 -63 57 -63c50 0 109 57 126 159zM306 570c46 0 84 -18 116 -56h1s5 33 9 58l38 213h138l-138 -785h-91v76h-1c-44 -57 -102 -86 -166 -86c-82 0 -144 53 -154 143
c-3 24 -1 61 4 91l19 104c6 31 14 68 27 98c34 82 102 144 198 144z" />
    <glyph glyph-name="e" unicode="e" horiz-adv-x="542" 
d="M262 109c43 0 68 28 84 63h140c-9 -27 -20 -53 -34 -74c-41 -63 -108 -108 -200 -108c-93 0 -159 54 -183 126c-13 37 -11 84 -4 125l17 95c7 41 24 90 47 126c41 63 108 108 200 108c93 0 159 -51 183 -123c13 -37 11 -87 4 -128l-14 -76h-298l-4 -24
c-3 -19 -4 -41 -2 -58c3 -28 24 -52 64 -52zM244 406c-10 -16 -17 -37 -22 -59h160c3 18 5 39 3 55c-3 28 -21 52 -61 52c-37 0 -62 -19 -80 -48z" />
    <glyph glyph-name="f" unicode="f" horiz-adv-x="376" 
d="M480 793l-23 -130c-11 1 -27 2 -39 2c-64 0 -98 -18 -109 -79l-4 -26h121l-21 -119h-121l-104 -594h-138l104 594h-81l21 119h81l8 43c26 142 110 193 242 193c26 0 56 -2 63 -3z" />
    <glyph glyph-name="g" unicode="g" horiz-adv-x="571" 
d="M384 291l4 27c9 54 -4 121 -69 121c-55 0 -91 -54 -101 -115l-12 -74c-4 -23 -6 -41 -5 -55c2 -35 17 -63 57 -63c50 0 109 57 126 159zM568 560l-97 -554c-6 -34 -15 -66 -24 -89c-35 -97 -119 -155 -223 -155c-111 0 -195 65 -204 187h135c6 -39 35 -65 79 -65
c49 0 84 36 96 107l2 12c4 25 11 58 11 58h-1c-40 -41 -79 -61 -130 -61c-79 0 -141 53 -151 143c-3 24 -1 61 4 91l17 94c6 31 14 68 27 98c34 82 101 144 200 144c63 0 119 -34 143 -86h1l24 76h91z" />
    <glyph glyph-name="h" unicode="h" horiz-adv-x="585" 
d="M487 0h-138l55 320c4 23 6 41 5 55c-2 35 -16 63 -56 63c-50 0 -108 -57 -126 -159l-48 -279h-138l138 785h138l-39 -218c-4 -25 -11 -58 -11 -58h1c40 41 80 61 131 61c79 0 141 -53 151 -143c3 -24 1 -61 -4 -91z" />
    <glyph glyph-name="i" unicode="i" horiz-adv-x="274" 
d="M38 0l98 560h138l-98 -560h-138zM150 640l25 141h138l-25 -141h-138z" />
    <glyph glyph-name="j" unicode="j" horiz-adv-x="282" 
d="M157 640l25 141h139l-25 -141h-139zM41 -19l102 579h139l-105 -593c-27 -152 -112 -203 -237 -203c-27 0 -48 2 -57 3l24 132c12 -1 23 -2 35 -2c57 0 88 23 99 84z" />
    <glyph glyph-name="k" unicode="k" horiz-adv-x="550" 
d="M514 0h-158l-87 274l-50 -46l-40 -228h-138l138 785h138l-69 -390l177 165h180l-223 -199z" />
    <glyph glyph-name="l" unicode="l" horiz-adv-x="280" 
d="M41 0l138 785h138l-138 -785h-138z" />
    <glyph glyph-name="m" unicode="m" horiz-adv-x="871" 
d="M525 279l-49 -279h-138l55 320c4 23 6 41 5 55c-2 35 -17 63 -54 63c-48 0 -99 -57 -117 -159l-48 -279h-138l98 560h91v-76h1c44 57 97 86 157 86c63 0 112 -34 134 -94l7 8c44 57 97 86 157 86c79 0 141 -53 151 -143c3 -24 1 -61 -4 -91l-59 -336h-138l55 320
c4 23 6 41 5 55c-2 35 -17 63 -54 63c-48 0 -99 -57 -117 -159z" />
    <glyph glyph-name="n" unicode="n" horiz-adv-x="585" 
d="M399 570c79 0 141 -53 151 -143c3 -24 1 -61 -4 -91l-59 -336h-138l55 320c4 23 6 41 5 55c-2 35 -16 63 -56 63c-50 0 -108 -57 -126 -159l-48 -279h-138l98 560h91v-76h1c44 57 103 86 168 86z" />
    <glyph glyph-name="o" unicode="o" horiz-adv-x="543" 
d="M260 121c37 0 62 19 80 48c11 18 19 43 24 69l15 91c3 19 5 41 3 58c-3 28 -21 52 -61 52c-37 0 -62 -19 -80 -48c-11 -18 -19 -43 -24 -69l-15 -91c-3 -19 -5 -41 -3 -58c3 -28 21 -52 61 -52zM252 -10c-93 0 -159 54 -183 126c-13 37 -11 84 -4 125l17 95
c7 41 24 90 47 126c41 63 108 108 200 108c93 0 159 -54 183 -126c13 -37 11 -84 4 -125l-17 -95c-7 -41 -24 -90 -47 -126c-41 -63 -108 -108 -200 -108z" />
    <glyph glyph-name="p" unicode="p" 
d="M228 278l-6 -37c-9 -54 4 -121 69 -121c55 0 91 54 101 115l14 84c4 23 6 41 5 55c-2 35 -17 63 -57 63c-50 0 -109 -57 -126 -159zM303 -10c-46 0 -84 18 -116 56h-1s-5 -33 -9 -58l-42 -232h-138l142 804h91v-76h1c44 57 102 86 166 86c82 0 144 -53 154 -143
c3 -24 1 -61 -4 -91l-19 -104c-6 -31 -14 -68 -27 -98c-34 -82 -102 -144 -198 -144z" />
    <glyph glyph-name="q" unicode="q" horiz-adv-x="571" 
d="M382 281l6 37c9 54 -4 121 -69 121c-55 0 -91 -54 -101 -115l-14 -84c-4 -23 -6 -41 -5 -55c2 -35 17 -63 57 -63c50 0 109 57 126 159zM342 51h-1c-40 -41 -80 -61 -131 -61c-79 0 -141 53 -151 143c-3 24 -1 61 4 91l19 104c6 31 14 68 27 98c34 82 101 144 200 144
c63 0 119 -34 143 -86h1l24 76h91l-142 -804h-138l43 237c4 25 11 58 11 58z" />
    <glyph glyph-name="r" unicode="r" horiz-adv-x="434" 
d="M228 280l-49 -280h-138l98 560h91l-1 -92h1c55 78 110 102 175 102c29 0 54 -4 76 -10l-27 -137c-23 8 -44 11 -71 11c-72 0 -139 -61 -155 -154z" />
    <glyph glyph-name="s" unicode="s" horiz-adv-x="495" 
d="M238 236c-101 37 -142 85 -142 161c0 107 93 173 199 173c100 0 189 -48 193 -168h-131c-6 37 -24 58 -64 58s-63 -24 -63 -49c0 -26 14 -46 63 -63c90 -32 158 -76 158 -177c0 -111 -102 -181 -208 -181c-122 0 -206 67 -207 187h131c6 -50 34 -75 81 -75
c41 0 68 31 68 63c0 33 -17 49 -78 71z" />
    <glyph glyph-name="t" unicode="t" horiz-adv-x="397" 
d="M113 226l38 215h-86l21 119h86l25 140h138l-25 -140h117l-21 -119h-117l-37 -216c-10 -57 -7 -101 61 -101c12 0 26 1 43 3l-22 -127c-20 -2 -42 -3 -55 -3c-114 0 -171 44 -174 141c-1 23 2 53 8 88z" />
    <glyph glyph-name="u" unicode="u" horiz-adv-x="585" 
d="M224 -10c-79 0 -141 53 -151 143c-3 24 -1 61 4 91l59 336h138l-55 -320c-4 -23 -6 -41 -5 -55c2 -35 16 -63 56 -63c50 0 108 57 126 159l48 279h138l-98 -560h-91v76h-1c-44 -57 -103 -86 -168 -86z" />
    <glyph glyph-name="v" unicode="v" horiz-adv-x="518" 
d="M579 560l-278 -560h-145l-81 560h140l38 -387h2l173 387h151z" />
    <glyph glyph-name="w" unicode="w" horiz-adv-x="771" 
d="M676 560h148l-243 -560h-137l-28 342h-2l-148 -342h-137l-46 560h139l10 -363h2l154 363h121l26 -362h2z" />
    <glyph glyph-name="x" unicode="x" horiz-adv-x="520" 
d="M93 560h144l60 -160l108 160h158l-210 -271l127 -289h-146l-69 185l-128 -185h-157l228 295z" />
    <glyph glyph-name="y" unicode="y" horiz-adv-x="537" 
d="M173 21l-97 539h141l52 -369h2l176 369h151l-306 -585c-69 -132 -153 -191 -256 -191c-36 0 -68 5 -94 13l23 133c25 -6 49 -12 81 -12c58 0 91 33 117 83z" />
    <glyph glyph-name="z" unicode="z" horiz-adv-x="509" 
d="M443 0h-437l19 111l294 318h-229l23 131h413l-20 -112l-292 -317h252z" />
    <glyph glyph-name="braceleft" unicode="{" horiz-adv-x="437" 
d="M48 277l20 113h29c66 0 112 27 114 141l2 115c4 159 98 211 248 211h87l-17 -93h-48c-66 0 -138 -8 -140 -122l-3 -109c-1 -92 -31 -169 -127 -200c85 -31 87 -107 57 -199l-37 -112c-38 -114 32 -120 98 -120h48l-16 -93h-87c-140 0 -224 50 -173 209l38 118
c38 114 2 141 -64 141h-29z" />
    <glyph glyph-name="bar" unicode="|" horiz-adv-x="337" 
d="M44 -190l185 1049h121l-185 -1049h-121z" />
    <glyph glyph-name="braceright" unicode="}" horiz-adv-x="437" 
d="M445 390l-20 -113h-29c-66 0 -110 -27 -114 -141l-2 -118c-5 -159 -97 -209 -247 -209h-86l16 93h47c66 0 138 6 140 120l3 112c2 92 32 168 127 199c-84 31 -88 108 -57 200l37 109c38 114 -32 122 -98 122h-48l17 93h87c140 0 224 -52 172 -211l-38 -115
c-38 -114 -2 -141 64 -141h29z" />
    <glyph glyph-name="asciitilde" unicode="~" horiz-adv-x="563" 
d="M314 341c-47 36 -65 51 -90 50c-29 -1 -45 -19 -56 -74h-101c15 98 59 188 157 190c34 1 68 -12 104 -39c47 -36 66 -51 91 -50c29 1 45 19 56 74h101c-15 -98 -59 -188 -157 -190c-34 -1 -68 12 -105 39z" />
    <glyph glyph-name="uni00A0" unicode="&#xa0;" horiz-adv-x="220" 
 />
    <glyph glyph-name="exclamdown" unicode="&#xa1;" horiz-adv-x="281" 
d="M110 309h108l-65 -499h-153zM134 560h149l-27 -157h-149z" />
    <glyph glyph-name="cent" unicode="&#xa2;" 
d="M394 234h128c-9 -34 -23 -68 -41 -96c-39 -59 -101 -103 -185 -108l-17 -100h-58l18 103c-71 13 -122 62 -142 123c-13 37 -11 84 -4 125l17 95c7 41 24 90 47 126c38 59 99 102 182 107l15 92h59l-17 -95c73 -13 124 -61 144 -122c8 -26 11 -56 9 -86h-125
c4 36 -9 74 -47 89l-59 -334c38 11 64 44 76 81zM216 207c5 -27 20 -46 44 -54l59 336c-27 -8 -48 -27 -63 -54c-10 -17 -17 -40 -22 -69l-16 -90c-5 -29 -6 -52 -2 -69z" />
    <glyph glyph-name="sterling" unicode="&#xa3;" 
d="M176 115h153c44 0 93 24 103 99h119c-26 -172 -123 -214 -233 -214h-303l20 117c42 0 65 24 79 102l22 122h-79l12 70h79l23 130c24 138 109 219 228 219c114 0 197 -72 189 -210h-123c1 67 -28 95 -78 95s-80 -32 -90 -92l-25 -142h157l-12 -70h-157l-19 -109
c-13 -75 -37 -101 -65 -115v-2z" />
    <glyph glyph-name="yen" unicode="&#xa5;" 
d="M538 177h-184l-31 -177h-135l31 177h-185l14 80h185l15 86h-185l14 80h158l-133 327h145l89 -249l178 249h158l-248 -327h157l-14 -80h-184l-15 -86h184z" />
    <glyph glyph-name="brokenbar" unicode="&#xa6;" horiz-adv-x="337" 
d="M44 -190l79 449h121l-79 -449h-121zM150 410l79 449h121l-79 -449h-121z" />
    <glyph glyph-name="section" unicode="&#xa7;" horiz-adv-x="528" 
d="M68 340c10 56 54 102 126 125c-51 37 -63 77 -63 107c0 111 93 178 201 178c117 0 196 -60 196 -175h-121c-3 43 -31 65 -82 65c-44 0 -71 -23 -71 -58c0 -29 26 -51 82 -76l27 -12c86 -38 147 -89 147 -167c0 -62 -40 -126 -115 -155c38 -28 53 -65 53 -103
c0 -122 -104 -189 -210 -189c-131 0 -213 72 -215 191h123c5 -52 36 -83 93 -83c50 0 83 32 83 73c0 33 -28 60 -84 79l-26 9c-121 45 -146 114 -146 164c0 10 1 19 2 27zM323 384l-44 18c-46 -1 -87 -35 -87 -73c0 -27 21 -53 66 -71l55 -22c40 1 76 34 76 74
c0 28 -22 56 -66 74z" />
    <glyph glyph-name="dieresis" unicode="&#xa8;" horiz-adv-x="530" 
d="M307 674h-123l23 131h123zM521 674h-122l23 131h122z" />
    <glyph glyph-name="copyright" unicode="&#xa9;" horiz-adv-x="839" 
d="M513 264c5 12 8 33 8 59h93c-1 -41 -7 -70 -13 -87c-22 -65 -86 -101 -149 -101h-6c-62 0 -123 36 -149 99c-8 21 -11 45 -11 77v130c0 32 3 55 11 77c25 64 87 99 149 99h6c63 0 127 -37 149 -99c7 -19 12 -46 13 -84h-93c-1 26 -4 46 -8 55c-10 25 -35 36 -61 36h-6
c-24 0 -50 -11 -60 -36c-6 -13 -8 -28 -8 -48v-130c0 -19 3 -35 8 -47c11 -25 36 -37 60 -37h6c26 0 51 12 61 37zM85 375c0 213 143 385 361 385c219 0 362 -172 362 -385s-143 -385 -362 -385c-218 0 -361 172 -361 385zM135 375c0 -185 120 -336 311 -336
c192 0 312 151 312 336s-120 336 -312 336c-191 0 -311 -151 -311 -336z" />
    <glyph glyph-name="ordfeminine" unicode="&#xaa;" horiz-adv-x="344" 
d="M213 659h-79c17 67 69 101 138 101c61 0 97 -27 107 -72c4 -16 3 -40 -1 -62l-37 -208h-50v52h-1c-22 -33 -54 -58 -93 -58c-60 0 -102 37 -96 112c4 48 34 83 76 97c17 5 35 8 61 8h58l2 9c6 34 -5 55 -37 55c-26 0 -43 -14 -48 -34zM184 527c-2 -27 9 -44 38 -44
c31 0 54 28 61 70l2 14h-47c-9 0 -20 -1 -26 -4c-17 -6 -27 -19 -28 -36z" />
    <glyph glyph-name="guillemotleft" unicode="&#xab;" horiz-adv-x="555" 
d="M252 41l-203 265l297 265l-27 -151l-141 -120l99 -120zM483 41l-203 265l297 265l-27 -151l-142 -120l100 -120z" />
    <glyph glyph-name="logicalnot" unicode="&#xac;" 
d="M632 750l-132 -750h-490l132 750h490zM292 374l-118 281l-99 -562zM349 374l118 -281l99 562zM212 700l117 -279l216 279h-333zM312 326l-214 -276h330z" />
    <glyph glyph-name="registered" unicode="&#xae;" horiz-adv-x="478" 
d="M407 469h-53l-43 88h-29v-88h-47v233h81c47 0 83 -24 83 -70c0 -32 -15 -56 -43 -67zM316 657h-35v-56h39c16 0 30 10 30 31c0 17 -14 25 -34 25zM116 583c0 111 79 202 193 202s193 -91 193 -202s-79 -202 -193 -202s-193 91 -193 202zM145 583c0 -95 66 -174 164 -174
s164 79 164 174s-66 174 -164 174s-164 -79 -164 -174z" />
    <glyph glyph-name="macron" unicode="&#xaf;" horiz-adv-x="530" 
d="M531 770l-16 -95h-324l16 95h324z" />
    <glyph glyph-name="degree" unicode="&#xb0;" horiz-adv-x="317" 
d="M361 638c0 -68 -54 -123 -120 -123c-67 0 -121 55 -121 123s54 123 121 123c66 0 120 -55 120 -123zM300 638c0 35 -27 63 -59 63c-33 0 -59 -28 -59 -63s26 -63 59 -63c32 0 59 28 59 63z" />
    <glyph glyph-name="plusminus" unicode="&#xb1;" 
d="M400 489h199l-21 -118h-199l-37 -211h-118l37 211h-199l21 118h199l37 211h118zM511 -10h-516l21 118h516z" />
    <glyph glyph-name="twosuperior" unicode="&#xb2;" 
d="M632 750l-132 -750h-490l132 750h490zM292 374l-118 281l-99 -562zM349 374l118 -281l99 562zM212 700l117 -279l216 279h-333zM312 326l-214 -276h330z" />
    <glyph glyph-name="threesuperior" unicode="&#xb3;" 
d="M632 750l-132 -750h-490l132 750h490zM292 374l-118 281l-99 -562zM349 374l118 -281l99 562zM212 700l117 -279l216 279h-333zM312 326l-214 -276h330z" />
    <glyph glyph-name="acute" unicode="&#xb4;" horiz-adv-x="530" 
d="M518 844l1 -12l-172 -175h-95l114 187h152z" />
    <glyph glyph-name="mu" unicode="&#xb5;" horiz-adv-x="588" 
d="M139 560h138l-55 -320c-4 -23 -6 -41 -5 -55c2 -35 16 -63 56 -63c50 0 108 57 126 159l48 279h138l-98 -560h-91l1 71h-1c-44 -51 -94 -81 -155 -81c-26 0 -52 7 -75 21c0 -9 -4 -43 -9 -68l-33 -187h-127z" />
    <glyph glyph-name="mu" unicode="&#x3bc;" horiz-adv-x="588" 
d="M139 560h138l-55 -320c-4 -23 -6 -41 -5 -55c2 -35 16 -63 56 -63c50 0 108 57 126 159l48 279h138l-98 -560h-91l1 71h-1c-44 -51 -94 -81 -155 -81c-26 0 -52 7 -75 21c0 -9 -4 -43 -9 -68l-33 -187h-127z" />
    <glyph glyph-name="paragraph" unicode="&#xb6;" horiz-adv-x="624" 
d="M212 -175l89 506c-111 4 -190 96 -180 208c10 117 110 211 224 211h301l-163 -925h-92l148 842h-84l-148 -842h-95z" />
    <glyph glyph-name="periodcentered" unicode="&#xb7;" horiz-adv-x="262" 
d="M73 310l31 173h164l-31 -173h-164z" />
    <glyph glyph-name="cedilla" unicode="&#xb8;" horiz-adv-x="530" 
d="M90 -142h76c3 -20 17 -32 39 -32c20 0 34 14 35 30c2 19 -11 33 -43 43l-24 7c-26 8 -38 18 -22 47l45 79l64 -11l-29 -64c51 -16 95 -45 90 -101c-6 -63 -57 -100 -118 -100c-65 0 -114 39 -113 102z" />
    <glyph glyph-name="onesuperior" unicode="&#xb9;" 
d="M632 750l-132 -750h-490l132 750h490zM292 374l-118 281l-99 -562zM349 374l118 -281l99 562zM212 700l117 -279l216 279h-333zM312 326l-214 -276h330z" />
    <glyph glyph-name="ordmasculine" unicode="&#xba;" horiz-adv-x="343" 
d="M226 491c22 0 37 11 48 28c7 11 12 26 15 42l9 54c2 12 3 25 1 35c-3 17 -12 31 -36 31c-22 0 -37 -11 -48 -28c-7 -11 -12 -26 -15 -42l-9 -54c-2 -12 -3 -25 -1 -35c3 -17 12 -31 36 -31zM221 412c-55 0 -94 32 -109 76c-8 22 -7 50 -3 75l10 57c5 24 15 54 29 75
c24 38 64 65 120 65c55 0 94 -32 109 -76c8 -22 7 -50 3 -75l-10 -57c-5 -24 -15 -54 -29 -75c-24 -38 -64 -65 -120 -65z" />
    <glyph glyph-name="guillemotright" unicode="&#xbb;" horiz-adv-x="554" 
d="M348 571l203 -265l-297 -265l27 151l142 120l-100 120zM118 571l203 -265l-297 -265l27 151l142 120l-100 120z" />
    <glyph glyph-name="onequarter" unicode="&#xbc;" 
d="M632 750l-132 -750h-490l132 750h490zM292 374l-118 281l-99 -562zM349 374l118 -281l99 562zM212 700l117 -279l216 279h-333zM312 326l-214 -276h330z" />
    <glyph glyph-name="onehalf" unicode="&#xbd;" 
d="M632 750l-132 -750h-490l132 750h490zM292 374l-118 281l-99 -562zM349 374l118 -281l99 562zM212 700l117 -279l216 279h-333zM312 326l-214 -276h330z" />
    <glyph glyph-name="threequarters" unicode="&#xbe;" 
d="M632 750l-132 -750h-490l132 750h490zM292 374l-118 281l-99 -562zM349 374l118 -281l99 562zM212 700l117 -279l216 279h-333zM312 326l-214 -276h330z" />
    <glyph glyph-name="questiondown" unicode="&#xbf;" horiz-adv-x="500" 
d="M227 308h123c19 -209 -193 -238 -202 -323c-4 -38 26 -61 71 -61c49 0 83 40 88 87l2 23h132l-2 -23c-11 -123 -111 -211 -231 -211c-140 0 -212 84 -203 180c16 179 228 151 222 328zM251 560h149l-27 -157h-149z" />
    <glyph glyph-name="Agrave" unicode="&#xc0;" horiz-adv-x="600" 
d="M391 329l-18 237h-4l-98 -237h120zM402 193h-190l-83 -193h-149l338 750h168l74 -750h-143zM221 982l1 12h152l115 -187h-96z" />
    <glyph glyph-name="Aacute" unicode="&#xc1;" horiz-adv-x="600" 
d="M391 329l-18 237h-4l-98 -237h120zM402 193h-190l-83 -193h-149l338 750h168l74 -750h-143zM601 994l1 -12l-172 -175h-95l114 187h152z" />
    <glyph glyph-name="Acircumflex" unicode="&#xc2;" horiz-adv-x="600" 
d="M391 329l-18 237h-4l-98 -237h120zM402 193h-190l-83 -193h-149l338 750h168l74 -750h-143zM381 1013h94l144 -205h-113l-87 113l-107 -113h-114z" />
    <glyph glyph-name="Atilde" unicode="&#xc3;" horiz-adv-x="600" 
d="M391 329l-18 237h-4l-98 -237h120zM402 193h-190l-83 -193h-149l338 750h168l74 -750h-143zM399 838c-33 27 -40 39 -67 38c-11 0 -31 -11 -39 -54h-86c15 100 68 157 136 157c30 0 58 -11 86 -34c34 -27 41 -39 67 -38c12 0 31 11 39 54h87c-15 -100 -68 -157 -137 -157
c-29 0 -58 11 -86 34z" />
    <glyph glyph-name="Adieresis" unicode="&#xc4;" horiz-adv-x="600" 
d="M391 329l-18 237h-4l-98 -237h120zM402 193h-190l-83 -193h-149l338 750h168l74 -750h-143zM373 824h-123l23 131h123zM587 824h-122l23 131h122z" />
    <glyph glyph-name="Aring" unicode="&#xc5;" horiz-adv-x="600" 
d="M391 329l-18 237h-4l-98 -237h120zM402 193h-190l-83 -193h-149l338 750h168l74 -750h-143zM416 867c28 0 46 24 46 50s-18 50 -46 50c-29 0 -46 -24 -46 -50s17 -50 46 -50zM416 1041c66 0 120 -55 120 -124s-54 -124 -120 -124c-67 0 -121 55 -121 124s54 124 121 124z
" />
    <glyph glyph-name="AE" unicode="&#xc6;" horiz-adv-x="892" 
d="M414 0l38 219h-210l-128 -219h-158l457 750h543l-24 -133h-267l-29 -166h214l-24 -133h-214l-32 -184h267l-23 -134h-410zM481 623l-158 -268h153l47 268h-42z" />
    <glyph glyph-name="Ccedilla" unicode="&#xc7;" horiz-adv-x="603" 
d="M118 -142h76c3 -20 17 -32 39 -32c20 0 34 14 35 30c2 19 -11 33 -43 43l-24 7c-26 8 -38 18 -22 47l28 50c-76 28 -124 94 -132 174c-3 26 0 65 5 93l41 236c25 142 113 254 273 254h8c123 0 205 -76 214 -188c2 -24 0 -59 -3 -86h-142c3 18 6 48 4 64
c-4 41 -26 71 -81 71h-8c-70 0 -111 -57 -124 -129l-41 -232c-3 -18 -6 -44 -4 -60c4 -41 28 -71 82 -71h6c69 0 113 54 125 129l2 12h141c-10 -143 -107 -280 -276 -280h-7c-6 0 -11 0 -16 1l-15 -34c51 -16 95 -45 90 -101c-6 -63 -57 -100 -118 -100
c-65 0 -114 39 -113 102z" />
    <glyph glyph-name="Egrave" unicode="&#xc8;" horiz-adv-x="555" 
d="M44 0l132 750h443l-24 -133h-300l-29 -166h248l-24 -133h-248l-32 -185h300l-23 -133h-443zM215 982l1 12h152l115 -187h-96z" />
    <glyph glyph-name="Eacute" unicode="&#xc9;" horiz-adv-x="555" 
d="M44 0l132 750h443l-24 -133h-300l-29 -166h248l-24 -133h-248l-32 -185h300l-23 -133h-443zM586 994l1 -12l-172 -175h-95l114 187h152z" />
    <glyph glyph-name="Ecircumflex" unicode="&#xca;" horiz-adv-x="555" 
d="M44 0l132 750h443l-24 -133h-300l-29 -166h248l-24 -133h-248l-32 -185h300l-23 -133h-443zM379 1023h94l144 -205h-113l-87 113l-107 -113h-114z" />
    <glyph glyph-name="Edieresis" unicode="&#xcb;" horiz-adv-x="555" 
d="M44 0l132 750h443l-24 -133h-300l-29 -166h248l-24 -133h-248l-32 -185h300l-23 -133h-443zM356 824h-123l23 131h123zM570 824h-122l23 131h122z" />
    <glyph glyph-name="Igrave" unicode="&#xcc;" horiz-adv-x="291" 
d="M44 0l132 750h143l-132 -750h-143zM59 982l1 12h152l115 -187h-96z" />
    <glyph glyph-name="Iacute" unicode="&#xcd;" horiz-adv-x="291" 
d="M44 0l132 750h143l-132 -750h-143zM453 994l1 -12l-172 -175h-95l114 187h152z" />
    <glyph glyph-name="Icircumflex" unicode="&#xce;" horiz-adv-x="291" 
d="M44 0l132 750h143l-132 -750h-143zM230 1013h94l144 -205h-113l-87 113l-107 -113h-114z" />
    <glyph glyph-name="Idieresis" unicode="&#xcf;" horiz-adv-x="291" 
d="M44 0l132 750h143l-132 -750h-143zM213 824h-123l23 131h123zM427 824h-122l23 131h122z" />
    <glyph glyph-name="Eth" unicode="&#xd0;" horiz-adv-x="655" 
d="M208 750h216c41 0 73 -5 99 -16c72 -29 117 -94 125 -172c3 -25 1 -64 -4 -92l-38 -216c-20 -114 -81 -208 -186 -241c-26 -8 -60 -13 -96 -13h-248l60 342h-94l18 106h94zM416 611h-91l-29 -163h119l-18 -106h-119l-36 -204h89c25 0 52 6 69 17c35 22 57 64 66 113
l37 212c3 18 6 44 4 60c-4 41 -26 71 -91 71z" />
    <glyph glyph-name="Ntilde" unicode="&#xd1;" horiz-adv-x="655" 
d="M263 489h-1s-5 -33 -9 -58l-76 -431h-133l132 750h149l138 -489h1s5 33 10 58l76 431h133l-132 -750h-151zM439 838c-33 27 -40 39 -67 38c-11 0 -31 -11 -39 -54h-86c15 100 68 157 136 157c30 0 58 -11 86 -34c34 -27 41 -39 67 -38c12 0 31 11 39 54h87
c-15 -100 -68 -157 -137 -157c-29 0 -58 11 -86 34z" />
    <glyph glyph-name="Ograve" unicode="&#xd2;" horiz-adv-x="621" 
d="M80 270l41 236c25 142 113 254 273 254h8c123 0 203 -81 214 -188c3 -25 1 -64 -4 -92l-41 -236c-25 -142 -113 -254 -273 -254h-8c-123 0 -203 81 -214 188c-3 25 -1 64 4 92zM430 258l40 232c3 18 6 44 4 60c-4 41 -35 71 -84 71h-4c-70 0 -111 -57 -124 -129l-40 -232
c-3 -18 -6 -44 -4 -60c4 -41 35 -71 84 -71h4c70 0 111 57 124 129zM246 982l1 12h152l115 -187h-96z" />
    <glyph glyph-name="Oacute" unicode="&#xd3;" horiz-adv-x="621" 
d="M80 270l41 236c25 142 113 254 273 254h8c123 0 203 -81 214 -188c3 -25 1 -64 -4 -92l-41 -236c-25 -142 -113 -254 -273 -254h-8c-123 0 -203 81 -214 188c-3 25 -1 64 4 92zM430 258l40 232c3 18 6 44 4 60c-4 41 -35 71 -84 71h-4c-70 0 -111 -57 -124 -129l-40 -232
c-3 -18 -6 -44 -4 -60c4 -41 35 -71 84 -71h4c70 0 111 57 124 129zM593 994l1 -12l-172 -175h-95l114 187h152z" />
    <glyph glyph-name="Ocircumflex" unicode="&#xd4;" horiz-adv-x="621" 
d="M80 270l41 236c25 142 113 254 273 254h8c123 0 203 -81 214 -188c3 -25 1 -64 -4 -92l-41 -236c-25 -142 -113 -254 -273 -254h-8c-123 0 -203 81 -214 188c-3 25 -1 64 4 92zM430 258l40 232c3 18 6 44 4 60c-4 41 -35 71 -84 71h-4c-70 0 -111 -57 -124 -129l-40 -232
c-3 -18 -6 -44 -4 -60c4 -41 35 -71 84 -71h4c70 0 111 57 124 129zM378 1003h94l144 -205h-113l-87 113l-107 -113h-114z" />
    <glyph glyph-name="Otilde" unicode="&#xd5;" horiz-adv-x="621" 
d="M80 270l41 236c25 142 113 254 273 254h8c123 0 203 -81 214 -188c3 -25 1 -64 -4 -92l-41 -236c-25 -142 -113 -254 -273 -254h-8c-123 0 -203 81 -214 188c-3 25 -1 64 4 92zM430 258l40 232c3 18 6 44 4 60c-4 41 -35 71 -84 71h-4c-70 0 -111 -57 -124 -129l-40 -232
c-3 -18 -6 -44 -4 -60c4 -41 35 -71 84 -71h4c70 0 111 57 124 129zM419 848c-33 27 -40 39 -67 38c-11 0 -31 -11 -39 -54h-86c15 100 68 157 136 157c30 0 58 -11 86 -34c34 -27 41 -39 67 -38c12 0 31 11 39 54h87c-15 -100 -68 -157 -137 -157c-29 0 -58 11 -86 34z" />
    <glyph glyph-name="Odieresis" unicode="&#xd6;" horiz-adv-x="621" 
d="M80 270l41 236c25 142 113 254 273 254h8c123 0 203 -81 214 -188c3 -25 1 -64 -4 -92l-41 -236c-25 -142 -113 -254 -273 -254h-8c-123 0 -203 81 -214 188c-3 25 -1 64 4 92zM430 258l40 232c3 18 6 44 4 60c-4 41 -35 71 -84 71h-4c-70 0 -111 -57 -124 -129l-40 -232
c-3 -18 -6 -44 -4 -60c4 -41 35 -71 84 -71h4c70 0 111 57 124 129zM387 824h-123l23 131h123zM601 824h-122l23 131h122z" />
    <glyph glyph-name="multiply" unicode="&#xd7;" 
d="M300 218l-201 -174l-71 87l204 171l-137 171l85 78l137 -171l201 174l70 -87l-200 -174l136 -171l-84 -78z" />
    <glyph glyph-name="Oslash" unicode="&#xd8;" horiz-adv-x="621" 
d="M297 -10h-7c-49 0 -91 12 -125 34l-37 -59h-85l69 110c-20 29 -33 64 -37 102c-3 26 0 65 5 93l41 236c25 142 113 254 273 254h8c48 0 90 -13 123 -35l39 60h84l-70 -110c21 -29 34 -64 38 -103c3 -25 1 -64 -4 -92l-42 -236c-25 -142 -113 -254 -273 -254zM299 129h6
c69 0 112 57 125 129l44 254l-231 -366c13 -11 31 -17 56 -17zM262 492l-44 -251l230 364c-12 10 -30 16 -54 16h-8c-70 0 -111 -57 -124 -129z" />
    <glyph glyph-name="Ugrave" unicode="&#xd9;" horiz-adv-x="634" 
d="M666 750l-89 -506c-25 -142 -113 -254 -273 -254h-7c-125 0 -204 81 -215 187c-3 26 0 65 5 93l85 480h143l-87 -490c-3 -18 -6 -44 -4 -60c4 -41 28 -71 82 -71h6c69 0 112 57 125 129l86 492h143zM234 982l1 12h152l115 -187h-96z" />
    <glyph glyph-name="Uacute" unicode="&#xda;" horiz-adv-x="634" 
d="M666 750l-89 -506c-25 -142 -113 -254 -273 -254h-7c-125 0 -204 81 -215 187c-3 26 0 65 5 93l85 480h143l-87 -490c-3 -18 -6 -44 -4 -60c4 -41 28 -71 82 -71h6c69 0 112 57 125 129l86 492h143zM610 994l1 -12l-172 -175h-95l114 187h152z" />
    <glyph glyph-name="Ucircumflex" unicode="&#xdb;" horiz-adv-x="634" 
d="M666 750l-89 -506c-25 -142 -113 -254 -273 -254h-7c-125 0 -204 81 -215 187c-3 26 0 65 5 93l85 480h143l-87 -490c-3 -18 -6 -44 -4 -60c4 -41 28 -71 82 -71h6c69 0 112 57 125 129l86 492h143zM401 1023h94l144 -205h-113l-87 113l-107 -113h-114z" />
    <glyph glyph-name="Udieresis" unicode="&#xdc;" horiz-adv-x="634" 
d="M666 750l-89 -506c-25 -142 -113 -254 -273 -254h-7c-125 0 -204 81 -215 187c-3 26 0 65 5 93l85 480h143l-87 -490c-3 -18 -6 -44 -4 -60c4 -41 28 -71 82 -71h6c69 0 112 57 125 129l86 492h143zM384 824h-123l23 131h123zM598 824h-122l23 131h122z" />
    <glyph glyph-name="Yacute" unicode="&#xdd;" horiz-adv-x="606" 
d="M103 750h155l90 -280h2l191 280h166l-305 -421l-58 -329h-143l57 328zM601 994l1 -12l-172 -175h-95l114 187h152z" />
    <glyph glyph-name="Thorn" unicode="&#xde;" horiz-adv-x="616" 
d="M236 279h102c34 0 55 5 71 13c31 16 51 49 54 88c4 39 -11 70 -36 85c-13 9 -36 14 -66 14h-90zM212 142l-25 -142h-143l132 750h143l-24 -133h71c42 0 86 -6 112 -16c85 -33 138 -120 128 -225c-9 -103 -73 -183 -163 -218c-26 -10 -65 -16 -110 -16h-121z" />
    <glyph glyph-name="germandbls" unicode="&#xdf;" horiz-adv-x="613" 
d="M603 565c-7 -76 -55 -146 -130 -173c56 -24 105 -89 97 -183c-13 -148 -113 -219 -238 -219c-48 0 -84 4 -112 11l22 123c21 -7 49 -11 81 -11c60 0 108 36 114 105c6 76 -53 115 -126 115h-13l21 117h43c50 0 103 37 109 99c4 50 -32 82 -89 82
c-73 0 -105 -50 -116 -112l-118 -672h-134l117 668c23 131 108 245 269 245c128 0 214 -77 203 -195z" />
    <glyph glyph-name="agrave" unicode="&#xe0;" horiz-adv-x="549" 
d="M236 401h-132c27 113 115 169 230 169c98 0 159 -45 179 -120c7 -27 5 -67 -1 -103l-61 -347h-84v86h-1c-35 -58 -80 -96 -156 -96c-100 0 -173 62 -162 186c7 81 54 137 126 162c27 9 60 14 103 14h98l2 14c10 58 -9 93 -62 93c-44 0 -69 -24 -79 -58zM185 181
c-4 -44 16 -72 62 -72c52 0 94 46 106 116l4 23h-81c-15 0 -34 -2 -45 -6c-27 -10 -43 -32 -46 -61zM196 802l1 12h152l115 -187h-96z" />
    <glyph glyph-name="aacute" unicode="&#xe1;" horiz-adv-x="549" 
d="M236 401h-132c27 113 115 169 230 169c98 0 159 -45 179 -120c7 -27 5 -67 -1 -103l-61 -347h-84v86h-1c-35 -58 -80 -96 -156 -96c-100 0 -173 62 -162 186c7 81 54 137 126 162c27 9 60 14 103 14h98l2 14c10 58 -9 93 -62 93c-44 0 -69 -24 -79 -58zM185 181
c-4 -44 16 -72 62 -72c52 0 94 46 106 116l4 23h-81c-15 0 -34 -2 -45 -6c-27 -10 -43 -32 -46 -61zM527 814l1 -12l-172 -175h-95l114 187h152z" />
    <glyph glyph-name="acircumflex" unicode="&#xe2;" horiz-adv-x="549" 
d="M236 401h-132c27 113 115 169 230 169c98 0 159 -45 179 -120c7 -27 5 -67 -1 -103l-61 -347h-84v86h-1c-35 -58 -80 -96 -156 -96c-100 0 -173 62 -162 186c7 81 54 137 126 162c27 9 60 14 103 14h98l2 14c10 58 -9 93 -62 93c-44 0 -69 -24 -79 -58zM185 181
c-4 -44 16 -72 62 -72c52 0 94 46 106 116l4 23h-81c-15 0 -34 -2 -45 -6c-27 -10 -43 -32 -46 -61zM323 823h94l144 -205h-113l-87 113l-107 -113h-114z" />
    <glyph glyph-name="atilde" unicode="&#xe3;" horiz-adv-x="549" 
d="M236 401h-132c27 113 115 169 230 169c98 0 159 -45 179 -120c7 -27 5 -67 -1 -103l-61 -347h-84v86h-1c-35 -58 -80 -96 -156 -96c-100 0 -173 62 -162 186c7 81 54 137 126 162c27 9 60 14 103 14h98l2 14c10 58 -9 93 -62 93c-44 0 -69 -24 -79 -58zM185 181
c-4 -44 16 -72 62 -72c52 0 94 46 106 116l4 23h-81c-15 0 -34 -2 -45 -6c-27 -10 -43 -32 -46 -61zM359 658c-33 27 -40 39 -67 38c-11 0 -31 -11 -39 -54h-86c15 100 68 157 136 157c30 0 58 -11 86 -34c34 -27 41 -39 67 -38c12 0 31 11 39 54h87
c-15 -100 -68 -157 -137 -157c-29 0 -58 11 -86 34z" />
    <glyph glyph-name="adieresis" unicode="&#xe4;" horiz-adv-x="549" 
d="M236 401h-132c27 113 115 169 230 169c98 0 159 -45 179 -120c7 -27 5 -67 -1 -103l-61 -347h-84v86h-1c-35 -58 -80 -96 -156 -96c-100 0 -173 62 -162 186c7 81 54 137 126 162c27 9 60 14 103 14h98l2 14c10 58 -9 93 -62 93c-44 0 -69 -24 -79 -58zM185 181
c-4 -44 16 -72 62 -72c52 0 94 46 106 116l4 23h-81c-15 0 -34 -2 -45 -6c-27 -10 -43 -32 -46 -61zM321 644h-123l23 131h123zM535 644h-122l23 131h122z" />
    <glyph glyph-name="aring" unicode="&#xe5;" horiz-adv-x="549" 
d="M236 401h-132c27 113 115 169 230 169c98 0 159 -45 179 -120c7 -27 5 -67 -1 -103l-61 -347h-84v86h-1c-35 -58 -80 -96 -156 -96c-100 0 -173 62 -162 186c7 81 54 137 126 162c27 9 60 14 103 14h98l2 14c10 58 -9 93 -62 93c-44 0 -69 -24 -79 -58zM185 181
c-4 -44 16 -72 62 -72c52 0 94 46 106 116l4 23h-81c-15 0 -34 -2 -45 -6c-27 -10 -43 -32 -46 -61zM379 687c28 0 46 24 46 50s-18 50 -46 50c-29 0 -46 -24 -46 -50s17 -50 46 -50zM379 861c66 0 120 -55 120 -124s-54 -124 -120 -124c-67 0 -121 55 -121 124
s54 124 121 124z" />
    <glyph glyph-name="ae" unicode="&#xe6;" horiz-adv-x="833" 
d="M549 109c43 0 72 28 88 63h140c-9 -27 -20 -53 -34 -74c-41 -63 -108 -108 -197 -108c-84 0 -133 41 -155 105c-43 -66 -106 -105 -178 -105c-100 0 -176 62 -165 186c7 81 54 137 126 162c27 9 60 14 103 14h98l2 14c10 58 -9 93 -62 93c-44 0 -69 -24 -79 -58h-132
c27 113 115 169 223 169c71 0 118 -27 143 -73c37 44 89 73 160 73c88 0 149 -51 173 -123c13 -37 11 -87 4 -128l-14 -76h-298l-4 -24c-3 -19 -5 -41 -3 -58c3 -28 21 -52 61 -52zM185 181c-4 -44 16 -72 62 -72c52 0 94 46 106 116l4 23h-81c-15 0 -34 -2 -45 -6
c-27 -10 -43 -32 -46 -61zM535 406c-10 -16 -17 -37 -22 -59h160c3 18 5 39 3 55c-3 28 -21 52 -61 52c-37 0 -62 -19 -80 -48z" />
    <glyph glyph-name="ccedilla" unicode="&#xe7;" horiz-adv-x="530" 
d="M87 -142h76c3 -20 17 -32 39 -32c20 0 34 14 35 30c2 19 -11 33 -43 43l-24 7c-26 8 -38 18 -22 47l28 50c-53 21 -90 62 -107 113c-13 37 -11 84 -4 125l17 95c7 41 24 90 47 126c41 63 108 108 200 108c93 0 160 -54 183 -126c8 -26 11 -56 9 -86h-139c1 10 0 20 -1 29
c-3 28 -21 52 -61 52c-37 0 -62 -19 -80 -48c-11 -18 -18 -43 -23 -69l-15 -91c-3 -19 -4 -41 -2 -58c3 -28 21 -52 61 -52c45 0 81 30 92 73h141c-9 -34 -23 -68 -41 -96c-41 -63 -109 -108 -201 -108h-9l-15 -33c51 -16 95 -45 90 -101c-6 -63 -57 -100 -118 -100
c-65 0 -114 39 -113 102z" />
    <glyph glyph-name="egrave" unicode="&#xe8;" horiz-adv-x="542" 
d="M262 109c43 0 68 28 84 63h140c-9 -27 -20 -53 -34 -74c-41 -63 -108 -108 -200 -108c-93 0 -159 54 -183 126c-13 37 -11 84 -4 125l17 95c7 41 24 90 47 126c41 63 108 108 200 108c93 0 159 -51 183 -123c13 -37 11 -87 4 -128l-14 -76h-298l-4 -24
c-3 -19 -4 -41 -2 -58c3 -28 24 -52 64 -52zM244 406c-10 -16 -17 -37 -22 -59h160c3 18 5 39 3 55c-3 28 -21 52 -61 52c-37 0 -62 -19 -80 -48zM191 802l1 12h152l115 -187h-96z" />
    <glyph glyph-name="eacute" unicode="&#xe9;" horiz-adv-x="542" 
d="M262 109c43 0 68 28 84 63h140c-9 -27 -20 -53 -34 -74c-41 -63 -108 -108 -200 -108c-93 0 -159 54 -183 126c-13 37 -11 84 -4 125l17 95c7 41 24 90 47 126c41 63 108 108 200 108c93 0 159 -51 183 -123c13 -37 11 -87 4 -128l-14 -76h-298l-4 -24
c-3 -19 -4 -41 -2 -58c3 -28 24 -52 64 -52zM244 406c-10 -16 -17 -37 -22 -59h160c3 18 5 39 3 55c-3 28 -21 52 -61 52c-37 0 -62 -19 -80 -48zM517 814l1 -12l-172 -175h-95l114 187h152z" />
    <glyph glyph-name="ecircumflex" unicode="&#xea;" horiz-adv-x="542" 
d="M262 109c43 0 68 28 84 63h140c-9 -27 -20 -53 -34 -74c-41 -63 -108 -108 -200 -108c-93 0 -159 54 -183 126c-13 37 -11 84 -4 125l17 95c7 41 24 90 47 126c41 63 108 108 200 108c93 0 159 -51 183 -123c13 -37 11 -87 4 -128l-14 -76h-298l-4 -24
c-3 -19 -4 -41 -2 -58c3 -28 24 -52 64 -52zM244 406c-10 -16 -17 -37 -22 -59h160c3 18 5 39 3 55c-3 28 -21 52 -61 52c-37 0 -62 -19 -80 -48zM321 823h94l144 -205h-113l-87 113l-107 -113h-114z" />
    <glyph glyph-name="edieresis" unicode="&#xeb;" horiz-adv-x="542" 
d="M262 109c43 0 68 28 84 63h140c-9 -27 -20 -53 -34 -74c-41 -63 -108 -108 -200 -108c-93 0 -159 54 -183 126c-13 37 -11 84 -4 125l17 95c7 41 24 90 47 126c41 63 108 108 200 108c93 0 159 -51 183 -123c13 -37 11 -87 4 -128l-14 -76h-298l-4 -24
c-3 -19 -4 -41 -2 -58c3 -28 24 -52 64 -52zM244 406c-10 -16 -17 -37 -22 -59h160c3 18 5 39 3 55c-3 28 -21 52 -61 52c-37 0 -62 -19 -80 -48zM313 644h-123l23 131h123zM527 644h-122l23 131h122z" />
    <glyph glyph-name="igrave" unicode="&#xec;" horiz-adv-x="274" 
d="M38 0l98 560h138l-98 -560h-138zM11 802l1 12h152l115 -187h-96z" />
    <glyph glyph-name="iacute" unicode="&#xed;" horiz-adv-x="274" 
d="M38 0l98 560h138l-98 -560h-138zM414 814l1 -12l-172 -175h-95l114 187h152z" />
    <glyph glyph-name="icircumflex" unicode="&#xee;" horiz-adv-x="274" 
d="M189 833h94l131 -205h-113l-74 113l-100 -113h-114zM38 0l98 560h138l-98 -560h-138z" />
    <glyph glyph-name="idieresis" unicode="&#xef;" horiz-adv-x="274" 
d="M38 0l98 560h138l-98 -560h-138zM173 644h-123l23 131h123zM387 644h-122l23 131h122z" />
    <glyph glyph-name="eth" unicode="&#xf0;" horiz-adv-x="542" 
d="M259 121c37 0 62 19 80 48c11 18 19 43 24 69l5 31c3 19 5 41 3 58c-3 28 -21 52 -61 52c-37 0 -62 -19 -80 -48c-11 -18 -19 -43 -24 -69l-5 -31c-3 -19 -5 -41 -3 -58c3 -28 21 -52 61 -52zM306 511c13 0 58 -8 82 -34c0 45 -18 94 -31 120l-122 -44l-14 80l99 36
c-10 22 -23 50 -40 74l113 50c21 -27 34 -51 49 -77l115 42l14 -79l-95 -35c14 -39 33 -93 39 -137c9 -68 11 -133 -2 -203l-15 -80c-7 -41 -24 -90 -47 -126c-41 -63 -108 -108 -200 -108c-93 0 -159 54 -183 126c-13 37 -11 84 -4 125l6 35c7 41 23 90 47 126
c41 62 97 109 189 109z" />
    <glyph glyph-name="ntilde" unicode="&#xf1;" horiz-adv-x="585" 
d="M399 570c79 0 141 -53 151 -143c3 -24 1 -61 -4 -91l-59 -336h-138l55 320c4 23 6 41 5 55c-2 35 -16 63 -56 63c-50 0 -108 -57 -126 -159l-48 -279h-138l98 560h91v-76h1c44 57 103 86 168 86zM378 658c-33 27 -40 39 -67 38c-11 0 -31 -11 -39 -54h-86
c15 100 68 157 136 157c30 0 58 -11 86 -34c34 -27 41 -39 67 -38c12 0 31 11 39 54h87c-15 -100 -68 -157 -137 -157c-29 0 -58 11 -86 34z" />
    <glyph glyph-name="ograve" unicode="&#xf2;" horiz-adv-x="543" 
d="M260 121c37 0 62 19 80 48c11 18 19 43 24 69l15 91c3 19 5 41 3 58c-3 28 -21 52 -61 52c-37 0 -62 -19 -80 -48c-11 -18 -19 -43 -24 -69l-15 -91c-3 -19 -5 -41 -3 -58c3 -28 21 -52 61 -52zM252 -10c-93 0 -159 54 -183 126c-13 37 -11 84 -4 125l17 95
c7 41 24 90 47 126c41 63 108 108 200 108c93 0 159 -54 183 -126c13 -37 11 -84 4 -125l-17 -95c-7 -41 -24 -90 -47 -126c-41 -63 -108 -108 -200 -108zM193 802l1 12h152l115 -187h-96z" />
    <glyph glyph-name="oacute" unicode="&#xf3;" horiz-adv-x="543" 
d="M260 121c37 0 62 19 80 48c11 18 19 43 24 69l15 91c3 19 5 41 3 58c-3 28 -21 52 -61 52c-37 0 -62 -19 -80 -48c-11 -18 -19 -43 -24 -69l-15 -91c-3 -19 -5 -41 -3 -58c3 -28 21 -52 61 -52zM252 -10c-93 0 -159 54 -183 126c-13 37 -11 84 -4 125l17 95
c7 41 24 90 47 126c41 63 108 108 200 108c93 0 159 -54 183 -126c13 -37 11 -84 4 -125l-17 -95c-7 -41 -24 -90 -47 -126c-41 -63 -108 -108 -200 -108zM518 814l1 -12l-172 -175h-95l114 187h152z" />
    <glyph glyph-name="ocircumflex" unicode="&#xf4;" horiz-adv-x="543" 
d="M260 121c37 0 62 19 80 48c11 18 19 43 24 69l15 91c3 19 5 41 3 58c-3 28 -21 52 -61 52c-37 0 -62 -19 -80 -48c-11 -18 -19 -43 -24 -69l-15 -91c-3 -19 -5 -41 -3 -58c3 -28 21 -52 61 -52zM252 -10c-93 0 -159 54 -183 126c-13 37 -11 84 -4 125l17 95
c7 41 24 90 47 126c41 63 108 108 200 108c93 0 159 -54 183 -126c13 -37 11 -84 4 -125l-17 -95c-7 -41 -24 -90 -47 -126c-41 -63 -108 -108 -200 -108zM320 823h94l144 -205h-113l-87 113l-107 -113h-114z" />
    <glyph glyph-name="otilde" unicode="&#xf5;" horiz-adv-x="543" 
d="M260 121c37 0 62 19 80 48c11 18 19 43 24 69l15 91c3 19 5 41 3 58c-3 28 -21 52 -61 52c-37 0 -62 -19 -80 -48c-11 -18 -19 -43 -24 -69l-15 -91c-3 -19 -5 -41 -3 -58c3 -28 21 -52 61 -52zM252 -10c-93 0 -159 54 -183 126c-13 37 -11 84 -4 125l17 95
c7 41 24 90 47 126c41 63 108 108 200 108c93 0 159 -54 183 -126c13 -37 11 -84 4 -125l-17 -95c-7 -41 -24 -90 -47 -126c-41 -63 -108 -108 -200 -108zM352 658c-33 27 -40 39 -67 38c-11 0 -31 -11 -39 -54h-86c15 100 68 157 136 157c30 0 58 -11 86 -34
c34 -27 41 -39 67 -38c12 0 31 11 39 54h87c-15 -100 -68 -157 -137 -157c-29 0 -58 11 -86 34z" />
    <glyph glyph-name="odieresis" unicode="&#xf6;" horiz-adv-x="543" 
d="M260 121c37 0 62 19 80 48c11 18 19 43 24 69l15 91c3 19 5 41 3 58c-3 28 -21 52 -61 52c-37 0 -62 -19 -80 -48c-11 -18 -19 -43 -24 -69l-15 -91c-3 -19 -5 -41 -3 -58c3 -28 21 -52 61 -52zM252 -10c-93 0 -159 54 -183 126c-13 37 -11 84 -4 125l17 95
c7 41 24 90 47 126c41 63 108 108 200 108c93 0 159 -54 183 -126c13 -37 11 -84 4 -125l-17 -95c-7 -41 -24 -90 -47 -126c-41 -63 -108 -108 -200 -108zM310 644h-123l23 131h123zM524 644h-122l23 131h122z" />
    <glyph glyph-name="divide" unicode="&#xf7;" 
d="M555 241h-516l21 118h516zM392 433h-126l24 137h126zM321 30h-126l24 137h126z" />
    <glyph glyph-name="oslash" unicode="&#xf8;" horiz-adv-x="545" 
d="M252 -10c-40 0 -74 10 -103 26l-34 -51h-69l59 87c-16 19 -28 40 -36 64c-13 37 -11 84 -4 125l17 95c7 41 24 90 47 126c41 63 108 108 200 108c40 0 76 -11 105 -28l35 53h69l-61 -90c16 -18 27 -39 35 -61c13 -37 11 -84 4 -125l-17 -95c-7 -41 -24 -90 -47 -126
c-41 -63 -108 -108 -200 -108zM202 231c-3 -15 -5 -33 -4 -48l163 244c-9 7 -23 12 -40 12c-37 0 -62 -19 -80 -48c-11 -18 -19 -43 -24 -69zM260 121c37 0 62 19 80 48c11 18 19 43 24 69l15 91c2 14 4 30 4 44l-161 -242c9 -7 22 -10 38 -10z" />
    <glyph glyph-name="ugrave" unicode="&#xf9;" horiz-adv-x="585" 
d="M224 -10c-79 0 -141 53 -151 143c-3 24 -1 61 4 91l59 336h138l-55 -320c-4 -23 -6 -41 -5 -55c2 -35 16 -63 56 -63c50 0 108 57 126 159l48 279h138l-98 -560h-91v76h-1c-44 -57 -103 -86 -168 -86zM180 802l1 12h152l115 -187h-96z" />
    <glyph glyph-name="uacute" unicode="&#xfa;" horiz-adv-x="585" 
d="M224 -10c-79 0 -141 53 -151 143c-3 24 -1 61 4 91l59 336h138l-55 -320c-4 -23 -6 -41 -5 -55c2 -35 16 -63 56 -63c50 0 108 57 126 159l48 279h138l-98 -560h-91v76h-1c-44 -57 -103 -86 -168 -86zM553 814l1 -12l-172 -175h-95l114 187h152z" />
    <glyph glyph-name="ucircumflex" unicode="&#xfb;" horiz-adv-x="585" 
d="M224 -10c-79 0 -141 53 -151 143c-3 24 -1 61 4 91l59 336h138l-55 -320c-4 -23 -6 -41 -5 -55c2 -35 16 -63 56 -63c50 0 108 57 126 159l48 279h138l-98 -560h-91v76h-1c-44 -57 -103 -86 -168 -86zM340 833h94l144 -205h-113l-87 113l-107 -113h-114z" />
    <glyph glyph-name="udieresis" unicode="&#xfc;" horiz-adv-x="585" 
d="M224 -10c-79 0 -141 53 -151 143c-3 24 -1 61 4 91l59 336h138l-55 -320c-4 -23 -6 -41 -5 -55c2 -35 16 -63 56 -63c50 0 108 57 126 159l48 279h138l-98 -560h-91v76h-1c-44 -57 -103 -86 -168 -86zM321 644h-123l23 131h123zM535 644h-122l23 131h122z" />
    <glyph glyph-name="yacute" unicode="&#xfd;" horiz-adv-x="537" 
d="M173 21l-97 539h141l52 -369h2l176 369h151l-306 -585c-69 -132 -153 -191 -256 -191c-36 0 -68 5 -94 13l23 133c25 -6 49 -12 81 -12c58 0 91 33 117 83zM534 814l1 -12l-172 -175h-95l114 187h152z" />
    <glyph glyph-name="thorn" unicode="&#xfe;" 
d="M230 278l-6 -37c-9 -54 4 -121 69 -121c55 0 91 54 101 115l14 84c4 23 6 41 5 55c-2 35 -17 63 -57 63c-50 0 -109 -57 -126 -159zM-1 -244l182 1029h138l-39 -218c-4 -25 -11 -58 -11 -58h1c40 41 78 61 129 61c82 0 144 -53 154 -143c3 -24 1 -61 -4 -91l-19 -104
c-6 -31 -14 -68 -27 -98c-34 -82 -102 -144 -198 -144c-46 0 -84 18 -116 56h-1s-5 -33 -9 -58l-42 -232h-138z" />
    <glyph glyph-name="ydieresis" unicode="&#xff;" horiz-adv-x="537" 
d="M173 21l-97 539h141l52 -369h2l176 369h151l-306 -585c-69 -132 -153 -191 -256 -191c-36 0 -68 5 -94 13l23 133c25 -6 49 -12 81 -12c58 0 91 33 117 83zM294 644h-123l23 131h123zM508 644h-122l23 131h122z" />
    <glyph glyph-name="Amacron" unicode="&#x100;" horiz-adv-x="600" 
d="M584 920l-16 -95h-324l16 95h324zM391 329l-18 237h-4l-98 -237h120zM402 193h-190l-83 -193h-149l338 750h168l74 -750h-143z" />
    <glyph glyph-name="amacron" unicode="&#x101;" horiz-adv-x="549" 
d="M236 401h-132c27 113 115 169 230 169c98 0 159 -45 179 -120c7 -27 5 -67 -1 -103l-61 -347h-84v86h-1c-35 -58 -80 -96 -156 -96c-100 0 -173 62 -162 186c7 81 54 137 126 162c27 9 60 14 103 14h98l2 14c10 58 -9 93 -62 93c-44 0 -69 -24 -79 -58zM185 181
c-4 -44 16 -72 62 -72c52 0 94 46 106 116l4 23h-81c-15 0 -34 -2 -45 -6c-27 -10 -43 -32 -46 -61zM550 740l-16 -95h-324l16 95h324z" />
    <glyph glyph-name="Abreve" unicode="&#x102;" horiz-adv-x="600" 
d="M391 329l-18 237h-4l-98 -237h120zM402 193h-190l-83 -193h-149l338 750h168l74 -750h-143zM406 803c-106 0 -165 71 -159 182h89c2 -51 21 -84 79 -84c57 0 82 33 94 84h89c-16 -111 -87 -182 -192 -182z" />
    <glyph glyph-name="abreve" unicode="&#x103;" horiz-adv-x="549" 
d="M236 401h-132c27 113 115 169 230 169c98 0 159 -45 179 -120c7 -27 5 -67 -1 -103l-61 -347h-84v86h-1c-35 -58 -80 -96 -156 -96c-100 0 -173 62 -162 186c7 81 54 137 126 162c27 9 60 14 103 14h98l2 14c10 58 -9 93 -62 93c-44 0 -69 -24 -79 -58zM185 181
c-4 -44 16 -72 62 -72c52 0 94 46 106 116l4 23h-81c-15 0 -34 -2 -45 -6c-27 -10 -43 -32 -46 -61zM375 623c-106 0 -165 71 -159 182h89c2 -51 21 -84 79 -84c57 0 82 33 94 84h89c-16 -111 -87 -182 -192 -182z" />
    <glyph glyph-name="Aogonek" unicode="&#x104;" horiz-adv-x="600" 
d="M402 193h-190l-83 -193h-149l338 750h168l74 -750c-81 -49 -120 -89 -124 -126c-2 -23 16 -40 43 -40c22 0 38 6 62 19l21 -61c-28 -19 -67 -31 -101 -31c-66 0 -124 34 -120 102c2 44 30 83 78 117zM391 329l-18 237h-4l-98 -237h120z" />
    <glyph glyph-name="aogonek" unicode="&#x105;" horiz-adv-x="549" 
d="M236 401h-132c27 113 115 169 230 169c98 0 159 -45 179 -120c7 -27 5 -67 -1 -103l-61 -347c-81 -49 -121 -89 -125 -126c-2 -23 16 -40 43 -40c22 0 38 6 62 19l21 -61c-28 -19 -67 -31 -101 -31c-66 0 -124 34 -120 102c3 59 52 107 136 147v76h-1
c-35 -58 -80 -96 -156 -96c-100 0 -173 62 -162 186c7 81 54 137 126 162c27 9 60 14 103 14h98l2 14c10 58 -9 93 -62 93c-44 0 -69 -24 -79 -58zM185 181c-4 -44 16 -72 62 -72c52 0 94 46 106 116l4 23h-81c-15 0 -34 -2 -45 -6c-27 -10 -43 -32 -46 -61z" />
    <glyph glyph-name="Cacute" unicode="&#x106;" horiz-adv-x="603" 
d="M432 270h141c-10 -143 -107 -280 -276 -280h-7c-125 0 -204 81 -215 187c-3 26 0 65 5 93l41 236c25 142 113 254 273 254h8c123 0 205 -76 214 -188c2 -24 1 -58 -3 -86h-142c3 18 6 48 4 64c-4 41 -26 71 -81 71h-8c-70 0 -111 -57 -124 -129l-41 -232
c-3 -18 -6 -44 -4 -60c4 -41 28 -71 82 -71h6c69 0 113 54 125 129zM563 994l1 -12l-172 -175h-95l114 187h152z" />
    <glyph glyph-name="cacute" unicode="&#x107;" horiz-adv-x="530" 
d="M353 194h141c-9 -34 -23 -68 -41 -96c-41 -63 -109 -108 -201 -108c-93 0 -159 54 -183 126c-13 37 -11 84 -4 125l17 95c7 41 24 90 47 126c41 63 108 108 200 108c93 0 160 -54 183 -126c8 -26 11 -56 9 -86h-139c1 10 0 20 -1 29c-3 28 -21 52 -61 52
c-37 0 -62 -19 -80 -48c-11 -18 -18 -43 -23 -69l-15 -91c-3 -19 -4 -41 -2 -58c3 -28 21 -52 61 -52c45 0 81 30 92 73zM509 814l1 -12l-172 -175h-95l114 187h152z" />
    <glyph glyph-name="Ccircumflex" unicode="&#x108;" horiz-adv-x="603" 
d="M432 270h141c-10 -143 -107 -280 -276 -280h-7c-125 0 -204 81 -215 187c-3 26 0 65 5 93l41 236c25 142 113 254 273 254h8c123 0 205 -76 214 -188c2 -24 1 -58 -3 -86h-142c3 18 6 48 4 64c-4 41 -26 71 -81 71h-8c-70 0 -111 -57 -124 -129l-41 -232
c-3 -18 -6 -44 -4 -60c4 -41 28 -71 82 -71h6c69 0 113 54 125 129zM389 1013h94l144 -205h-113l-87 113l-107 -113h-114z" />
    <glyph glyph-name="ccircumflex" unicode="&#x109;" horiz-adv-x="530" 
d="M353 194h141c-9 -34 -23 -68 -41 -96c-41 -63 -109 -108 -201 -108c-93 0 -159 54 -183 126c-13 37 -11 84 -4 125l17 95c7 41 24 90 47 126c41 63 108 108 200 108c93 0 160 -54 183 -126c8 -26 11 -56 9 -86h-139c1 10 0 20 -1 29c-3 28 -21 52 -61 52
c-37 0 -62 -19 -80 -48c-11 -18 -18 -43 -23 -69l-15 -91c-3 -19 -4 -41 -2 -58c3 -28 21 -52 61 -52c45 0 81 30 92 73zM321 833h94l144 -205h-113l-87 113l-107 -113h-114z" />
    <glyph glyph-name="Cdotaccent" unicode="&#x10a;" horiz-adv-x="603" 
d="M432 270h141c-10 -143 -107 -280 -276 -280h-7c-125 0 -204 81 -215 187c-3 26 0 65 5 93l41 236c25 142 113 254 273 254h8c123 0 205 -76 214 -188c2 -24 1 -58 -3 -86h-142c3 18 6 48 4 64c-4 41 -26 71 -81 71h-8c-70 0 -111 -57 -124 -129l-41 -232
c-3 -18 -6 -44 -4 -60c4 -41 28 -71 82 -71h6c69 0 113 54 125 129zM482 823h-138l25 139h138z" />
    <glyph glyph-name="cdotaccent" unicode="&#x10b;" horiz-adv-x="530" 
d="M353 194h141c-9 -34 -23 -68 -41 -96c-41 -63 -109 -108 -201 -108c-93 0 -159 54 -183 126c-13 37 -11 84 -4 125l17 95c7 41 24 90 47 126c41 63 108 108 200 108c93 0 160 -54 183 -126c8 -26 11 -56 9 -86h-139c1 10 0 20 -1 29c-3 28 -21 52 -61 52
c-37 0 -62 -19 -80 -48c-11 -18 -18 -43 -23 -69l-15 -91c-3 -19 -4 -41 -2 -58c3 -28 21 -52 61 -52c45 0 81 30 92 73zM425 643h-138l25 139h138z" />
    <glyph glyph-name="Ccaron" unicode="&#x10c;" horiz-adv-x="603" 
d="M432 270h141c-10 -143 -107 -280 -276 -280h-7c-125 0 -204 81 -215 187c-3 26 0 65 5 93l41 236c25 142 113 254 273 254h8c123 0 205 -76 214 -188c2 -24 1 -58 -3 -86h-142c3 18 6 48 4 64c-4 41 -26 71 -81 71h-8c-70 0 -111 -57 -124 -129l-41 -232
c-3 -18 -6 -44 -4 -60c4 -41 28 -71 82 -71h6c69 0 113 54 125 129zM464 808h-94l-145 205h114l86 -113l108 113h113z" />
    <glyph glyph-name="ccaron" unicode="&#x10d;" horiz-adv-x="530" 
d="M353 194h141c-9 -34 -23 -68 -41 -96c-41 -63 -109 -108 -201 -108c-93 0 -159 54 -183 126c-13 37 -11 84 -4 125l17 95c7 41 24 90 47 126c41 63 108 108 200 108c93 0 160 -54 183 -126c8 -26 11 -56 9 -86h-139c1 10 0 20 -1 29c-3 28 -21 52 -61 52
c-37 0 -62 -19 -80 -48c-11 -18 -18 -43 -23 -69l-15 -91c-3 -19 -4 -41 -2 -58c3 -28 21 -52 61 -52c45 0 81 30 92 73zM406 628h-94l-145 205h114l86 -113l108 113h113z" />
    <glyph glyph-name="Dcaron" unicode="&#x10e;" horiz-adv-x="623" 
d="M176 750h216c41 0 73 -5 99 -16c72 -29 117 -94 125 -172c3 -25 1 -64 -4 -92l-38 -216c-20 -114 -81 -208 -186 -241c-26 -8 -60 -13 -96 -13h-248zM384 611h-91l-83 -473h89c25 0 52 6 69 17c35 22 57 64 66 113l37 212c3 18 6 44 4 60c-4 41 -26 71 -91 71zM443 808
h-94l-145 205h114l86 -113l108 113h113z" />
    <glyph glyph-name="dcaron" unicode="&#x10f;" horiz-adv-x="667" 
d="M381 282l6 37c9 54 -4 121 -69 121c-55 0 -91 -54 -101 -115l-14 -84c-4 -23 -6 -41 -5 -55c2 -35 17 -63 57 -63c50 0 109 57 126 159zM306 570c46 0 84 -18 116 -56h1s5 33 9 58l38 213h138l-138 -785h-91v76h-1c-44 -57 -102 -86 -166 -86c-82 0 -144 53 -154 143
c-3 24 -1 61 4 91l19 104c6 31 14 68 27 98c34 82 102 144 198 144zM657 666l21 119h121l-15 -86c-4 -19 -8 -39 -15 -55c-21 -49 -60 -86 -130 -96l8 43c52 15 67 49 70 66c2 8 -3 9 -7 9h-53z" />
    <glyph glyph-name="Dcroat" unicode="&#x110;" horiz-adv-x="655" 
d="M208 750h216c41 0 73 -5 99 -16c72 -29 117 -94 125 -172c3 -25 1 -64 -4 -92l-38 -216c-20 -114 -81 -208 -186 -241c-26 -8 -60 -13 -96 -13h-248l60 342h-94l18 106h94zM416 611h-91l-29 -163h119l-18 -106h-119l-36 -204h89c25 0 52 6 69 17c35 22 57 64 66 113
l37 212c3 18 6 44 4 60c-4 41 -26 71 -91 71z" />
    <glyph glyph-name="dcroat" unicode="&#x111;" horiz-adv-x="579" 
d="M306 570c46 0 84 -18 116 -56h1s5 33 9 58l12 66h-167l13 75h167l13 72h138l-13 -72h89l-13 -75h-89l-112 -638h-91v76h-1c-44 -57 -102 -86 -166 -86c-82 0 -144 53 -154 143c-3 24 -1 61 4 91l19 104c6 31 14 68 27 98c34 82 102 144 198 144zM381 282l6 37
c9 54 -4 121 -69 121c-55 0 -91 -54 -101 -115l-14 -84c-4 -23 -6 -41 -5 -55c2 -35 17 -63 57 -63c50 0 109 57 126 159z" />
    <glyph glyph-name="Emacron" unicode="&#x112;" horiz-adv-x="555" 
d="M44 0l132 750h443l-24 -133h-300l-29 -166h248l-24 -133h-248l-32 -185h300l-23 -133h-443zM576 920l-16 -95h-324l16 95h324z" />
    <glyph glyph-name="emacron" unicode="&#x113;" horiz-adv-x="542" 
d="M262 109c43 0 68 28 84 63h140c-9 -27 -20 -53 -34 -74c-41 -63 -108 -108 -200 -108c-93 0 -159 54 -183 126c-13 37 -11 84 -4 125l17 95c7 41 24 90 47 126c41 63 108 108 200 108c93 0 159 -51 183 -123c13 -37 11 -87 4 -128l-14 -76h-298l-4 -24
c-3 -19 -4 -41 -2 -58c3 -28 24 -52 64 -52zM244 406c-10 -16 -17 -37 -22 -59h160c3 18 5 39 3 55c-3 28 -21 52 -61 52c-37 0 -62 -19 -80 -48zM541 740l-16 -95h-324l16 95h324z" />
    <glyph glyph-name="Ebreve" unicode="&#x114;" horiz-adv-x="555" 
d="M44 0l132 750h443l-24 -133h-300l-29 -166h248l-24 -133h-248l-32 -185h300l-23 -133h-443zM408 803c-106 0 -165 71 -159 182h89c2 -51 21 -84 79 -84c57 0 82 33 94 84h89c-16 -111 -87 -182 -192 -182z" />
    <glyph glyph-name="ebreve" unicode="&#x115;" horiz-adv-x="542" 
d="M262 109c43 0 68 28 84 63h140c-9 -27 -20 -53 -34 -74c-41 -63 -108 -108 -200 -108c-93 0 -159 54 -183 126c-13 37 -11 84 -4 125l17 95c7 41 24 90 47 126c41 63 108 108 200 108c93 0 159 -51 183 -123c13 -37 11 -87 4 -128l-14 -76h-298l-4 -24
c-3 -19 -4 -41 -2 -58c3 -28 24 -52 64 -52zM244 406c-10 -16 -17 -37 -22 -59h160c3 18 5 39 3 55c-3 28 -21 52 -61 52c-37 0 -62 -19 -80 -48zM376 623c-106 0 -165 71 -159 182h89c2 -51 21 -84 79 -84c57 0 82 33 94 84h89c-16 -111 -87 -182 -192 -182z" />
    <glyph glyph-name="Edotaccent" unicode="&#x116;" horiz-adv-x="555" 
d="M44 0l132 750h443l-24 -133h-300l-29 -166h248l-24 -133h-248l-32 -185h300l-23 -133h-443zM476 823h-138l25 139h138z" />
    <glyph glyph-name="edotaccent" unicode="&#x117;" horiz-adv-x="542" 
d="M262 109c43 0 68 28 84 63h140c-9 -27 -20 -53 -34 -74c-41 -63 -108 -108 -200 -108c-93 0 -159 54 -183 126c-13 37 -11 84 -4 125l17 95c7 41 24 90 47 126c41 63 108 108 200 108c93 0 159 -51 183 -123c13 -37 11 -87 4 -128l-14 -76h-298l-4 -24
c-3 -19 -4 -41 -2 -58c3 -28 24 -52 64 -52zM244 406c-10 -16 -17 -37 -22 -59h160c3 18 5 39 3 55c-3 28 -21 52 -61 52c-37 0 -62 -19 -80 -48zM427 643h-138l25 139h138z" />
    <glyph glyph-name="Eogonek" unicode="&#x118;" horiz-adv-x="555" 
d="M44 0l132 750h443l-24 -133h-300l-29 -166h248l-24 -133h-248l-32 -185h300l-23 -133c-24 -4 -46 -18 -58 -26c-54 -38 -82 -70 -85 -100c-2 -23 16 -40 43 -40c22 0 38 6 62 19l21 -61c-28 -19 -67 -31 -101 -31c-66 0 -124 34 -120 102c3 52 42 98 110 137h-315z" />
    <glyph glyph-name="eogonek" unicode="&#x119;" horiz-adv-x="542" 
d="M258 109c43 0 72 28 88 63h140c-9 -27 -20 -53 -34 -74c-24 -37 -57 -66 -98 -86c-103 -49 -142 -101 -146 -138c-2 -23 16 -40 43 -40c22 0 38 6 62 19l21 -61c-28 -19 -67 -31 -101 -31c-66 0 -124 34 -120 102c3 50 38 93 99 131c-72 12 -122 60 -143 122
c-13 37 -11 84 -4 125l17 95c7 41 24 90 47 126c41 63 108 108 200 108c93 0 159 -51 183 -123c13 -37 11 -87 4 -128l-14 -76h-298l-4 -24c-3 -19 -5 -41 -3 -58c3 -28 21 -52 61 -52zM244 406c-10 -16 -17 -37 -22 -59h160c3 18 5 39 3 55c-3 28 -21 52 -61 52
c-37 0 -62 -19 -80 -48z" />
    <glyph glyph-name="Ecaron" unicode="&#x11a;" horiz-adv-x="555" 
d="M44 0l132 750h443l-24 -133h-300l-29 -166h248l-24 -133h-248l-32 -185h300l-23 -133h-443zM453 808h-94l-145 205h114l86 -113l108 113h113z" />
    <glyph glyph-name="ecaron" unicode="&#x11b;" horiz-adv-x="542" 
d="M262 109c43 0 68 28 84 63h140c-9 -27 -20 -53 -34 -74c-41 -63 -108 -108 -200 -108c-93 0 -159 54 -183 126c-13 37 -11 84 -4 125l17 95c7 41 24 90 47 126c41 63 108 108 200 108c93 0 159 -51 183 -123c13 -37 11 -87 4 -128l-14 -76h-298l-4 -24
c-3 -19 -4 -41 -2 -58c3 -28 24 -52 64 -52zM244 406c-10 -16 -17 -37 -22 -59h160c3 18 5 39 3 55c-3 28 -21 52 -61 52c-37 0 -62 -19 -80 -48zM408 628h-94l-145 205h114l86 -113l108 113h113z" />
    <glyph glyph-name="Gcircumflex" unicode="&#x11c;" horiz-adv-x="625" 
d="M280 -10c-115 0 -194 81 -205 187c-3 26 0 65 5 93l41 236c25 142 113 254 273 254h8c123 0 203 -75 213 -188c2 -20 2 -42 0 -64h-142c1 13 2 30 1 42c-3 41 -25 72 -80 72h-8c-70 0 -111 -58 -124 -130l-41 -232c-3 -18 -6 -44 -4 -60c4 -41 28 -72 82 -72h7
c53 0 110 35 124 119l4 22h-111l23 128h252l-70 -397h-62l-10 83h-1c-44 -60 -112 -93 -175 -93zM385 1013h94l144 -205h-113l-87 113l-107 -113h-114z" />
    <glyph glyph-name="gcircumflex" unicode="&#x11d;" horiz-adv-x="571" 
d="M384 291l4 27c9 54 -4 121 -69 121c-55 0 -91 -54 -101 -115l-12 -74c-4 -23 -6 -41 -5 -55c2 -35 17 -63 57 -63c50 0 109 57 126 159zM568 560l-97 -554c-6 -34 -15 -66 -24 -89c-35 -97 -119 -155 -223 -155c-111 0 -195 65 -204 187h135c6 -39 35 -65 79 -65
c49 0 84 36 96 107l2 12c4 25 11 58 11 58h-1c-40 -41 -79 -61 -130 -61c-79 0 -141 53 -151 143c-3 24 -1 61 4 91l17 94c6 31 14 68 27 98c34 82 101 144 200 144c63 0 119 -34 143 -86h1l24 76h91zM341 833h94l144 -205h-113l-87 113l-107 -113h-114z" />
    <glyph glyph-name="Gbreve" unicode="&#x11e;" horiz-adv-x="625" 
d="M280 -10c-115 0 -194 81 -205 187c-3 26 0 65 5 93l41 236c25 142 113 254 273 254h8c123 0 203 -75 213 -188c2 -20 2 -42 0 -64h-142c1 13 2 30 1 42c-3 41 -25 72 -80 72h-8c-70 0 -111 -58 -124 -130l-41 -232c-3 -18 -6 -44 -4 -60c4 -41 28 -72 82 -72h7
c53 0 110 35 124 119l4 22h-111l23 128h252l-70 -397h-62l-10 83h-1c-44 -60 -112 -93 -175 -93zM427 803c-106 0 -165 71 -159 182h89c2 -51 21 -84 79 -84c57 0 82 33 94 84h89c-16 -111 -87 -182 -192 -182z" />
    <glyph glyph-name="gbreve" unicode="&#x11f;" horiz-adv-x="571" 
d="M384 291l4 27c9 54 -4 121 -69 121c-55 0 -91 -54 -101 -115l-12 -74c-4 -23 -6 -41 -5 -55c2 -35 17 -63 57 -63c50 0 109 57 126 159zM568 560l-97 -554c-6 -34 -15 -66 -24 -89c-35 -97 -119 -155 -223 -155c-111 0 -195 65 -204 187h135c6 -39 35 -65 79 -65
c49 0 84 36 96 107l2 12c4 25 11 58 11 58h-1c-40 -41 -79 -61 -130 -61c-79 0 -141 53 -151 143c-3 24 -1 61 4 91l17 94c6 31 14 68 27 98c34 82 101 144 200 144c63 0 119 -34 143 -86h1l24 76h91zM369 623c-106 0 -165 71 -159 182h89c2 -51 21 -84 79 -84
c57 0 82 33 94 84h89c-16 -111 -87 -182 -192 -182z" />
    <glyph glyph-name="Gdotaccent" unicode="&#x120;" horiz-adv-x="625" 
d="M280 -10c-115 0 -194 81 -205 187c-3 26 0 65 5 93l41 236c25 142 113 254 273 254h8c123 0 203 -75 213 -188c2 -20 2 -42 0 -64h-142c1 13 2 30 1 42c-3 41 -25 72 -80 72h-8c-70 0 -111 -58 -124 -130l-41 -232c-3 -18 -6 -44 -4 -60c4 -41 28 -72 82 -72h7
c53 0 110 35 124 119l4 22h-111l23 128h252l-70 -397h-62l-10 83h-1c-44 -60 -112 -93 -175 -93zM484 823h-138l25 139h138z" />
    <glyph glyph-name="gdotaccent" unicode="&#x121;" horiz-adv-x="571" 
d="M384 291l4 27c9 54 -4 121 -69 121c-55 0 -91 -54 -101 -115l-12 -74c-4 -23 -6 -41 -5 -55c2 -35 17 -63 57 -63c50 0 109 57 126 159zM568 560l-97 -554c-6 -34 -15 -66 -24 -89c-35 -97 -119 -155 -223 -155c-111 0 -195 65 -204 187h135c6 -39 35 -65 79 -65
c49 0 84 36 96 107l2 12c4 25 11 58 11 58h-1c-40 -41 -79 -61 -130 -61c-79 0 -141 53 -151 143c-3 24 -1 61 4 91l17 94c6 31 14 68 27 98c34 82 101 144 200 144c63 0 119 -34 143 -86h1l24 76h91zM429 643h-138l25 139h138z" />
    <glyph glyph-name="Gcommaaccent" unicode="&#x122;" horiz-adv-x="625" 
d="M280 -10c-115 0 -194 81 -205 187c-3 26 0 65 5 93l41 236c25 142 113 254 273 254h8c123 0 203 -75 213 -188c2 -20 2 -42 0 -64h-142c1 13 2 30 1 42c-3 41 -25 72 -80 72h-8c-70 0 -111 -58 -124 -130l-41 -232c-3 -18 -6 -44 -4 -60c4 -41 28 -72 82 -72h7
c53 0 110 35 124 119l4 22h-111l23 128h252l-70 -397h-62l-10 83h-1c-44 -60 -112 -93 -175 -93zM195 -169l21 119h121l-15 -86c-4 -19 -8 -39 -15 -55c-21 -49 -60 -86 -130 -96l7 43c53 15 68 49 71 66c2 8 -3 9 -7 9h-53z" />
    <glyph glyph-name="gcommaaccent" unicode="&#x123;" horiz-adv-x="571" 
d="M428 760l-21 -119h-121l15 86c3 19 8 39 14 55c21 49 61 86 130 96l-7 -43c-53 -15 -68 -49 -71 -66c-1 -8 4 -9 8 -9h53zM384 291l4 27c9 54 -4 121 -69 121c-55 0 -91 -54 -101 -115l-12 -74c-4 -23 -6 -41 -5 -55c2 -35 17 -63 57 -63c50 0 109 57 126 159zM568 560
l-97 -554c-6 -34 -15 -66 -24 -89c-35 -97 -119 -155 -223 -155c-111 0 -195 65 -204 187h135c6 -39 35 -65 79 -65c49 0 84 36 96 107l2 12c4 25 11 58 11 58h-1c-40 -41 -79 -61 -130 -61c-79 0 -141 53 -151 143c-3 24 -1 61 4 91l17 94c6 31 14 68 27 98
c34 82 101 144 200 144c63 0 119 -34 143 -86h1l24 76h91z" />
    <glyph glyph-name="Hcircumflex" unicode="&#x124;" horiz-adv-x="655" 
d="M44 0l132 750h143l-51 -290h221l51 290h143l-132 -750h-143l56 322h-221l-56 -322h-143zM410 1023h94l144 -205h-113l-87 113l-107 -113h-114z" />
    <glyph glyph-name="hcircumflex" unicode="&#x125;" horiz-adv-x="585" 
d="M487 0h-138l55 320c4 23 6 41 5 55c-2 35 -16 63 -56 63c-50 0 -108 -57 -126 -159l-48 -279h-138l138 785h138l-39 -218c-4 -25 -11 -58 -11 -58h1c40 41 80 61 131 61c79 0 141 -53 151 -143c3 -24 1 -61 -4 -91zM363 1033h94l144 -205h-113l-87 113l-107 -113h-114z
" />
    <glyph glyph-name="Hbar" unicode="&#x126;" horiz-adv-x="676" 
d="M54 0l98 560h-94l13 75h94l21 115h143l-21 -115h221l21 115h143l-21 -115h95l-13 -75h-95l-98 -560h-143l56 322h-221l-56 -322h-143zM278 460h221l17 100h-221z" />
    <glyph glyph-name="hbar" unicode="&#x127;" horiz-adv-x="598" 
d="M500 0h-138l55 320c4 23 6 41 5 55c-2 35 -16 63 -56 63c-50 0 -108 -57 -126 -159l-48 -279h-138l112 638h-89l13 75h89l13 72h138l-13 -72h162l-13 -75h-163l-12 -71c-4 -25 -11 -58 -11 -58h1c40 41 80 61 131 61c79 0 141 -53 151 -143c3 -24 1 -61 -4 -91z" />
    <glyph glyph-name="Itilde" unicode="&#x128;" horiz-adv-x="291" 
d="M44 0l132 750h143l-132 -750h-143zM259 838c-33 27 -40 39 -67 38c-11 0 -31 -11 -39 -54h-86c15 100 68 157 136 157c30 0 58 -11 86 -34c34 -27 41 -39 67 -38c12 0 31 11 39 54h87c-15 -100 -68 -157 -137 -157c-29 0 -58 11 -86 34z" />
    <glyph glyph-name="itilde" unicode="&#x129;" horiz-adv-x="274" 
d="M38 0l98 560h138l-98 -560h-138zM218 658c-33 27 -40 39 -67 38c-11 0 -31 -11 -39 -54h-86c15 100 68 157 136 157c30 0 58 -11 86 -34c34 -27 41 -39 67 -38c12 0 31 11 39 54h87c-15 -100 -68 -157 -137 -157c-29 0 -58 11 -86 34z" />
    <glyph glyph-name="uni012A" unicode="&#x12a;" horiz-adv-x="291" 
d="M44 0l132 750h143l-132 -750h-143zM436 920l-16 -95h-324l16 95h324z" />
    <glyph glyph-name="imacron" unicode="&#x12b;" horiz-adv-x="274" 
d="M38 0l98 560h138l-98 -560h-138zM394 740l-16 -95h-324l16 95h324z" />
    <glyph glyph-name="Ibreve" unicode="&#x12c;" horiz-adv-x="291" 
d="M44 0l132 750h143l-132 -750h-143zM262 803c-106 0 -165 71 -159 182h89c2 -51 21 -84 79 -84c57 0 82 33 94 84h89c-16 -111 -87 -182 -192 -182z" />
    <glyph glyph-name="uni012D" unicode="&#x12d;" horiz-adv-x="274" 
d="M38 0l98 560h138l-98 -560h-138zM220 623c-106 0 -165 71 -159 182h89c2 -51 21 -84 79 -84c57 0 82 33 94 84h89c-16 -111 -87 -182 -192 -182z" />
    <glyph glyph-name="Iogonek" unicode="&#x12e;" horiz-adv-x="291" 
d="M319 750l-132 -750c-81 -49 -121 -89 -125 -126c-2 -23 16 -40 43 -40c22 0 38 6 62 19l21 -61c-28 -19 -67 -31 -101 -31c-66 0 -124 34 -120 102c3 42 28 80 73 113l136 774h143z" />
    <glyph glyph-name="iogonek" unicode="&#x12f;" horiz-adv-x="274" 
d="M274 560l-98 -560c-81 -49 -121 -89 -125 -126c-2 -23 16 -40 43 -40c22 0 38 6 62 19l21 -61c-28 -19 -67 -31 -101 -31c-66 0 -124 34 -120 102c3 44 30 83 78 117l102 580h138zM150 640l25 141h138l-25 -141h-138z" />
    <glyph glyph-name="Idotaccent" unicode="&#x130;" horiz-adv-x="291" 
d="M44 0l132 750h143l-132 -750h-143zM331 823h-138l25 139h138z" />
    <glyph glyph-name="dotlessi" unicode="&#x131;" horiz-adv-x="274" 
d="M38 0l98 560h138l-98 -560h-138z" />
    <glyph glyph-name="IJ" unicode="&#x132;" horiz-adv-x="836" 
d="M44 0l132 750h143l-132 -750h-143zM636 245l90 505h142l-91 -515c-7 -37 -14 -71 -35 -114c-38 -79 -104 -130 -209 -130c-107 0 -180 62 -198 151c-6 32 -6 70 0 107l7 42h142l-9 -52c-3 -18 -5 -38 -3 -53c4 -33 24 -59 66 -59c41 0 68 27 83 62c5 11 11 32 15 56z" />
    <glyph glyph-name="ij" unicode="&#x133;" horiz-adv-x="556" 
d="M38 0l98 560h138l-98 -560h-138zM150 640l25 141h138l-25 -141h-138zM431 640l25 141h139l-25 -141h-139zM315 -19l102 579h139l-105 -593c-27 -152 -112 -203 -237 -203c-27 0 -48 2 -57 3l24 132c12 -1 23 -2 35 -2c57 0 88 23 99 84z" />
    <glyph glyph-name="Jcircumflex" unicode="&#x134;" horiz-adv-x="555" 
d="M355 245l90 505h142l-91 -515c-7 -37 -14 -71 -35 -114c-38 -79 -104 -130 -209 -130c-107 0 -180 62 -198 151c-6 32 -6 70 0 107l7 42h142l-9 -52c-3 -18 -5 -38 -3 -53c4 -33 24 -59 66 -59c41 0 68 27 83 62c5 11 11 32 15 56zM495 1013h94l144 -205h-113l-87 113
l-107 -113h-114z" />
    <glyph glyph-name="jcircumflex" unicode="&#x135;" horiz-adv-x="282" 
d="M41 -19l102 579h139l-105 -593c-27 -152 -112 -203 -237 -203c-27 0 -48 2 -57 3l24 132c12 -1 23 -2 35 -2c57 0 88 23 99 84zM195 833h94l144 -205h-113l-87 113l-107 -113h-114z" />
    <glyph glyph-name="Kcommaaccent" unicode="&#x136;" horiz-adv-x="619" 
d="M310 513l230 237h174l-298 -301l170 -449h-153l-124 350l-76 -84l-47 -266h-142l132 750h142l-50 -282l1 -1s22 26 41 46zM211 -169l21 119h121l-15 -86c-4 -19 -8 -39 -15 -55c-21 -49 -60 -86 -130 -96l7 43c53 15 68 49 71 66c2 8 -3 9 -7 9h-53z" />
    <glyph glyph-name="kcommaaccent" unicode="&#x137;" horiz-adv-x="550" 
d="M514 0h-158l-87 274l-50 -46l-40 -228h-138l138 785h138l-69 -390l177 165h180l-223 -199zM177 -169l21 119h121l-15 -86c-4 -19 -8 -39 -15 -55c-21 -49 -60 -86 -130 -96l7 43c53 15 68 49 71 66c2 8 -3 9 -7 9h-53z" />
    <glyph glyph-name="kgreenlandic" unicode="&#x138;" horiz-adv-x="550" 
d="M514 0h-158l-87 274l-50 -46l-40 -228h-138l98 560h138l-29 -165l177 165h180l-223 -199z" />
    <glyph glyph-name="Lacute" unicode="&#x139;" horiz-adv-x="552" 
d="M44 0l132 750h143l-108 -613h307l-24 -137h-450zM452 994l1 -12l-172 -175h-95l114 187h152z" />
    <glyph glyph-name="lacute" unicode="&#x13a;" horiz-adv-x="280" 
d="M41 0l138 785h138l-138 -785h-138zM455 1024l1 -12l-172 -175h-95l114 187h152z" />
    <glyph glyph-name="Lcommaaccent" unicode="&#x13b;" horiz-adv-x="552" 
d="M44 0l132 750h143l-108 -613h307l-24 -137h-450zM189 -169l21 119h121l-15 -86c-4 -19 -8 -39 -15 -55c-21 -49 -60 -86 -130 -96l7 43c53 15 68 49 71 66c2 8 -3 9 -7 9h-53z" />
    <glyph glyph-name="lcommaaccent" unicode="&#x13c;" horiz-adv-x="280" 
d="M41 0l138 785h138l-138 -785h-138zM22 -169l21 119h121l-15 -86c-4 -19 -8 -39 -15 -55c-21 -49 -60 -86 -130 -96l7 43c53 15 68 49 71 66c2 8 -3 9 -7 9h-53z" />
    <glyph glyph-name="Lcaron" unicode="&#x13d;" horiz-adv-x="552" 
d="M44 0l132 750h143l-108 -613h307l-24 -137h-450zM432 666l21 119h121l-15 -86c-4 -19 -8 -39 -15 -55c-21 -49 -60 -86 -130 -96l8 43c52 15 67 49 70 66c2 8 -3 9 -7 9h-53z" />
    <glyph glyph-name="lcaron" unicode="&#x13e;" horiz-adv-x="371" 
d="M41 0l138 785h138l-138 -785h-138zM361 666l21 119h121l-15 -86c-4 -19 -8 -39 -15 -55c-21 -49 -60 -86 -130 -96l8 43c52 15 67 49 70 66c2 8 -3 9 -7 9h-53z" />
    <glyph glyph-name="Ldot" unicode="&#x13f;" horiz-adv-x="539" 
d="M44 0l132 750h143l-108 -613h307l-24 -137h-450zM523 348h-138l25 139h138z" />
    <glyph glyph-name="ldot" unicode="&#x140;" horiz-adv-x="433" 
d="M41 0l138 785h138l-138 -785h-138zM459 348h-138l25 139h138z" />
    <glyph glyph-name="Lslash" unicode="&#x141;" horiz-adv-x="593" 
d="M85 0l47 268l-113 -60l21 118l113 60l64 364h143l-50 -280l153 82l-21 -118l-152 -82l-38 -215h307l-24 -137h-450z" />
    <glyph glyph-name="lslash" unicode="&#x142;" horiz-adv-x="363" 
d="M404 482l-112 -72l-72 -410h-137l54 311l-112 -72l20 116l113 72l63 358h137l-46 -259l113 72z" />
    <glyph glyph-name="Nacute" unicode="&#x143;" horiz-adv-x="655" 
d="M263 489h-1s-5 -33 -9 -58l-76 -431h-133l132 750h149l138 -489h1s5 33 10 58l76 431h133l-132 -750h-151zM622 994l1 -12l-172 -175h-95l114 187h152z" />
    <glyph glyph-name="nacute" unicode="&#x144;" horiz-adv-x="585" 
d="M399 570c79 0 141 -53 151 -143c3 -24 1 -61 -4 -91l-59 -336h-138l55 320c4 23 6 41 5 55c-2 35 -16 63 -56 63c-50 0 -108 -57 -126 -159l-48 -279h-138l98 560h91v-76h1c44 57 103 86 168 86zM528 814l1 -12l-172 -175h-95l114 187h152z" />
    <glyph glyph-name="Ncommaaccent" unicode="&#x145;" horiz-adv-x="655" 
d="M263 489h-1s-5 -33 -9 -58l-76 -431h-133l132 750h149l138 -489h1s5 33 10 58l76 431h133l-132 -750h-151zM214 -169l21 119h121l-15 -86c-4 -19 -8 -39 -15 -55c-21 -49 -60 -86 -130 -96l7 43c53 15 68 49 71 66c2 8 -3 9 -7 9h-53z" />
    <glyph glyph-name="ncommaaccent" unicode="&#x146;" horiz-adv-x="585" 
d="M399 570c79 0 141 -53 151 -143c3 -24 1 -61 -4 -91l-59 -336h-138l55 320c4 23 6 41 5 55c-2 35 -16 63 -56 63c-50 0 -108 -57 -126 -159l-48 -279h-138l98 560h91v-76h1c44 57 103 86 168 86zM173 -169l21 119h121l-15 -86c-4 -19 -8 -39 -15 -55
c-21 -49 -60 -86 -130 -96l7 43c53 15 68 49 71 66c2 8 -3 9 -7 9h-53z" />
    <glyph glyph-name="Ncaron" unicode="&#x147;" horiz-adv-x="655" 
d="M263 489h-1s-5 -33 -9 -58l-76 -431h-133l132 750h149l138 -489h1s5 33 10 58l76 431h133l-132 -750h-151zM473 808h-94l-145 205h114l86 -113l108 113h113z" />
    <glyph glyph-name="ncaron" unicode="&#x148;" horiz-adv-x="585" 
d="M399 570c79 0 141 -53 151 -143c3 -24 1 -61 -4 -91l-59 -336h-138l55 320c4 23 6 41 5 55c-2 35 -16 63 -56 63c-50 0 -108 -57 -126 -159l-48 -279h-138l98 560h91v-76h1c44 57 103 86 168 86zM418 628h-94l-145 205h114l86 -113l108 113h113z" />
    <glyph glyph-name="napostrophe" unicode="&#x149;" horiz-adv-x="694" 
d="M508 570c79 0 141 -53 151 -143c3 -24 1 -61 -4 -91l-59 -336h-138l55 320c4 23 6 41 5 55c-2 35 -16 63 -56 63c-50 0 -108 -57 -126 -159l-48 -279h-138l98 560h91v-76h1c44 57 103 86 168 86zM84 666l21 119h121l-15 -86c-4 -19 -8 -39 -15 -55
c-21 -49 -60 -86 -130 -96l8 43c52 15 67 49 70 66c2 8 -3 9 -7 9h-53z" />
    <glyph glyph-name="Eng" unicode="&#x14a;" horiz-adv-x="655" 
d="M263 489h-1s-5 -33 -9 -58l-76 -431h-133l132 750h149l138 -489h1s6 33 10 58l76 431h133l-138 -783c-28 -152 -112 -203 -237 -203c-27 0 -48 2 -57 3l24 132c12 -1 29 -2 41 -2c57 0 88 23 99 84l3 19h-18z" />
    <glyph glyph-name="eng" unicode="&#x14b;" horiz-adv-x="585" 
d="M546 336l-65 -369c-27 -152 -112 -203 -237 -203c-27 0 -48 2 -57 3l24 132c12 -1 23 -2 35 -2c57 0 88 23 99 84l59 339c4 23 6 41 5 55c-2 35 -16 63 -56 63c-50 0 -108 -57 -126 -159l-48 -279h-138l98 560h91v-76h1c44 57 103 86 168 86c79 0 141 -53 151 -143
c3 -24 1 -61 -4 -91z" />
    <glyph glyph-name="Omacron" unicode="&#x14c;" horiz-adv-x="621" 
d="M80 270l41 236c25 142 113 254 273 254h8c123 0 203 -81 214 -188c3 -25 1 -64 -4 -92l-41 -236c-25 -142 -113 -254 -273 -254h-8c-123 0 -203 81 -214 188c-3 25 -1 64 4 92zM430 258l40 232c3 18 6 44 4 60c-4 41 -35 71 -84 71h-4c-70 0 -111 -57 -124 -129l-40 -232
c-3 -18 -6 -44 -4 -60c4 -41 35 -71 84 -71h4c70 0 111 57 124 129zM606 920l-16 -95h-324l16 95h324z" />
    <glyph glyph-name="omacron" unicode="&#x14d;" horiz-adv-x="543" 
d="M260 121c37 0 62 19 80 48c11 18 19 43 24 69l15 91c3 19 5 41 3 58c-3 28 -21 52 -61 52c-37 0 -62 -19 -80 -48c-11 -18 -19 -43 -24 -69l-15 -91c-3 -19 -5 -41 -3 -58c3 -28 21 -52 61 -52zM252 -10c-93 0 -159 54 -183 126c-13 37 -11 84 -4 125l17 95
c7 41 24 90 47 126c41 63 108 108 200 108c93 0 159 -54 183 -126c13 -37 11 -84 4 -125l-17 -95c-7 -41 -24 -90 -47 -126c-41 -63 -108 -108 -200 -108zM535 740l-16 -95h-324l16 95h324z" />
    <glyph glyph-name="Obreve" unicode="&#x14e;" horiz-adv-x="621" 
d="M80 270l41 236c25 142 113 254 273 254h8c123 0 203 -81 214 -188c3 -25 1 -64 -4 -92l-41 -236c-25 -142 -113 -254 -273 -254h-8c-123 0 -203 81 -214 188c-3 25 -1 64 4 92zM430 258l40 232c3 18 6 44 4 60c-4 41 -35 71 -84 71h-4c-70 0 -111 -57 -124 -129l-40 -232
c-3 -18 -6 -44 -4 -60c4 -41 35 -71 84 -71h4c70 0 111 57 124 129zM439 803c-106 0 -165 71 -159 182h89c2 -51 21 -84 79 -84c57 0 82 33 94 84h89c-16 -111 -87 -182 -192 -182z" />
    <glyph glyph-name="obreve" unicode="&#x14f;" horiz-adv-x="543" 
d="M260 121c37 0 62 19 80 48c11 18 19 43 24 69l15 91c3 19 5 41 3 58c-3 28 -21 52 -61 52c-37 0 -62 -19 -80 -48c-11 -18 -19 -43 -24 -69l-15 -91c-3 -19 -5 -41 -3 -58c3 -28 21 -52 61 -52zM252 -10c-93 0 -159 54 -183 126c-13 37 -11 84 -4 125l17 95
c7 41 24 90 47 126c41 63 108 108 200 108c93 0 159 -54 183 -126c13 -37 11 -84 4 -125l-17 -95c-7 -41 -24 -90 -47 -126c-41 -63 -108 -108 -200 -108zM380 623c-106 0 -165 71 -159 182h89c2 -51 21 -84 79 -84c57 0 82 33 94 84h89c-16 -111 -87 -182 -192 -182z" />
    <glyph glyph-name="Ohungarumlaut" unicode="&#x150;" horiz-adv-x="621" 
d="M80 270l41 236c25 142 113 254 273 254h8c123 0 203 -81 214 -188c3 -25 1 -64 -4 -92l-41 -236c-25 -142 -113 -254 -273 -254h-8c-123 0 -203 81 -214 188c-3 25 -1 64 4 92zM430 258l40 232c3 18 6 44 4 60c-4 41 -35 71 -84 71h-4c-70 0 -111 -57 -124 -129l-40 -232
c-3 -18 -6 -44 -4 -60c4 -41 35 -71 84 -71h4c70 0 111 57 124 129zM504 994l1 -12l-153 -175h-95l115 187h132zM710 994l1 -12l-153 -175h-95l115 187h132z" />
    <glyph glyph-name="ohungarumlaut" unicode="&#x151;" horiz-adv-x="543" 
d="M260 121c37 0 62 19 80 48c11 18 19 43 24 69l15 91c3 19 5 41 3 58c-3 28 -21 52 -61 52c-37 0 -62 -19 -80 -48c-11 -18 -19 -43 -24 -69l-15 -91c-3 -19 -5 -41 -3 -58c3 -28 21 -52 61 -52zM252 -10c-93 0 -159 54 -183 126c-13 37 -11 84 -4 125l17 95
c7 41 24 90 47 126c41 63 108 108 200 108c93 0 159 -54 183 -126c13 -37 11 -84 4 -125l-17 -95c-7 -41 -24 -90 -47 -126c-41 -63 -108 -108 -200 -108zM438 814l1 -12l-153 -175h-95l115 187h132zM644 814l1 -12l-153 -175h-95l115 187h132z" />
    <glyph glyph-name="OE" unicode="&#x152;" horiz-adv-x="863" 
d="M399 750h528l-24 -135h-273l-29 -163h220l-24 -135h-220l-32 -182h273l-23 -135h-496c-41 0 -73 5 -99 16c-72 29 -117 94 -125 172c-3 25 -1 64 4 92l38 216c20 114 81 208 186 241c26 8 60 13 96 13zM307 139h97l83 473h-95c-25 0 -52 -6 -69 -17
c-35 -22 -57 -64 -66 -113l-37 -212c-3 -18 -6 -44 -4 -60c4 -41 26 -71 91 -71z" />
    <glyph glyph-name="oe" unicode="&#x153;" horiz-adv-x="841" 
d="M557 109c43 0 72 28 88 63h140c-9 -27 -20 -53 -34 -74c-41 -63 -106 -108 -190 -108c-75 0 -124 33 -150 85c-37 -51 -92 -85 -169 -85c-83 0 -149 54 -173 126c-13 37 -11 84 -4 125l17 95c7 41 24 90 47 126c41 63 108 108 190 108c74 0 124 -33 150 -85
c37 51 91 85 169 85c88 0 149 -51 173 -123c13 -37 11 -87 4 -128l-14 -76h-298l-4 -24c-3 -19 -5 -41 -3 -58c3 -28 21 -52 61 -52zM260 121c37 0 62 19 80 48c11 18 19 43 24 69l15 91c3 19 5 41 3 58c-3 28 -21 52 -61 52c-37 0 -62 -19 -80 -48c-11 -18 -19 -43 -24 -69
l-15 -91c-3 -19 -5 -41 -3 -58c3 -28 21 -52 61 -52zM543 406c-10 -16 -17 -37 -22 -59h160c3 18 5 39 3 55c-3 28 -21 52 -61 52c-37 0 -62 -19 -80 -48z" />
    <glyph glyph-name="Racute" unicode="&#x154;" horiz-adv-x="610" 
d="M608 544c-8 -65 -50 -132 -138 -173v-1c59 -23 83 -65 76 -139l-13 -129c-3 -38 0 -75 24 -96l-1 -6h-152c-15 20 -17 57 -14 90l11 118c7 71 -22 99 -97 99h-65l-53 -307h-142l132 750h186c33 0 72 -2 96 -7c99 -21 163 -88 150 -199zM263 438h83c71 0 112 41 117 98
c4 40 -14 63 -47 72c-13 4 -32 5 -56 5h-67zM567 994l1 -12l-172 -175h-95l114 187h152z" />
    <glyph glyph-name="racute" unicode="&#x155;" horiz-adv-x="434" 
d="M228 280l-49 -280h-138l98 560h91l-1 -92h1c55 78 110 102 175 102c29 0 54 -4 76 -10l-27 -137c-23 8 -44 11 -71 11c-72 0 -139 -61 -155 -154zM493 814l1 -12l-172 -175h-95l114 187h152z" />
    <glyph glyph-name="Rcommaaccent" unicode="&#x156;" horiz-adv-x="610" 
d="M608 544c-8 -65 -50 -132 -138 -173v-1c59 -23 83 -65 76 -139l-13 -129c-3 -38 0 -75 24 -96l-1 -6h-152c-15 20 -17 57 -14 90l11 118c7 71 -22 99 -97 99h-65l-53 -307h-142l132 750h186c33 0 72 -2 96 -7c99 -21 163 -88 150 -199zM263 438h83c71 0 112 41 117 98
c4 40 -14 63 -47 72c-13 4 -32 5 -56 5h-67zM204 -169l21 119h121l-15 -86c-4 -19 -8 -39 -15 -55c-21 -49 -60 -86 -130 -96l7 43c53 15 68 49 71 66c2 8 -3 9 -7 9h-53z" />
    <glyph glyph-name="rcommaaccent" unicode="&#x157;" horiz-adv-x="434" 
d="M228 280l-49 -280h-138l98 560h91l-1 -92h1c55 78 110 102 175 102c29 0 54 -4 76 -10l-27 -137c-23 8 -44 11 -71 11c-72 0 -139 -61 -155 -154zM23 -169l21 119h121l-15 -86c-4 -19 -8 -39 -15 -55c-21 -49 -60 -86 -130 -96l7 43c53 15 68 49 71 66c2 8 -3 9 -7 9h-53
z" />
    <glyph glyph-name="Rcaron" unicode="&#x158;" horiz-adv-x="610" 
d="M608 544c-8 -65 -50 -132 -138 -173v-1c59 -23 83 -65 76 -139l-13 -129c-3 -38 0 -75 24 -96l-1 -6h-152c-15 20 -17 57 -14 90l11 118c7 71 -22 99 -97 99h-65l-53 -307h-142l132 750h186c33 0 72 -2 96 -7c99 -21 163 -88 150 -199zM263 438h83c71 0 112 41 117 98
c4 40 -14 63 -47 72c-13 4 -32 5 -56 5h-67zM444 808h-94l-145 205h114l86 -113l108 113h113z" />
    <glyph glyph-name="rcaron" unicode="&#x159;" horiz-adv-x="434" 
d="M228 280l-49 -280h-138l98 560h91l-1 -92h1c55 78 110 102 175 102c29 0 54 -4 76 -10l-27 -137c-23 8 -44 11 -71 11c-72 0 -139 -61 -155 -154zM376 628h-94l-145 205h114l86 -113l108 113h113z" />
    <glyph glyph-name="Sacute" unicode="&#x15a;" horiz-adv-x="591" 
d="M596 570c0 -15 -2 -31 -5 -53h-144c8 58 -11 112 -79 112c-70 0 -95 -41 -98 -77c-4 -49 21 -76 65 -96l42 -19c92 -40 181 -109 166 -238c-16 -135 -128 -209 -256 -209c-157 0 -244 109 -235 247h144c-5 -61 29 -116 95 -116c59 0 104 35 109 93c5 54 -44 87 -81 104
l-42 19c-103 45 -167 111 -150 229c18 129 126 194 248 194c127 0 221 -65 221 -190zM557 994l1 -12l-172 -175h-95l114 187h152z" />
    <glyph glyph-name="sacute" unicode="&#x15b;" horiz-adv-x="495" 
d="M238 236c-101 37 -142 85 -142 161c0 107 93 173 199 173c100 0 189 -48 193 -168h-131c-6 37 -24 58 -64 58s-63 -24 -63 -49c0 -26 14 -46 63 -63c90 -32 158 -76 158 -177c0 -111 -102 -181 -208 -181c-122 0 -206 67 -207 187h131c6 -50 34 -75 81 -75
c41 0 68 31 68 63c0 33 -17 49 -78 71zM490 814l1 -12l-172 -175h-95l114 187h152z" />
    <glyph glyph-name="Scircumflex" unicode="&#x15c;" horiz-adv-x="591" 
d="M596 570c0 -15 -2 -31 -5 -53h-144c8 58 -11 112 -79 112c-70 0 -95 -41 -98 -77c-4 -49 21 -76 65 -96l42 -19c92 -40 181 -109 166 -238c-16 -135 -128 -209 -256 -209c-157 0 -244 109 -235 247h144c-5 -61 29 -116 95 -116c59 0 104 35 109 93c5 54 -44 87 -81 104
l-42 19c-103 45 -167 111 -150 229c18 129 126 194 248 194c127 0 221 -65 221 -190zM362 1013h94l144 -205h-113l-87 113l-107 -113h-114z" />
    <glyph glyph-name="scircumflex" unicode="&#x15d;" horiz-adv-x="495" 
d="M238 236c-101 37 -142 85 -142 161c0 107 93 173 199 173c100 0 189 -48 193 -168h-131c-6 37 -24 58 -64 58s-63 -24 -63 -49c0 -26 14 -46 63 -63c90 -32 158 -76 158 -177c0 -111 -102 -181 -208 -181c-122 0 -206 67 -207 187h131c6 -50 34 -75 81 -75
c41 0 68 31 68 63c0 33 -17 49 -78 71zM292 833h94l144 -205h-113l-87 113l-107 -113h-114z" />
    <glyph glyph-name="Scedilla" unicode="&#x15e;" horiz-adv-x="591" 
d="M117 -142h76c3 -20 17 -32 39 -32c20 0 34 14 35 30c2 19 -11 33 -43 43l-24 7c-26 8 -38 18 -22 47l27 48c-105 31 -161 124 -153 236h144c-5 -61 29 -116 95 -116c59 0 104 35 109 93c5 54 -44 87 -81 104l-42 19c-103 45 -167 111 -150 229c18 129 126 194 248 194
c127 0 221 -65 221 -190c0 -15 -2 -31 -5 -53h-144c8 58 -11 112 -79 112c-70 0 -95 -41 -98 -77c-4 -49 21 -76 65 -96l42 -19c92 -40 181 -109 166 -238c-16 -135 -128 -209 -256 -209h-14l-15 -33c51 -16 95 -45 90 -101c-6 -63 -57 -100 -118 -100
c-65 0 -114 39 -113 102z" />
    <glyph glyph-name="scedilla" unicode="&#x15f;" horiz-adv-x="495" 
d="M238 236c-101 37 -142 85 -142 161c0 107 93 173 199 173c100 0 189 -48 193 -168h-131c-6 37 -24 58 -64 58s-63 -24 -63 -49c0 -26 14 -46 63 -63c90 -32 158 -76 158 -177c0 -111 -102 -181 -208 -181h-5l-15 -33c51 -16 95 -45 90 -101c-6 -63 -57 -100 -118 -100
c-65 0 -114 39 -113 102h76c3 -20 17 -32 39 -32c20 0 34 14 35 30c2 19 -11 33 -43 43l-24 7c-26 8 -38 18 -22 47l26 47c-81 21 -132 83 -133 177h131c6 -50 34 -75 81 -75c41 0 68 31 68 63c0 33 -17 49 -78 71z" />
    <glyph glyph-name="Scaron" unicode="&#x160;" horiz-adv-x="591" 
d="M596 570c0 -15 -2 -31 -5 -53h-144c8 58 -11 112 -79 112c-70 0 -95 -41 -98 -77c-4 -49 21 -76 65 -96l42 -19c92 -40 181 -109 166 -238c-16 -135 -128 -209 -256 -209c-157 0 -244 109 -235 247h144c-5 -61 29 -116 95 -116c59 0 104 35 109 93c5 54 -44 87 -81 104
l-42 19c-103 45 -167 111 -150 229c18 129 126 194 248 194c127 0 221 -65 221 -190zM446 808h-94l-145 205h114l86 -113l108 113h113z" />
    <glyph glyph-name="scaron" unicode="&#x161;" horiz-adv-x="495" 
d="M238 236c-101 37 -142 85 -142 161c0 107 93 173 199 173c100 0 189 -48 193 -168h-131c-6 37 -24 58 -64 58s-63 -24 -63 -49c0 -26 14 -46 63 -63c90 -32 158 -76 158 -177c0 -111 -102 -181 -208 -181c-122 0 -206 67 -207 187h131c6 -50 34 -75 81 -75
c41 0 68 31 68 63c0 33 -17 49 -78 71zM371 628h-94l-145 205h114l86 -113l108 113h113z" />
    <glyph glyph-name="Tcommaaccent" unicode="&#x162;" horiz-adv-x="554" 
d="M122 750h514l-25 -138h-185l-107 -612h-143l107 612h-186zM158 -169l21 119h121l-15 -86c-4 -19 -8 -39 -15 -55c-21 -49 -60 -86 -130 -96l7 43c53 15 68 49 71 66c2 8 -3 9 -7 9h-53z" />
    <glyph glyph-name="tcommaaccent" unicode="&#x163;" horiz-adv-x="397" 
d="M113 226l38 215h-86l21 119h86l25 140h138l-25 -140h117l-21 -119h-117l-37 -216c-10 -57 -7 -101 61 -101c12 0 26 1 43 3l-22 -127c-20 -2 -42 -3 -55 -3c-114 0 -171 44 -174 141c-1 23 2 53 8 88zM115 -169l21 119h121l-15 -86c-4 -19 -8 -39 -15 -55
c-21 -49 -60 -86 -130 -96l7 43c53 15 68 49 71 66c2 8 -3 9 -7 9h-53z" />
    <glyph glyph-name="Tcaron" unicode="&#x164;" horiz-adv-x="554" 
d="M122 750h514l-25 -138h-185l-107 -612h-143l107 612h-186zM428 808h-94l-145 205h114l86 -113l108 113h113z" />
    <glyph glyph-name="tcaron" unicode="&#x165;" horiz-adv-x="508" 
d="M113 226l38 215h-86l21 119h86l25 140h138l-25 -140h117l-21 -119h-117l-37 -216c-10 -57 -7 -101 61 -101c12 0 26 1 43 3l-22 -127c-20 -2 -42 -3 -55 -3c-114 0 -171 44 -174 141c-1 23 2 53 8 88zM488 666l21 119h121l-15 -86c-4 -19 -8 -39 -15 -55
c-21 -49 -60 -86 -130 -96l8 43c52 15 67 49 70 66c2 8 -3 9 -7 9h-53z" />
    <glyph glyph-name="Tbar" unicode="&#x166;" horiz-adv-x="554" 
d="M122 750h514l-25 -138h-185l-30 -172h153l-13 -75h-153l-64 -365h-143l64 365h-154l13 75h154l30 172h-186z" />
    <glyph glyph-name="tbar" unicode="&#x167;" horiz-adv-x="407" 
d="M123 226l10 56h-86l13 75h86l15 84h-86l21 119h86l25 140h138l-25 -140h117l-21 -119h-117l-15 -84h117l-13 -75h-116l-10 -57c-10 -57 -7 -101 61 -101c12 0 26 1 43 3l-22 -127c-20 -2 -42 -3 -55 -3c-114 0 -171 44 -174 141c-1 23 2 53 8 88z" />
    <glyph glyph-name="Utilde" unicode="&#x168;" horiz-adv-x="634" 
d="M666 750l-89 -506c-25 -142 -113 -254 -273 -254h-7c-125 0 -204 81 -215 187c-3 26 0 65 5 93l85 480h143l-87 -490c-3 -18 -6 -44 -4 -60c4 -41 28 -71 82 -71h6c69 0 112 57 125 129l86 492h143zM423 838c-33 27 -40 39 -67 38c-11 0 -31 -11 -39 -54h-86
c15 100 68 157 136 157c30 0 58 -11 86 -34c34 -27 41 -39 67 -38c12 0 31 11 39 54h87c-15 -100 -68 -157 -137 -157c-29 0 -58 11 -86 34z" />
    <glyph glyph-name="utilde" unicode="&#x169;" horiz-adv-x="585" 
d="M224 -10c-79 0 -141 53 -151 143c-3 24 -1 61 4 91l59 336h138l-55 -320c-4 -23 -6 -41 -5 -55c2 -35 16 -63 56 -63c50 0 108 57 126 159l48 279h138l-98 -560h-91v76h-1c-44 -57 -103 -86 -168 -86zM376 658c-33 27 -40 39 -67 38c-11 0 -31 -11 -39 -54h-86
c15 100 68 157 136 157c30 0 58 -11 86 -34c34 -27 41 -39 67 -38c12 0 31 11 39 54h87c-15 -100 -68 -157 -137 -157c-29 0 -58 11 -86 34z" />
    <glyph glyph-name="Umacron" unicode="&#x16a;" horiz-adv-x="634" 
d="M666 750l-89 -506c-25 -142 -113 -254 -273 -254h-7c-125 0 -204 81 -215 187c-3 26 0 65 5 93l85 480h143l-87 -490c-3 -18 -6 -44 -4 -60c4 -41 28 -71 82 -71h6c69 0 112 57 125 129l86 492h143zM607 920l-16 -95h-324l16 95h324z" />
    <glyph glyph-name="umacron" unicode="&#x16b;" horiz-adv-x="585" 
d="M224 -10c-79 0 -141 53 -151 143c-3 24 -1 61 4 91l59 336h138l-55 -320c-4 -23 -6 -41 -5 -55c2 -35 16 -63 56 -63c50 0 108 57 126 159l48 279h138l-98 -560h-91v76h-1c-44 -57 -103 -86 -168 -86zM553 740l-16 -95h-324l16 95h324z" />
    <glyph glyph-name="Ubreve" unicode="&#x16c;" horiz-adv-x="634" 
d="M666 750l-89 -506c-25 -142 -113 -254 -273 -254h-7c-125 0 -204 81 -215 187c-3 26 0 65 5 93l85 480h143l-87 -490c-3 -18 -6 -44 -4 -60c4 -41 28 -71 82 -71h6c69 0 112 57 125 129l86 492h143zM430 803c-106 0 -165 71 -159 182h89c2 -51 21 -84 79 -84
c57 0 82 33 94 84h89c-16 -111 -87 -182 -192 -182z" />
    <glyph glyph-name="ubreve" unicode="&#x16d;" horiz-adv-x="585" 
d="M224 -10c-79 0 -141 53 -151 143c-3 24 -1 61 4 91l59 336h138l-55 -320c-4 -23 -6 -41 -5 -55c2 -35 16 -63 56 -63c50 0 108 57 126 159l48 279h138l-98 -560h-91v76h-1c-44 -57 -103 -86 -168 -86zM375 623c-106 0 -165 71 -159 182h89c2 -51 21 -84 79 -84
c57 0 82 33 94 84h89c-16 -111 -87 -182 -192 -182z" />
    <glyph glyph-name="Uring" unicode="&#x16e;" horiz-adv-x="634" 
d="M666 750l-89 -506c-25 -142 -113 -254 -273 -254h-7c-125 0 -204 81 -215 187c-3 26 0 65 5 93l85 480h143l-87 -490c-3 -18 -6 -44 -4 -60c4 -41 28 -71 82 -71h6c69 0 112 57 125 129l86 492h143zM433 867c28 0 46 24 46 50s-18 50 -46 50c-29 0 -46 -24 -46 -50
s17 -50 46 -50zM433 1041c66 0 120 -55 120 -124s-54 -124 -120 -124c-67 0 -121 55 -121 124s54 124 121 124z" />
    <glyph glyph-name="uring" unicode="&#x16f;" horiz-adv-x="585" 
d="M224 -10c-79 0 -141 53 -151 143c-3 24 -1 61 4 91l59 336h138l-55 -320c-4 -23 -6 -41 -5 -55c2 -35 16 -63 56 -63c50 0 108 57 126 159l48 279h138l-98 -560h-91v76h-1c-44 -57 -103 -86 -168 -86zM377 687c28 0 46 24 46 50s-18 50 -46 50c-29 0 -46 -24 -46 -50
s17 -50 46 -50zM377 861c66 0 120 -55 120 -124s-54 -124 -120 -124c-67 0 -121 55 -121 124s54 124 121 124z" />
    <glyph glyph-name="Uhungarumlaut" unicode="&#x170;" horiz-adv-x="634" 
d="M666 750l-89 -506c-25 -142 -113 -254 -273 -254h-7c-125 0 -204 81 -215 187c-3 26 0 65 5 93l85 480h143l-87 -490c-3 -18 -6 -44 -4 -60c4 -41 28 -71 82 -71h6c69 0 112 57 125 129l86 492h143zM493 994l1 -12l-153 -175h-95l115 187h132zM699 994l1 -12l-153 -175
h-95l115 187h132z" />
    <glyph glyph-name="uhungarumlaut" unicode="&#x171;" horiz-adv-x="585" 
d="M224 -10c-79 0 -141 53 -151 143c-3 24 -1 61 4 91l59 336h138l-55 -320c-4 -23 -6 -41 -5 -55c2 -35 16 -63 56 -63c50 0 108 57 126 159l48 279h138l-98 -560h-91v76h-1c-44 -57 -103 -86 -168 -86zM434 814l1 -12l-153 -175h-95l115 187h132zM640 814l1 -12l-153 -175
h-95l115 187h132z" />
    <glyph glyph-name="Uogonek" unicode="&#x172;" horiz-adv-x="634" 
d="M666 750l-89 -506c-17 -96 -62 -178 -139 -221c-78 -44 -177 -90 -183 -149c-2 -23 16 -40 43 -40c22 0 38 6 62 19l21 -61c-28 -19 -67 -31 -101 -31c-66 0 -124 34 -120 102c3 49 37 93 98 130c-102 15 -166 89 -176 184c-3 26 0 65 5 93l85 480h143l-87 -490
c-3 -18 -6 -44 -4 -60c4 -41 28 -71 82 -71h6c69 0 112 57 125 129l86 492h143z" />
    <glyph glyph-name="uogonek" unicode="&#x173;" horiz-adv-x="585" 
d="M224 -10c-79 0 -141 53 -151 143c-3 24 -1 61 4 91l59 336h138l-55 -320c-4 -23 -6 -41 -5 -55c2 -35 16 -63 56 -63c50 0 108 57 126 159l48 279h138l-98 -560c-81 -49 -121 -89 -125 -126c-2 -23 16 -40 43 -40c22 0 38 6 62 19l21 -61c-28 -19 -67 -31 -101 -31
c-66 0 -124 34 -120 102c3 57 49 104 129 144v69h-1c-44 -57 -103 -86 -168 -86z" />
    <glyph glyph-name="Wcircumflex" unicode="&#x174;" horiz-adv-x="918" 
d="M529 0l-20 510l-198 -510h-168l-17 750h147l-8 -522h6l204 522h145l21 -522h6l175 522h156l-282 -750h-167zM518 1013h94l144 -205h-113l-87 113l-107 -113h-114z" />
    <glyph glyph-name="wcircumflex" unicode="&#x175;" horiz-adv-x="771" 
d="M676 560h148l-243 -560h-137l-28 342h-2l-148 -342h-137l-46 560h139l10 -363h2l154 363h121l26 -362h2zM426 833h94l144 -205h-113l-87 113l-107 -113h-114z" />
    <glyph glyph-name="Ycircumflex" unicode="&#x176;" horiz-adv-x="606" 
d="M103 750h155l90 -280h2l191 280h166l-305 -421l-58 -329h-143l57 328zM379 1013h94l144 -205h-113l-87 113l-107 -113h-114z" />
    <glyph glyph-name="ycircumflex" unicode="&#x177;" horiz-adv-x="537" 
d="M173 21l-97 539h141l52 -369h2l176 369h151l-306 -585c-69 -132 -153 -191 -256 -191c-36 0 -68 5 -94 13l23 133c25 -6 49 -12 81 -12c58 0 91 33 117 83zM310 833h94l144 -205h-113l-87 113l-107 -113h-114z" />
    <glyph glyph-name="Ydieresis" unicode="&#x178;" horiz-adv-x="606" 
d="M103 750h155l90 -280h2l191 280h166l-305 -421l-58 -329h-143l57 328zM359 824h-123l23 131h123zM573 824h-122l23 131h122z" />
    <glyph glyph-name="Zacute" unicode="&#x179;" horiz-adv-x="587" 
d="M129 612l25 138h480l-21 -117l-393 -496h316l-24 -137h-499l20 117l393 495h-297zM564 994l1 -12l-172 -175h-95l114 187h152z" />
    <glyph glyph-name="zacute" unicode="&#x17a;" horiz-adv-x="509" 
d="M443 0h-437l19 111l294 318h-229l23 131h413l-20 -112l-292 -317h252zM508 814l1 -12l-172 -175h-95l114 187h152z" />
    <glyph glyph-name="Zdotaccent" unicode="&#x17b;" horiz-adv-x="587" 
d="M129 612l25 138h480l-21 -117l-393 -496h316l-24 -137h-499l20 117l393 495h-297zM463 823h-138l25 139h138z" />
    <glyph glyph-name="zdotaccent" unicode="&#x17c;" horiz-adv-x="509" 
d="M443 0h-437l19 111l294 318h-229l23 131h413l-20 -112l-292 -317h252zM394 643h-138l25 139h138z" />
    <glyph glyph-name="Zcaron" unicode="&#x17d;" horiz-adv-x="587" 
d="M129 612l25 138h480l-21 -117l-393 -496h316l-24 -137h-499l20 117l393 495h-297zM444 808h-94l-145 205h114l86 -113l108 113h113z" />
    <glyph glyph-name="zcaron" unicode="&#x17e;" horiz-adv-x="509" 
d="M443 0h-437l19 111l294 318h-229l23 131h413l-20 -112l-292 -317h252zM375 628h-94l-145 205h114l86 -113l108 113h113z" />
    <glyph glyph-name="longs" unicode="&#x17f;" horiz-adv-x="330" 
d="M309 586l-129 -739h-138l104 594h-81l21 119h81l8 43c26 142 110 193 242 193c26 0 56 -2 63 -3l-23 -130c-11 1 -27 2 -39 2c-64 0 -98 -18 -109 -79z" />
    <glyph glyph-name="florin" unicode="&#x192;" 
d="M632 750l-132 -750h-490l132 750h490zM292 374l-118 281l-99 -562zM349 374l118 -281l99 562zM212 700l117 -279l216 279h-333zM312 326l-214 -276h330z" />
    <glyph glyph-name="dotlessj" unicode="&#x237;" horiz-adv-x="282" 
d="M41 -19l102 579h139l-105 -593c-27 -152 -112 -203 -237 -203c-27 0 -48 2 -57 3l24 132c12 -1 23 -2 35 -2c57 0 88 23 99 84z" />
    <glyph glyph-name="circumflex" unicode="&#x2c6;" horiz-adv-x="530" 
d="M322 863h94l144 -205h-113l-87 113l-107 -113h-114z" />
    <glyph glyph-name="caron" unicode="&#x2c7;" horiz-adv-x="530" 
d="M404 658h-94l-145 205h114l86 -113l108 113h113z" />
    <glyph glyph-name="breve" unicode="&#x2d8;" horiz-adv-x="530" 
d="M362 653c-106 0 -165 71 -159 182h89c2 -51 21 -84 79 -84c57 0 82 33 94 84h89c-16 -111 -87 -182 -192 -182z" />
    <glyph glyph-name="dotaccent" unicode="&#x2d9;" horiz-adv-x="530" 
d="M423 673h-138l25 139h138z" />
    <glyph glyph-name="ring" unicode="&#x2da;" horiz-adv-x="530" 
d="M371 717c28 0 46 24 46 50s-18 50 -46 50c-29 0 -46 -24 -46 -50s17 -50 46 -50zM371 891c66 0 120 -55 120 -124s-54 -124 -120 -124c-67 0 -121 55 -121 124s54 124 121 124z" />
    <glyph glyph-name="ogonek" unicode="&#x2db;" horiz-adv-x="530" 
d="M256 27l55 -27c-81 -49 -121 -89 -125 -126c-2 -23 16 -40 43 -40c22 0 38 6 62 19l21 -61c-28 -19 -67 -31 -101 -31c-66 0 -124 34 -120 102c4 65 63 120 165 164z" />
    <glyph glyph-name="tilde" unicode="&#x2dc;" horiz-adv-x="530" 
d="M349 688c-33 27 -40 39 -67 38c-11 0 -31 -11 -39 -54h-86c15 100 68 157 136 157c30 0 58 -11 86 -34c34 -27 41 -39 67 -38c12 0 31 11 39 54h87c-15 -100 -68 -157 -137 -157c-29 0 -58 11 -86 34z" />
    <glyph glyph-name="hungarumlaut" unicode="&#x2dd;" horiz-adv-x="530" 
d="M423 844l1 -12l-153 -175h-95l115 187h132zM629 844l1 -12l-153 -175h-95l115 187h132z" />
    <glyph glyph-name="Delta" unicode="&#x394;" 
d="M632 750l-132 -750h-490l132 750h490zM292 374l-118 281l-99 -562zM349 374l118 -281l99 562zM212 700l117 -279l216 279h-333zM312 326l-214 -276h330z" />
    <glyph glyph-name="Delta" unicode="&#x2206;" 
d="M632 750l-132 -750h-490l132 750h490zM292 374l-118 281l-99 -562zM349 374l118 -281l99 562zM212 700l117 -279l216 279h-333zM312 326l-214 -276h330z" />
    <glyph glyph-name="Omega" unicode="&#x3a9;" 
d="M632 750l-132 -750h-490l132 750h490zM292 374l-118 281l-99 -562zM349 374l118 -281l99 562zM212 700l117 -279l216 279h-333zM312 326l-214 -276h330z" />
    <glyph glyph-name="Omega" unicode="&#x2126;" 
d="M632 750l-132 -750h-490l132 750h490zM292 374l-118 281l-99 -562zM349 374l118 -281l99 562zM212 700l117 -279l216 279h-333zM312 326l-214 -276h330z" />
    <glyph glyph-name="pi" unicode="&#x3c0;" 
d="M632 750l-132 -750h-490l132 750h490zM292 374l-118 281l-99 -562zM349 374l118 -281l99 562zM212 700l117 -279l216 279h-333zM312 326l-214 -276h330z" />
    <glyph glyph-name="uni0400" unicode="&#x400;" horiz-adv-x="555" 
d="M44 0l132 750h443l-24 -133h-300l-29 -166h248l-24 -133h-248l-32 -185h300l-23 -133h-443zM220 982l1 12h152l115 -187h-96z" />
    <glyph glyph-name="afii10023" unicode="&#x401;" horiz-adv-x="555" 
d="M44 0l132 750h443l-24 -133h-300l-29 -166h248l-24 -133h-248l-32 -185h300l-23 -133h-443zM356 824h-123l23 131h123zM570 824h-122l23 131h122z" />
    <glyph glyph-name="afii10051" unicode="&#x402;" horiz-adv-x="746" 
d="M437 0h-45l24 137h26c34 0 55 5 71 13c31 16 51 49 54 88c4 39 -11 70 -36 85c-13 9 -36 14 -66 14l-100 1l-59 -338h-143l107 612h-173l25 138h506l-25 -138h-190l-24 -137h81c42 0 86 -6 112 -16c85 -33 138 -120 128 -225c-9 -103 -73 -183 -163 -218
c-26 -10 -65 -16 -110 -16z" />
    <glyph glyph-name="afii10052" unicode="&#x403;" horiz-adv-x="540" 
d="M44 0l132 750h438l-25 -138h-295l-107 -612h-143zM568 994l1 -12l-172 -175h-95l114 187h152z" />
    <glyph glyph-name="afii10053" unicode="&#x404;" horiz-adv-x="608" 
d="M300 129h6c62 0 103 39 122 104h145c-26 -133 -120 -243 -275 -243h-7c-125 0 -204 81 -215 187c-3 26 0 65 5 93l41 236c25 142 113 254 276 254h8c123 0 206 -75 217 -185c2 -15 2 -34 1 -54h-142c1 12 1 24 0 32c-4 38 -26 68 -84 68h-8c-73 0 -114 -57 -127 -129
l-7 -43h210l-24 -133h-210l-10 -56c-3 -18 -6 -44 -4 -60c4 -41 28 -71 82 -71z" />
    <glyph glyph-name="afii10054" unicode="&#x405;" horiz-adv-x="591" 
d="M596 570c0 -15 -2 -31 -5 -53h-144c8 58 -11 112 -79 112c-70 0 -95 -41 -98 -77c-4 -49 21 -76 65 -96l42 -19c92 -40 181 -109 166 -238c-16 -135 -128 -209 -256 -209c-157 0 -244 109 -235 247h144c-5 -61 29 -116 95 -116c59 0 104 35 109 93c5 54 -44 87 -81 104
l-42 19c-103 45 -167 111 -150 229c18 129 126 194 248 194c127 0 221 -65 221 -190z" />
    <glyph glyph-name="afii10055" unicode="&#x406;" horiz-adv-x="291" 
d="M44 0l132 750h143l-132 -750h-143z" />
    <glyph glyph-name="afii10056" unicode="&#x407;" horiz-adv-x="291" 
d="M44 0l132 750h143l-132 -750h-143zM214 824h-123l23 131h123zM428 824h-122l23 131h122z" />
    <glyph glyph-name="afii10057" unicode="&#x408;" horiz-adv-x="555" 
d="M355 245l90 505h142l-91 -515c-7 -37 -14 -71 -35 -114c-38 -79 -104 -130 -209 -130c-107 0 -180 62 -198 151c-6 32 -6 70 0 107l7 42h142l-9 -52c-3 -18 -5 -38 -3 -53c4 -33 24 -59 66 -59c41 0 68 27 83 62c5 11 11 32 15 56z" />
    <glyph glyph-name="afii10058" unicode="&#x409;" horiz-adv-x="927" 
d="M618 0h-244l107 612h-123l-62 -272c-35 -152 -84 -335 -321 -342l25 140c97 6 129 104 153 208l93 404h403l-49 -275h51c42 0 86 -6 112 -16c85 -33 138 -120 128 -225c-9 -103 -73 -183 -163 -218c-26 -10 -65 -16 -110 -16zM541 138h82c34 0 55 5 71 13
c31 16 51 48 54 87c4 39 -11 70 -36 85c-13 9 -36 14 -66 14h-70z" />
    <glyph glyph-name="afii10059" unicode="&#x40a;" horiz-adv-x="912" 
d="M603 0h-244l59 338h-172l-59 -338h-143l132 750h143l-49 -275h172l49 275h143l-49 -275h51c42 0 86 -6 112 -16c85 -33 138 -120 128 -225c-9 -103 -73 -183 -163 -218c-26 -10 -65 -16 -110 -16zM526 138h82c34 0 55 5 71 13c31 16 51 48 54 87c4 39 -11 70 -36 85
c-13 9 -36 14 -66 14h-70z" />
    <glyph glyph-name="afii10060" unicode="&#x40b;" horiz-adv-x="747" 
d="M364 331l-58 -331h-143l107 612h-173l25 138h506l-25 -138h-190l-25 -144c33 4 65 7 107 7c132 0 210 -70 207 -198c0 -18 -3 -46 -8 -75l-35 -202h-143l35 200c4 26 7 42 7 61c0 47 -22 76 -100 76c-37 0 -62 -2 -94 -6z" />
    <glyph glyph-name="afii10061" unicode="&#x40c;" horiz-adv-x="640" 
d="M43 0l132 750h143l-51 -290h51c63 0 94 29 115 89l19 51c42 110 90 157 183 157c18 0 48 -2 79 -7l-23 -129c-16 3 -26 4 -40 4c-31 0 -53 -22 -68 -68l-8 -26c-25 -76 -58 -131 -117 -165l149 -366h-157l-124 322h-84l-56 -322h-143zM622 994l1 -12l-172 -175h-95
l114 187h152z" />
    <glyph glyph-name="uni040D" unicode="&#x40d;" horiz-adv-x="655" 
d="M498 473h-1l-303 -473h-150l132 750h137l-73 -415c-5 -25 -11 -58 -11 -58h1l303 473h150l-132 -750h-137l72 415c5 25 12 58 12 58zM239 982l1 12h152l115 -187h-96z" />
    <glyph glyph-name="afii10062" unicode="&#x40e;" horiz-adv-x="587" 
d="M121 129c46 0 80 23 110 70l-115 551h146l70 -381h2l191 381h156l-316 -587c-68 -125 -142 -173 -243 -173c-42 0 -71 4 -96 13l24 136c20 -5 41 -10 71 -10zM398 803c-106 0 -165 71 -160 182h93c3 -58 20 -95 75 -95s79 37 90 95h93c-15 -111 -86 -182 -191 -182z" />
    <glyph glyph-name="afii10145" unicode="&#x40f;" horiz-adv-x="647" 
d="M675 750l-132 -750h-181l-42 -234h-137l42 234h-181l132 750h143l-108 -612h213l108 612h143z" />
    <glyph glyph-name="afii10017" unicode="&#x410;" horiz-adv-x="600" 
d="M391 329l-18 237h-4l-98 -237h120zM402 193h-190l-83 -193h-149l338 750h168l74 -750h-143z" />
    <glyph glyph-name="afii10018" unicode="&#x411;" horiz-adv-x="626" 
d="M270 475h81c42 0 86 -6 112 -16c85 -33 138 -120 128 -225c-9 -103 -73 -183 -163 -218c-26 -10 -65 -16 -110 -16h-274l132 750h447l-25 -138h-304zM211 138h112c34 0 55 5 71 13c31 16 51 48 54 87c4 39 -11 70 -36 85c-13 9 -36 14 -66 14h-100z" />
    <glyph glyph-name="afii10019" unicode="&#x412;" horiz-adv-x="610" 
d="M610 543c-6 -69 -44 -125 -109 -160c59 -39 80 -100 74 -161c-9 -99 -69 -175 -160 -207c-27 -9 -60 -15 -111 -15h-260l132 750h197c46 0 86 -4 111 -12c86 -28 135 -95 126 -195zM212 137h106c27 0 47 4 61 11c30 15 50 45 53 82c3 36 -12 66 -43 80c-11 5 -22 8 -48 8
h-99zM265 444h78c30 0 52 6 67 14c25 14 51 42 55 83c3 32 -14 55 -38 64c-14 5 -31 7 -54 7h-79z" />
    <glyph glyph-name="afii10020" unicode="&#x413;" horiz-adv-x="540" 
d="M44 0l132 750h438l-25 -138h-295l-107 -612h-143z" />
    <glyph glyph-name="afii10021" unicode="&#x414;" horiz-adv-x="774" 
d="M754 138l-66 -372h-137l42 234h-472l-42 -234h-136l65 372h57c77 0 114 112 138 216l90 396h452l-108 -612h117zM405 612l-60 -264c-19 -79 -45 -155 -105 -210h254l83 474h-172z" />
    <glyph glyph-name="afii10022" unicode="&#x415;" horiz-adv-x="555" 
d="M44 0l132 750h443l-24 -133h-300l-29 -166h248l-24 -133h-248l-32 -185h300l-23 -133h-443z" />
    <glyph glyph-name="afii10024" unicode="&#x416;" horiz-adv-x="972" 
d="M517 750h143l-51 -290h43c62 0 93 29 115 89l18 51c42 110 86 157 183 157c23 0 47 -2 78 -7l-23 -130c-17 3 -26 4 -39 4c-32 0 -53 -20 -68 -66l-9 -27c-25 -76 -59 -133 -116 -165l148 -366h-158l-125 322h-72l-56 -322h-143l56 322h-57l-236 -322h-175l277 366
c-36 32 -60 89 -59 165l1 27c2 46 -12 66 -43 66c-14 0 -25 -1 -42 -4l23 130c33 5 47 7 70 7c85 0 125 -47 127 -157l1 -51c1 -60 22 -89 85 -89h53z" />
    <glyph glyph-name="afii10025" unicode="&#x417;" horiz-adv-x="583" 
d="M594 546c-9 -68 -54 -132 -136 -173c70 -45 90 -106 81 -176c-16 -124 -125 -207 -269 -207c-153 0 -235 98 -221 235h141c-8 -62 21 -101 90 -101c60 0 113 35 121 93c7 54 -22 99 -111 99h-84l22 125h83c88 0 132 47 139 100c7 56 -27 84 -84 84
c-66 0 -111 -39 -123 -101h-141c21 143 131 236 284 236c136 0 225 -89 208 -214z" />
    <glyph glyph-name="afii10026" unicode="&#x418;" horiz-adv-x="655" 
d="M498 473h-1l-303 -473h-150l132 750h137l-73 -415c-5 -25 -11 -58 -11 -58h1l303 473h150l-132 -750h-137l72 415c5 25 12 58 12 58z" />
    <glyph glyph-name="afii10027" unicode="&#x419;" horiz-adv-x="655" 
d="M498 473h-1l-303 -473h-150l132 750h137l-73 -415c-5 -25 -11 -58 -11 -58h1l303 473h150l-132 -750h-137l72 415c5 25 12 58 12 58zM430 803c-106 0 -165 71 -160 182h93c3 -58 20 -95 75 -95s79 37 90 95h93c-15 -111 -86 -182 -191 -182z" />
    <glyph glyph-name="afii10028" unicode="&#x41a;" horiz-adv-x="640" 
d="M43 0l132 750h143l-51 -290h51c63 0 94 29 115 89l19 51c42 110 90 157 183 157c18 0 48 -2 79 -7l-23 -129c-16 3 -26 4 -40 4c-31 0 -53 -22 -68 -68l-8 -26c-25 -76 -58 -131 -117 -165l149 -366h-157l-124 322h-84l-56 -322h-143z" />
    <glyph glyph-name="afii10029" unicode="&#x41b;" horiz-adv-x="662" 
d="M248 750h442l-132 -750h-143l107 612h-162l-62 -272c-36 -152 -84 -335 -321 -342l25 140c97 6 131 104 153 208z" />
    <glyph glyph-name="afii10030" unicode="&#x41c;" horiz-adv-x="771" 
d="M618 477l-198 -340h-82l-77 340h-1s-6 -33 -10 -58l-73 -419h-133l132 750h151l85 -400l227 400h160l-132 -750h-133l73 419c4 25 11 58 11 58z" />
    <glyph glyph-name="afii10031" unicode="&#x41d;" horiz-adv-x="655" 
d="M44 0l132 750h143l-51 -290h221l51 290h143l-132 -750h-143l56 322h-221l-56 -322h-143z" />
    <glyph glyph-name="afii10032" unicode="&#x41e;" horiz-adv-x="621" 
d="M80 270l41 236c25 142 113 254 273 254h8c123 0 203 -81 214 -188c3 -25 1 -64 -4 -92l-41 -236c-25 -142 -113 -254 -273 -254h-8c-123 0 -203 81 -214 188c-3 25 -1 64 4 92zM430 258l40 232c3 18 6 44 4 60c-4 41 -35 71 -84 71h-4c-70 0 -111 -57 -124 -129l-40 -232
c-3 -18 -6 -44 -4 -60c4 -41 35 -71 84 -71h4c70 0 111 57 124 129z" />
    <glyph glyph-name="afii10033" unicode="&#x41f;" horiz-adv-x="647" 
d="M44 0l132 750h499l-132 -750h-143l107 612h-213l-107 -612h-143z" />
    <glyph glyph-name="afii10034" unicode="&#x420;" horiz-adv-x="616" 
d="M259 412h102c34 0 55 5 71 13c31 16 51 49 54 88c4 39 -11 70 -36 85c-13 9 -36 14 -66 14h-90zM235 275l-48 -275h-143l132 750h213c42 0 86 -6 112 -16c85 -33 138 -120 128 -225c-9 -103 -73 -183 -163 -218c-26 -10 -65 -16 -110 -16h-121z" />
    <glyph glyph-name="afii10035" unicode="&#x421;" horiz-adv-x="603" 
d="M432 270h141c-10 -143 -107 -280 -276 -280h-7c-125 0 -204 81 -215 187c-3 26 0 65 5 93l41 236c25 142 113 254 273 254h8c123 0 205 -76 214 -188c2 -24 1 -58 -3 -86h-142c3 18 6 48 4 64c-4 41 -26 71 -81 71h-8c-70 0 -111 -57 -124 -129l-41 -232
c-3 -18 -6 -44 -4 -60c4 -41 28 -71 82 -71h6c69 0 113 54 125 129z" />
    <glyph glyph-name="afii10036" unicode="&#x422;" horiz-adv-x="554" 
d="M122 750h514l-25 -138h-185l-107 -612h-143l107 612h-186z" />
    <glyph glyph-name="afii10037" unicode="&#x423;" horiz-adv-x="587" 
d="M121 129c46 0 80 23 110 70l-115 551h146l70 -381h2l191 381h156l-316 -587c-68 -125 -142 -173 -243 -173c-42 0 -71 4 -96 13l24 136c20 -5 41 -10 71 -10z" />
    <glyph glyph-name="afii10038" unicode="&#x424;" horiz-adv-x="782" 
d="M775 392l-8 -44c-10 -53 -20 -85 -32 -112c-43 -96 -130 -146 -256 -146h-30l-23 -130h-144l23 130h-7c-122 0 -202 57 -221 152c-5 27 -8 63 2 116l8 44c10 53 21 86 33 113c43 96 129 145 255 145h30l23 130h144l-23 -130h7c122 0 203 -57 222 -152
c5 -27 7 -63 -3 -116zM473 228h23c43 0 81 13 104 51c11 17 18 41 24 72l9 48c6 31 7 55 2 72c-10 38 -44 51 -87 51h-23zM329 228l52 294h-23c-43 0 -82 -13 -105 -51c-11 -17 -18 -41 -24 -72l-9 -48c-6 -31 -6 -55 -1 -72c10 -38 44 -51 87 -51h23z" />
    <glyph glyph-name="afii10039" unicode="&#x425;" horiz-adv-x="616" 
d="M266 399l-133 351h156l77 -224l150 224h172l-265 -364l151 -386h-154l-94 260l-178 -260h-172z" />
    <glyph glyph-name="afii10040" unicode="&#x426;" horiz-adv-x="705" 
d="M524 0h-480l132 750h143l-108 -612h213l108 612h143l-108 -612h118l-66 -372h-137z" />
    <glyph glyph-name="afii10041" unicode="&#x427;" horiz-adv-x="628" 
d="M381 0l47 270c-35 -4 -71 -7 -104 -7c-132 0 -211 64 -211 192c0 18 3 49 9 81l38 214h143l-38 -214c-4 -23 -7 -44 -7 -59c0 -47 22 -76 100 -76c37 0 62 2 94 6l61 343h143l-132 -750h-143z" />
    <glyph glyph-name="afii10042" unicode="&#x428;" horiz-adv-x="871" 
d="M899 750l-132 -750h-723l132 750h143l-108 -612h147l108 612h143l-108 -612h147l108 612h143z" />
    <glyph glyph-name="afii10043" unicode="&#x429;" horiz-adv-x="928" 
d="M747 0h-703l132 750h143l-108 -612h147l108 612h143l-108 -612h147l108 612h143l-108 -612h117l-66 -372h-137z" />
    <glyph glyph-name="afii10044" unicode="&#x42a;" horiz-adv-x="763" 
d="M407 475h81c42 0 86 -6 112 -16c85 -33 138 -120 128 -225c-9 -103 -73 -183 -163 -218c-26 -10 -65 -16 -110 -16h-274l107 612h-191l25 138h334zM348 138h112c34 0 55 5 71 13c31 16 51 48 54 87c4 39 -11 70 -36 85c-13 9 -36 14 -66 14h-100z" />
    <glyph glyph-name="afii10045" unicode="&#x42b;" horiz-adv-x="843" 
d="M596 0l132 750h143l-132 -750h-143zM270 475h51c42 0 86 -6 112 -16c85 -33 138 -120 128 -225c-9 -103 -73 -183 -163 -218c-26 -10 -65 -16 -110 -16h-244l132 750h143zM211 138h82c34 0 55 5 71 13c31 16 51 48 54 87c4 39 -11 70 -36 85c-13 9 -36 14 -66 14h-70z
" />
    <glyph glyph-name="afii10046" unicode="&#x42c;" horiz-adv-x="626" 
d="M270 475h81c42 0 86 -6 112 -16c85 -33 138 -120 128 -225c-9 -103 -73 -183 -163 -218c-26 -10 -65 -16 -110 -16h-274l132 750h143zM211 138h112c34 0 55 5 71 13c31 16 51 48 54 87c4 39 -11 70 -36 85c-13 9 -36 14 -66 14h-100z" />
    <glyph glyph-name="afii10047" unicode="&#x42d;" horiz-adv-x="608" 
d="M380 621h-6c-62 0 -103 -40 -121 -98h-145c25 126 119 237 274 237h7c125 0 204 -81 215 -187c3 -26 0 -65 -5 -93l-41 -236c-25 -142 -113 -254 -276 -254h-8c-123 0 -205 75 -217 188c-2 15 -2 34 -1 54h142c-1 -12 -1 -24 0 -32c4 -41 26 -71 84 -71h8
c73 0 114 57 127 129l10 58h-210l24 133h209l8 41c3 18 6 44 4 60c-4 41 -28 71 -82 71z" />
    <glyph glyph-name="afii10048" unicode="&#x42e;" horiz-adv-x="869" 
d="M651 760c123 0 203 -79 214 -186c3 -25 0 -66 -5 -94l-42 -236c-25 -142 -111 -254 -271 -254c-125 0 -204 79 -215 185c-3 26 1 67 6 95l8 46h-104l-55 -316h-143l132 750h143l-52 -294h103l9 50c25 142 112 254 272 254zM640 621c-70 0 -107 -53 -120 -129l-41 -232
c-3 -18 -6 -44 -4 -60c4 -41 29 -71 83 -71c69 0 107 53 120 129l41 232c3 18 6 44 4 60c-4 41 -28 71 -83 71z" />
    <glyph glyph-name="afii10049" unicode="&#x42f;" horiz-adv-x="610" 
d="M472 613h-77c-18 0 -39 -2 -51 -5c-39 -9 -66 -32 -71 -75c-7 -56 23 -95 91 -95h77zM418 307h-66c-74 0 -113 -27 -131 -98l-31 -119c-11 -41 -24 -74 -45 -90h-152l1 6c30 21 48 58 57 96l35 139c20 77 61 119 128 142v1c-65 36 -90 96 -80 172c14 109 85 166 185 186
c25 5 59 8 93 8h226l-132 -750h-142z" />
    <glyph glyph-name="afii10065" unicode="&#x430;" horiz-adv-x="549" 
d="M236 401h-132c27 113 115 169 230 169c98 0 159 -45 179 -120c7 -27 5 -67 -1 -103l-61 -347h-84v86h-1c-35 -58 -80 -96 -156 -96c-100 0 -173 62 -162 186c7 81 54 137 126 162c27 9 60 14 103 14h98l2 14c10 58 -9 93 -62 93c-44 0 -69 -24 -79 -58zM185 181
c-4 -44 16 -72 62 -72c52 0 94 46 106 116l4 23h-81c-15 0 -34 -2 -45 -6c-27 -10 -43 -32 -46 -61z" />
    <glyph glyph-name="afii10066" unicode="&#x431;" horiz-adv-x="548" 
d="M517 299l-13 -75c-7 -41 -25 -90 -48 -126c-41 -63 -109 -108 -201 -108c-93 0 -159 54 -183 126c-13 37 -11 84 -4 125l44 249c26 146 91 238 225 270c17 4 47 9 73 12l156 17l-24 -132l-136 -16c-25 -3 -46 -7 -57 -11c-54 -18 -83 -51 -99 -138l-2 -9
c35 32 81 49 125 49c97 0 148 -66 151 -153c1 -22 -1 -50 -7 -80zM368 238l11 60c12 66 -7 103 -55 103c-60 0 -99 -56 -110 -117l-9 -51c-3 -19 -5 -43 -3 -60c3 -28 22 -52 62 -52c37 0 62 19 80 48c11 18 19 43 24 69z" />
    <glyph glyph-name="afii10067" unicode="&#x432;" horiz-adv-x="545" 
d="M46 28l91 519c61 15 118 23 195 23c107 0 211 -33 198 -156c-6 -55 -39 -98 -102 -125c58 -26 81 -78 75 -133c-14 -124 -115 -166 -241 -166c-81 0 -153 17 -216 38zM287 230h-68l-19 -111c23 -5 44 -9 78 -10c37 -1 86 13 89 61c3 49 -30 60 -80 60zM318 450
c-22 0 -42 -4 -62 -9l-18 -96h61c40 0 84 14 87 57c3 41 -32 48 -68 48z" />
    <glyph glyph-name="afii10068" unicode="&#x433;" horiz-adv-x="495" 
d="M322 170h134c-38 -127 -122 -180 -238 -180c-113 0 -195 70 -179 175c18 116 116 164 221 185c62 12 91 32 93 63c2 30 -18 47 -51 47c-32 0 -63 -15 -78 -53h-133c31 106 107 163 220 163c103 0 186 -64 174 -165c-6 -50 -38 -141 -203 -172c-72 -13 -102 -33 -107 -73
c-5 -37 18 -60 57 -60s72 24 90 70z" />
    <glyph glyph-name="afii10069" unicode="&#x434;" horiz-adv-x="542" 
d="M259 121c37 0 62 19 80 48c11 18 19 43 24 69l5 31c3 19 5 41 3 58c-3 28 -21 52 -61 52c-37 0 -62 -19 -80 -48c-11 -18 -19 -43 -24 -69l-5 -31c-3 -19 -5 -41 -3 -58c3 -28 21 -52 61 -52zM291 511c36 0 80 -17 108 -43c20 124 -14 171 -102 171
c-36 0 -74 -9 -124 -34l-38 111c57 27 115 44 184 44c142 0 217 -83 217 -228c0 -53 -6 -125 -17 -187l-21 -121c-7 -41 -24 -90 -46 -126c-40 -65 -109 -108 -201 -108c-95 0 -162 55 -183 126c-11 37 -11 84 -4 125l7 40c7 41 24 92 47 129c40 63 91 101 173 101z" />
    <glyph glyph-name="afii10070" unicode="&#x435;" horiz-adv-x="542" 
d="M258 109c43 0 72 28 88 63h140c-9 -27 -20 -53 -34 -74c-41 -63 -108 -108 -200 -108c-93 0 -159 54 -183 126c-13 37 -11 84 -4 125l17 95c7 41 24 90 47 126c41 63 108 108 200 108c93 0 159 -51 183 -123c13 -37 11 -87 4 -128l-14 -76h-298l-4 -24
c-3 -19 -5 -41 -3 -58c3 -28 21 -52 61 -52zM244 406c-10 -16 -17 -37 -22 -59h160c3 18 5 39 3 55c-3 28 -21 52 -61 52c-37 0 -62 -19 -80 -48z" />
    <glyph glyph-name="afii10072" unicode="&#x436;" horiz-adv-x="834" 
d="M84 446l20 113c28 4 41 6 61 6c76 0 113 -35 118 -114l2 -36c2 -43 11 -64 64 -64h31l36 209h138l-36 -209h19c52 0 68 21 86 64l14 36c32 79 71 114 158 114c24 0 45 -2 71 -6l-20 -113c-14 2 -21 3 -34 3c-27 0 -43 -17 -56 -54l-4 -12c-17 -51 -41 -90 -87 -112
l134 -271h-155l-108 232h-40l-40 -232h-138l40 232h-29l-187 -232h-167l228 271c-35 20 -48 61 -47 112v12c-1 37 -11 54 -38 54c-13 0 -20 -1 -34 -3z" />
    <glyph glyph-name="afii10073" unicode="&#x437;" horiz-adv-x="504" 
d="M500 409c-7 -54 -41 -99 -112 -131c62 -33 79 -77 72 -132c-12 -95 -98 -156 -230 -156c-130 0 -206 75 -193 182h133c-5 -40 19 -66 72 -66c44 0 78 24 85 62s-18 63 -84 63h-56l18 103h54c67 0 97 29 103 66c7 37 -19 54 -61 54c-50 0 -83 -25 -90 -66h-136
c16 112 108 182 238 182c124 0 199 -65 187 -161z" />
    <glyph glyph-name="afii10074" unicode="&#x438;" horiz-adv-x="585" 
d="M224 -10c-79 0 -141 53 -151 143c-3 24 -1 61 4 91l59 336h138l-55 -320c-4 -23 -6 -41 -5 -55c2 -35 16 -63 56 -63c50 0 108 57 126 159l48 279h138l-98 -560h-91v76h-1c-44 -57 -103 -86 -168 -86z" />
    <glyph glyph-name="afii10075" unicode="&#x439;" horiz-adv-x="585" 
d="M224 -10c-79 0 -141 53 -151 143c-3 24 -1 61 4 91l59 336h138l-55 -320c-4 -23 -6 -41 -5 -55c2 -35 16 -63 56 -63c50 0 108 57 126 159l48 279h138l-98 -560h-91v76h-1c-44 -57 -103 -86 -168 -86zM374 623c-106 0 -165 71 -160 182h93c3 -58 20 -95 75 -95
s79 37 90 95h93c-15 -111 -86 -182 -191 -182z" />
    <glyph glyph-name="afii10076" unicode="&#x43a;" horiz-adv-x="569" 
d="M602 559l-20 -113c-14 2 -19 3 -32 3c-28 0 -44 -18 -57 -55l-4 -11c-18 -51 -41 -90 -88 -112l134 -271h-152l-108 232h-57l-40 -232h-138l98 560h138l-37 -209h33c53 0 70 21 87 64l14 36c31 80 72 114 158 114c20 0 46 -2 71 -6z" />
    <glyph glyph-name="afii10077" unicode="&#x43b;" horiz-adv-x="594" 
d="M291 353c-48 -208 -74 -358 -313 -352l23 127c103 0 117 72 146 197l15 63c35 144 137 179 213 179c61 0 139 -12 216 -30l-94 -537h-138l75 433c-16 3 -34 6 -57 6c-28 0 -69 -10 -86 -86z" />
    <glyph glyph-name="afii10078" unicode="&#x43c;" horiz-adv-x="715" 
d="M247 266l-14 -81c-25 -141 -93 -185 -199 -185c-18 0 -42 2 -58 5l21 119c14 -2 27 -3 41 -3c35 0 58 24 68 82l62 357h140l75 -302l181 302h148l-98 -560h-131l46 266c4 25 16 71 16 71h-1l-145 -239h-80l-61 239h-1s-6 -46 -10 -71z" />
    <glyph glyph-name="afii10079" unicode="&#x43d;" horiz-adv-x="582" 
d="M41 0l98 560h138l-37 -209h163l37 209h139l-98 -560h-139l40 232h-163l-40 -232h-138z" />
    <glyph glyph-name="afii10080" unicode="&#x43e;" horiz-adv-x="543" 
d="M260 121c37 0 62 19 80 48c11 18 19 43 24 69l15 91c3 19 5 41 3 58c-3 28 -21 52 -61 52c-37 0 -62 -19 -80 -48c-11 -18 -19 -43 -24 -69l-15 -91c-3 -19 -5 -41 -3 -58c3 -28 21 -52 61 -52zM252 -10c-93 0 -159 54 -183 126c-13 37 -11 84 -4 125l17 95
c7 41 24 90 47 126c41 63 108 108 200 108c93 0 159 -54 183 -126c13 -37 11 -84 4 -125l-17 -95c-7 -41 -24 -90 -47 -126c-41 -63 -108 -108 -200 -108z" />
    <glyph glyph-name="afii10081" unicode="&#x43f;" horiz-adv-x="585" 
d="M399 570c79 0 141 -53 151 -143c3 -24 1 -61 -4 -91l-59 -336h-138l55 320c4 23 6 41 5 55c-2 35 -16 63 -56 63c-50 0 -108 -57 -126 -159l-48 -279h-138l98 560h91v-76h1c44 57 103 86 168 86z" />
    <glyph glyph-name="afii10082" unicode="&#x440;" 
d="M228 278l-6 -37c-9 -54 4 -121 69 -121c55 0 91 54 101 115l14 84c4 23 6 41 5 55c-2 35 -17 63 -57 63c-50 0 -109 -57 -126 -159zM303 -10c-46 0 -84 18 -116 56h-1s-5 -33 -9 -58l-42 -232h-138l142 804h91v-76h1c44 57 102 86 166 86c82 0 144 -53 154 -143
c3 -24 1 -61 -4 -91l-19 -104c-6 -31 -14 -68 -27 -98c-34 -82 -102 -144 -198 -144z" />
    <glyph glyph-name="afii10083" unicode="&#x441;" horiz-adv-x="530" 
d="M353 194h141c-9 -34 -23 -68 -41 -96c-41 -63 -109 -108 -201 -108c-93 0 -159 54 -183 126c-13 37 -11 84 -4 125l17 95c7 41 24 90 47 126c41 63 108 108 200 108c93 0 160 -54 183 -126c8 -26 11 -56 9 -86h-139c1 10 0 20 -1 29c-3 28 -21 52 -61 52
c-37 0 -62 -19 -80 -48c-11 -18 -18 -43 -23 -69l-15 -91c-3 -19 -4 -41 -2 -58c3 -28 21 -52 61 -52c45 0 81 30 92 73z" />
    <glyph glyph-name="afii10084" unicode="&#x442;" horiz-adv-x="871" 
d="M525 279l-49 -279h-138l55 320c4 23 6 41 5 55c-2 35 -17 63 -54 63c-48 0 -99 -57 -117 -159l-48 -279h-138l98 560h91v-76h1c44 57 97 86 157 86c63 0 112 -34 134 -94l7 8c44 57 97 86 157 86c79 0 141 -53 151 -143c3 -24 1 -61 -4 -91l-59 -336h-138l55 320
c4 23 6 41 5 55c-2 35 -17 63 -54 63c-48 0 -99 -57 -117 -159z" />
    <glyph glyph-name="afii10085" unicode="&#x443;" horiz-adv-x="537" 
d="M173 21l-97 539h141l52 -369h2l176 369h151l-306 -585c-69 -132 -153 -191 -256 -191c-36 0 -68 5 -94 13l23 133c25 -6 49 -12 81 -12c58 0 91 33 117 83z" />
    <glyph glyph-name="afii10086" unicode="&#x444;" horiz-adv-x="700" 
d="M409 -10h-29l-41 -234h-126l41 234h-2c-93 0 -159 54 -183 126c-13 37 -11 84 -4 125l17 95c7 41 24 90 47 126c41 63 108 108 200 108h28l38 215h126l-38 -215h3c93 0 159 -54 183 -126c13 -37 11 -84 4 -125l-17 -95c-7 -41 -24 -90 -47 -126
c-41 -63 -108 -108 -200 -108zM478 439h-18l-57 -318h14c37 0 62 19 80 48c11 18 19 43 24 69l16 91c3 19 4 41 2 58c-3 28 -21 52 -61 52zM260 121h17l57 318h-13c-37 0 -62 -19 -80 -48c-11 -18 -19 -43 -24 -69l-16 -91c-3 -19 -4 -41 -2 -58c3 -28 21 -52 61 -52z" />
    <glyph glyph-name="afii10087" unicode="&#x445;" horiz-adv-x="520" 
d="M93 560h144l60 -160l108 160h158l-210 -271l127 -289h-146l-69 185l-128 -185h-157l228 295z" />
    <glyph glyph-name="afii10088" unicode="&#x446;" horiz-adv-x="626" 
d="M528 119h78l-56 -319h-130l36 200c-42 -1 -68 25 -63 76h-1c-44 -57 -103 -86 -168 -86c-79 0 -141 53 -151 143c-3 24 -1 61 4 91l59 336h138l-55 -320c-4 -23 -6 -41 -5 -55c2 -35 16 -63 56 -63c50 0 108 57 126 159l48 279h138l-73 -419c-3 -15 6 -22 19 -22z" />
    <glyph glyph-name="afii10089" unicode="&#x447;" horiz-adv-x="555" 
d="M316 0l34 196c-25 -2 -51 -4 -77 -4c-115 0 -192 54 -193 163c0 16 3 41 7 63l25 142h138l-26 -147c-3 -19 -5 -38 -4 -49c3 -40 27 -53 86 -53c25 0 48 2 65 5l43 244h138l-98 -560h-138z" />
    <glyph glyph-name="afii10090" unicode="&#x448;" horiz-adv-x="871" 
d="M384 281l49 279h138l-55 -320c-4 -23 -6 -41 -5 -55c2 -35 17 -63 54 -63c48 0 99 57 117 159l48 279h138l-98 -560h-91v76h-1c-44 -57 -97 -86 -157 -86c-63 0 -112 34 -134 94l-7 -8c-44 -57 -97 -86 -157 -86c-79 0 -141 53 -151 143c-3 24 -1 61 4 91l59 336h138
l-55 -320c-4 -23 -6 -41 -5 -55c2 -35 17 -63 54 -63c48 0 99 57 117 159z" />
    <glyph glyph-name="afii10091" unicode="&#x449;" horiz-adv-x="912" 
d="M679 76h-1c-44 -57 -97 -86 -157 -86c-63 0 -112 34 -134 94l-7 -8c-44 -57 -97 -86 -157 -86c-79 0 -141 53 -151 143c-3 24 -1 61 4 91l59 336h138l-55 -320c-4 -23 -6 -41 -5 -55c2 -35 17 -63 54 -63c48 0 99 57 117 159l49 279h138l-55 -320c-4 -23 -6 -41 -5 -55
c2 -35 17 -63 54 -63c48 0 99 57 117 159l48 279h138l-73 -419c-3 -15 6 -22 19 -22h78l-56 -319h-130l36 200c-42 -1 -68 25 -63 76z" />
    <glyph glyph-name="afii10092" unicode="&#x44a;" horiz-adv-x="650" 
d="M368 0h-224l77 441h-156l21 119h294l-34 -197h55c28 0 48 -2 66 -5c88 -16 149 -74 139 -176c-10 -103 -79 -161 -171 -177c-18 -3 -39 -5 -67 -5zM325 244l-23 -125h71c18 0 37 1 47 4c26 7 46 26 49 59c3 32 -13 51 -39 58c-10 3 -27 4 -45 4h-60z" />
    <glyph glyph-name="afii10093" unicode="&#x44b;" horiz-adv-x="763" 
d="M524 0l98 560h138l-98 -560h-138zM222 244l-23 -125h59c18 0 37 1 47 4c26 7 46 26 49 59c3 32 -13 51 -39 58c-10 3 -27 4 -45 4h-48zM253 0h-212l98 560h138l-34 -197h43c28 0 48 -2 66 -5c88 -16 149 -74 139 -176c-10 -103 -79 -161 -171 -177c-18 -3 -39 -5 -67 -5z
" />
    <glyph glyph-name="afii10094" unicode="&#x44c;" horiz-adv-x="556" 
d="M222 244l-23 -125h79c18 0 37 1 47 4c26 7 46 26 49 59c3 32 -13 51 -39 58c-10 3 -27 4 -45 4h-68zM273 0h-232l98 560h138l-34 -197h63c28 0 48 -2 66 -5c88 -16 149 -74 139 -176c-10 -103 -79 -161 -171 -177c-18 -3 -39 -5 -67 -5z" />
    <glyph glyph-name="afii10095" unicode="&#x44d;" horiz-adv-x="532" 
d="M204 227l18 104h146c3 19 4 39 2 56c-3 28 -21 52 -61 52c-41 0 -74 -25 -88 -61h-142c9 30 22 59 38 84c41 63 109 108 201 108c93 0 159 -54 183 -126c13 -37 11 -84 4 -125l-17 -95c-7 -41 -24 -90 -47 -126c-41 -63 -108 -108 -200 -108c-93 0 -160 54 -183 126
c-6 18 -9 37 -10 58h141c3 -29 21 -53 61 -53c37 0 62 19 80 48c9 15 16 36 21 58h-147z" />
    <glyph glyph-name="afii10096" unicode="&#x44e;" horiz-adv-x="756" 
d="M277 560l-39 -220h73c5 33 16 67 27 92c36 83 103 138 212 138c107 0 169 -56 182 -143c4 -29 3 -66 -4 -108l-16 -95c-7 -41 -16 -71 -28 -97c-36 -82 -104 -137 -212 -137c-109 0 -169 58 -182 149c-3 23 -2 51 2 82h-75l-38 -221h-138l98 560h138zM573 221l21 118
c9 50 3 100 -58 100c-56 0 -75 -41 -86 -100l-21 -118c-9 -50 -4 -100 57 -100c56 0 76 41 87 100z" />
    <glyph glyph-name="afii10097" unicode="&#x44f;" horiz-adv-x="542" 
d="M41 91l22 80c15 57 46 94 108 109c-56 27 -79 71 -74 126c8 94 76 136 155 149c20 3 41 5 70 5h217l-98 -560h-136l38 220h-53c-56 0 -82 -16 -94 -60l-20 -72c-11 -41 -23 -75 -46 -88h-140v2c21 15 39 45 51 89zM383 444h-65c-15 0 -29 -1 -38 -3
c-25 -5 -42 -20 -45 -49c-2 -26 6 -45 31 -52c10 -2 25 -4 41 -4h57z" />
    <glyph glyph-name="uni0450" unicode="&#x450;" horiz-adv-x="542" 
d="M258 109c43 0 72 28 88 63h140c-9 -27 -20 -53 -34 -74c-41 -63 -108 -108 -200 -108c-93 0 -159 54 -183 126c-13 37 -11 84 -4 125l17 95c7 41 24 90 47 126c41 63 108 108 200 108c93 0 159 -51 183 -123c13 -37 11 -87 4 -128l-14 -76h-298l-4 -24
c-3 -19 -5 -41 -3 -58c3 -28 21 -52 61 -52zM244 406c-10 -16 -17 -37 -22 -59h160c3 18 5 39 3 55c-3 28 -21 52 -61 52c-37 0 -62 -19 -80 -48zM191 802l1 12h152l115 -187h-96z" />
    <glyph glyph-name="afii10071" unicode="&#x451;" horiz-adv-x="542" 
d="M258 109c43 0 72 28 88 63h140c-9 -27 -20 -53 -34 -74c-41 -63 -108 -108 -200 -108c-93 0 -159 54 -183 126c-13 37 -11 84 -4 125l17 95c7 41 24 90 47 126c41 63 108 108 200 108c93 0 159 -51 183 -123c13 -37 11 -87 4 -128l-14 -76h-298l-4 -24
c-3 -19 -5 -41 -3 -58c3 -28 21 -52 61 -52zM244 406c-10 -16 -17 -37 -22 -59h160c3 18 5 39 3 55c-3 28 -21 52 -61 52c-37 0 -62 -19 -80 -48zM315 644h-123l23 131h123zM529 644h-122l23 131h122z" />
    <glyph glyph-name="afii10099" unicode="&#x452;" horiz-adv-x="592" 
d="M552 336l-65 -369c-27 -152 -112 -203 -237 -203c-27 0 -48 2 -57 3l24 132c12 -1 23 -2 35 -2c57 0 88 23 99 84l59 339c4 23 6 41 5 55c-2 35 -16 63 -56 63c-50 0 -108 -57 -126 -159l-48 -279h-138l112 640h-87l13 73h87l13 72h138l-13 -72h154l-13 -73h-154l-13 -73
c-4 -25 -11 -58 -11 -58h1c40 41 80 61 131 61c79 0 140 -53 151 -143c3 -24 1 -61 -4 -91z" />
    <glyph glyph-name="afii10100" unicode="&#x453;" horiz-adv-x="495" 
d="M322 170h134c-38 -127 -122 -180 -238 -180c-113 0 -195 70 -179 175c18 116 116 164 221 185c62 12 91 32 93 63c2 30 -18 47 -51 47c-32 0 -63 -15 -78 -53h-133c31 106 107 163 220 163c103 0 186 -64 174 -165c-6 -50 -38 -141 -203 -172c-72 -13 -102 -33 -107 -73
c-5 -37 18 -60 57 -60s72 24 90 70zM499 814l1 -12l-172 -175h-95l114 187h152z" />
    <glyph glyph-name="afii10101" unicode="&#x454;" horiz-adv-x="532" 
d="M261 121c37 0 69 21 84 53h143c-9 -27 -21 -54 -35 -76c-41 -63 -109 -108 -201 -108c-93 0 -159 54 -183 126c-13 37 -11 84 -4 125l17 95c7 41 24 90 47 126c41 63 108 108 200 108c93 0 160 -54 183 -126c6 -20 9 -43 9 -66h-139c-1 32 -18 61 -62 61
c-37 0 -62 -19 -80 -48c-10 -16 -17 -37 -22 -60h146l-18 -104h-145c-2 -18 -3 -38 -1 -54c3 -28 21 -52 61 -52z" />
    <glyph glyph-name="afii10102" unicode="&#x455;" horiz-adv-x="495" 
d="M238 236c-101 37 -142 85 -142 161c0 107 93 173 199 173c100 0 189 -48 193 -168h-131c-6 37 -24 58 -64 58s-63 -24 -63 -49c0 -26 14 -46 63 -63c90 -32 158 -76 158 -177c0 -111 -102 -181 -208 -181c-122 0 -206 67 -207 187h131c6 -50 34 -75 81 -75
c41 0 68 31 68 63c0 33 -17 49 -78 71z" />
    <glyph glyph-name="afii10103" unicode="&#x456;" horiz-adv-x="274" 
d="M38 0l98 560h138l-98 -560h-138zM150 640l25 141h138l-25 -141h-138z" />
    <glyph glyph-name="afii10104" unicode="&#x457;" horiz-adv-x="274" 
d="M38 0l98 560h138l-98 -560h-138zM173 644h-123l23 131h123zM387 644h-122l23 131h122z" />
    <glyph glyph-name="afii10105" unicode="&#x458;" horiz-adv-x="282" 
d="M157 640l25 141h139l-25 -141h-139zM41 -19l102 579h139l-105 -593c-27 -152 -112 -203 -237 -203c-27 0 -48 2 -57 3l24 132c12 -1 23 -2 35 -2c57 0 88 23 99 84z" />
    <glyph glyph-name="afii10106" unicode="&#x459;" horiz-adv-x="812" 
d="M498 244l-23 -125h60c18 0 37 1 47 4c26 7 46 26 49 59c3 32 -13 51 -39 58c-10 3 -27 4 -45 4h-49zM549 540l-30 -177h44c28 0 48 -2 66 -5c88 -16 149 -74 139 -176c-10 -103 -79 -161 -171 -177c-18 -3 -39 -5 -67 -5h-213l75 436c-16 3 -27 6 -47 6
c-28 0 -59 -10 -76 -86c-48 -208 -74 -361 -313 -355l23 127c103 0 117 72 146 197l15 66c33 145 130 179 203 179c58 0 129 -12 206 -30z" />
    <glyph glyph-name="afii10107" unicode="&#x45a;" horiz-adv-x="808" 
d="M313 0l43 244h-134l-43 -244h-138l98 560h138l-34 -197h134l34 197h138l-34 -197h44c28 0 48 -2 66 -5c88 -16 149 -74 139 -176c-10 -103 -79 -161 -171 -177c-18 -3 -39 -5 -67 -5h-213zM494 244l-23 -125h60c18 0 37 1 47 4c26 7 46 26 49 59c3 32 -13 51 -39 58
c-10 3 -27 4 -45 4h-49z" />
    <glyph glyph-name="afii10108" unicode="&#x45b;" horiz-adv-x="598" 
d="M500 0h-138l55 320c4 23 6 41 5 55c-2 35 -16 63 -56 63c-50 0 -108 -57 -126 -159l-48 -279h-138l112 638h-89l13 75h89l13 72h138l-13 -72h162l-13 -75h-163l-12 -71c-4 -25 -11 -58 -11 -58h1c40 41 80 61 131 61c79 0 141 -53 151 -143c3 -24 1 -61 -4 -91z" />
    <glyph glyph-name="afii10109" unicode="&#x45c;" horiz-adv-x="569" 
d="M602 559l-20 -113c-14 2 -19 3 -32 3c-28 0 -44 -18 -57 -55l-4 -11c-18 -51 -41 -90 -88 -112l134 -271h-152l-108 232h-57l-40 -232h-138l98 560h138l-37 -209h33c53 0 70 21 87 64l14 36c31 80 72 114 158 114c20 0 46 -2 71 -6zM553 814l1 -12l-172 -175h-95l114 187
h152z" />
    <glyph glyph-name="uni045D" unicode="&#x45d;" horiz-adv-x="585" 
d="M224 -10c-79 0 -141 53 -151 143c-3 24 -1 61 4 91l59 336h138l-55 -320c-4 -23 -6 -41 -5 -55c2 -35 16 -63 56 -63c50 0 108 57 126 159l48 279h138l-98 -560h-91v76h-1c-44 -57 -103 -86 -168 -86zM177 802l1 12h152l115 -187h-96z" />
    <glyph glyph-name="afii10110" unicode="&#x45e;" horiz-adv-x="537" 
d="M173 21l-97 539h141l52 -369h2l176 369h151l-306 -585c-69 -132 -153 -191 -256 -191c-36 0 -68 5 -94 13l23 133c25 -6 49 -12 81 -12c58 0 91 33 117 83zM346 623c-106 0 -165 71 -160 182h93c3 -58 20 -95 75 -95s79 37 90 95h93c-15 -111 -86 -182 -191 -182z" />
    <glyph glyph-name="afii10193" unicode="&#x45f;" horiz-adv-x="585" 
d="M392 76c-25 -32 -54 -56 -87 -70l-37 -206h-130l36 198c-54 17 -93 65 -101 135c-3 24 -1 61 4 91l59 336h138l-55 -320c-4 -23 -6 -41 -5 -55c2 -35 16 -63 56 -63c50 0 108 57 126 159l48 279h138l-98 -560h-91v76h-1z" />
    <glyph glyph-name="uni0460" unicode="&#x460;" horiz-adv-x="878" 
d="M432 112c-49 -86 -114 -122 -184 -122c-111 0 -200 104 -152 397c19 116 63 257 123 363h154c-57 -104 -112 -247 -132 -364c-33 -184 -9 -253 42 -253c46 0 87 50 104 149l41 229h143l-41 -229c-17 -99 5 -149 51 -149c51 0 99 69 132 253c20 117 18 260 2 364h141
c19 -106 21 -247 2 -363c-48 -293 -173 -397 -284 -397c-70 0 -123 36 -142 122z" />
    <glyph glyph-name="uni0461" unicode="&#x461;" horiz-adv-x="745" 
d="M343 389h137l-32 -181c-11 -65 4 -98 36 -98c35 0 69 53 91 177c15 83 11 191 -6 273h136c19 -82 20 -188 7 -272c-34 -219 -135 -298 -231 -298c-56 0 -102 23 -122 86c-41 -63 -95 -86 -151 -86c-96 0 -169 79 -135 298c13 84 50 190 96 272h147
c-47 -82 -89 -190 -104 -273c-22 -124 -6 -177 29 -177c32 0 59 33 70 98z" />
    <glyph glyph-name="afii10146" unicode="&#x462;" horiz-adv-x="731" 
d="M374 475h81c42 0 86 -6 112 -16c85 -33 138 -120 128 -225c-9 -103 -73 -183 -163 -218c-26 -10 -65 -16 -110 -16h-274l100 572h-164l13 73h164l19 105h143l-19 -105h183l-13 -73h-183zM315 138h112c34 0 55 5 71 13c31 16 51 48 54 87c4 39 -11 70 -36 85
c-13 9 -36 14 -66 14h-100z" />
    <glyph glyph-name="afii10194" unicode="&#x463;" horiz-adv-x="615" 
d="M333 0h-232l75 430h-121l13 73h121l10 57h138l-10 -57h147l-13 -73h-147l-11 -67h63c28 0 48 -2 66 -5c88 -16 149 -74 139 -176c-10 -103 -79 -161 -171 -177c-18 -3 -39 -5 -67 -5zM282 244l-23 -125h79c18 0 37 1 47 4c26 7 46 26 49 59c3 32 -13 51 -39 58
c-10 3 -27 4 -45 4h-68z" />
    <glyph glyph-name="uni0464" unicode="&#x464;" horiz-adv-x="854" 
d="M556 129c62 0 102 39 121 104h145c-26 -133 -119 -243 -274 -243c-125 0 -204 81 -215 187c-3 26 0 65 5 93l8 46h-104l-55 -316h-143l132 750h143l-53 -301h103l10 57c25 142 112 254 275 254c123 0 206 -75 217 -185c2 -15 2 -34 1 -54h-142c1 12 1 24 0 32
c-4 38 -26 68 -84 68c-73 0 -113 -57 -126 -129l-7 -43h210l-24 -133h-210l-10 -56c-3 -18 -6 -44 -4 -60c4 -41 27 -71 81 -71z" />
    <glyph glyph-name="uni0465" unicode="&#x465;" horiz-adv-x="753" 
d="M491 121c37 0 63 21 78 53h143c-9 -26 -21 -54 -35 -76c-41 -63 -109 -108 -198 -108c-92 0 -158 54 -180 126c-10 33 -12 73 -7 111h-73l-40 -227h-138l98 560h138l-40 -229h74l1 5c7 41 24 90 47 126c41 63 108 108 197 108c90 0 157 -54 180 -126c6 -20 9 -43 9 -66
h-139c-1 32 -18 61 -59 61c-34 0 -59 -19 -77 -48c-10 -16 -17 -37 -22 -60h146l-18 -104h-145c-2 -18 -3 -38 -1 -54c3 -28 21 -52 61 -52z" />
    <glyph glyph-name="uni0466" unicode="&#x466;" horiz-adv-x="682" 
d="M422 272l-47 -272h-114l47 272h-54l-133 -272h-147l375 750h188l111 -750h-133l-39 272h-54zM462 391l-34 235h-2l-116 -235h152z" />
    <glyph glyph-name="uni0467" unicode="&#x467;" horiz-adv-x="604" 
d="M365 182l-32 -182h-110l32 182h-45l-94 -182h-141l308 560h174l112 -560h-129l-30 182h-45zM259 284h136l-34 185h-2z" />
    <glyph glyph-name="uni0468" unicode="&#x468;" horiz-adv-x="951" 
d="M691 272l-47 -272h-114l47 272h-54l-133 -272h-147l136 272h-151l-47 -272h-137l132 750h137l-64 -359h189l180 359h188l111 -750h-133l-39 272h-54zM579 391h152l-34 235h-2z" />
    <glyph glyph-name="uni0469" unicode="&#x469;" horiz-adv-x="852" 
d="M613 182l-32 -182h-110l32 182h-45l-94 -182h-141l100 182h-118l-32 -182h-132l98 560h132l-49 -276h157l152 276h174l112 -560h-129l-30 182h-45zM507 284h136l-34 185h-2z" />
    <glyph glyph-name="uni046A" unicode="&#x46a;" horiz-adv-x="761" 
d="M472 320l-56 -320h-131l56 320h-18c-37 0 -77 -15 -101 -51c-11 -17 -20 -43 -25 -73l-34 -196h-137l35 202c8 47 20 83 37 115c35 67 97 113 195 128l-136 285l4 20h643l-4 -20l-243 -293c84 -19 137 -70 152 -135c7 -32 5 -68 -3 -115l-31 -187h-137l34 196
c5 30 7 56 1 73c-12 37 -46 51 -83 51h-18zM557 640h-203l69 -182h2z" />
    <glyph glyph-name="uni046B" unicode="&#x46b;" horiz-adv-x="668" 
d="M408 241l-42 -241h-123l42 241c-66 -3 -96 -36 -104 -86l-27 -155h-130l27 158c6 32 16 62 32 89c27 44 71 79 151 91l-111 211l2 11h555l-2 -11l-193 -220c74 -13 113 -52 125 -95c7 -27 4 -59 -2 -93l-24 -141h-130l27 155c9 55 -13 84 -73 86zM457 466h-157l57 -126z
" />
    <glyph glyph-name="uni046C" unicode="&#x46c;" horiz-adv-x="1033" 
d="M566 443l-137 287l4 20h643l-4 -20l-243 -293c84 -19 137 -70 152 -135c7 -32 5 -68 -3 -115l-31 -187h-137l34 196c5 30 7 56 1 73c-12 37 -46 51 -83 51h-18l-56 -320h-131l56 320h-18c-37 0 -77 -15 -101 -51c-11 -17 -20 -43 -25 -73l-34 -196h-137l33 189
c11 63 27 100 71 138c-14 -2 -31 -3 -47 -3h-117l-57 -324h-137l132 750h137l-54 -307h307zM829 640h-203l69 -182h2z" />
    <glyph glyph-name="uni046D" unicode="&#x46d;" horiz-adv-x="912" 
d="M231 333h249l-113 216l2 11h555l-2 -11l-193 -220c74 -13 113 -52 125 -95c7 -27 4 -59 -2 -93l-24 -141h-130l27 155c9 55 -13 84 -73 86l-42 -241h-123l42 241c-66 -3 -96 -36 -104 -86l-27 -155h-130l25 143c7 43 22 69 50 92c-14 -2 -38 -4 -57 -4h-73l-40 -231h-132
l98 560h132zM701 466h-157l57 -126z" />
    <glyph glyph-name="uni046E" unicode="&#x46e;" horiz-adv-x="580" 
d="M499 824l-65 -70c102 -23 177 -97 159 -213c-10 -67 -54 -127 -136 -169c71 -43 89 -104 80 -172c-17 -124 -117 -186 -269 -204l-60 -7c-69 -8 -89 -30 -91 -61c-2 -30 17 -46 48 -46c49 0 100 43 196 43c20 0 42 -1 59 -4l-23 -127c-20 3 -32 4 -56 4
c-70 0 -119 -41 -189 -41c-107 0 -176 57 -168 176c6 95 63 165 232 185l59 7c60 7 116 31 123 93c6 55 -21 96 -109 96h-87l22 127h87c88 0 133 47 138 97c6 57 -31 88 -90 88c-62 0 -99 -33 -117 -88h-139c27 128 107 195 220 215l-121 193h110l71 -118l52 60
c47 55 89 64 132 64c13 0 35 0 53 -2l-16 -89c-10 1 -17 2 -28 2c-29 0 -50 -10 -77 -39z" />
    <glyph glyph-name="uni046F" unicode="&#x46f;" horiz-adv-x="520" 
d="M470 148c-11 -87 -94 -133 -224 -149l-65 -8c-41 -5 -61 -22 -63 -48c-2 -23 14 -39 42 -39c45 0 93 31 156 31c19 0 36 -2 59 -8l-19 -105c-23 3 -36 5 -59 5c-53 0 -100 -29 -161 -29c-92 0 -153 49 -145 152c7 87 67 132 198 148l66 8c40 5 78 25 80 66
c2 37 -20 59 -87 59h-57l18 103h57c68 0 99 29 103 65c4 35 -22 55 -65 55c-51 0 -87 -25 -94 -66h-134c15 88 86 154 186 175l-100 164h114l61 -105l39 47c46 55 86 64 129 64c12 0 29 -1 43 -2l-15 -89c-10 1 -20 2 -32 2c-28 0 -50 -10 -76 -39l-38 -42
c86 -18 132 -76 123 -155c-6 -54 -41 -99 -113 -131c63 -33 80 -76 73 -129z" />
    <glyph glyph-name="uni0470" unicode="&#x470;" horiz-adv-x="780" 
d="M561 750l-62 -348h16c38 0 78 14 101 51c12 17 20 43 25 73l40 224h143l-43 -242c-8 -47 -20 -87 -37 -118c-43 -76 -113 -126 -231 -126h-38l-46 -264h-138l46 264h-12c-118 0 -194 69 -208 149c-6 32 -4 69 4 116l39 221h143l-40 -224c-5 -30 -7 -56 -1 -73
c11 -37 46 -51 83 -51h16l62 348h138z" />
    <glyph glyph-name="uni0471" unicode="&#x471;" horiz-adv-x="735" 
d="M276 121h23l117 664h132l-117 -662h8c84 0 110 87 128 194c15 85 19 185 19 243h134c1 -59 0 -144 -15 -243c-32 -212 -112 -327 -269 -327h-28l-42 -234h-132l42 234h-11c-103 0 -174 60 -190 145c-4 27 -5 62 3 104l56 321h138l-57 -322c-4 -27 -5 -48 -2 -64
c5 -34 29 -53 63 -53z" />
    <glyph glyph-name="afii10147" unicode="&#x472;" horiz-adv-x="621" 
d="M231 313l-10 -53c-3 -18 -6 -44 -4 -60c4 -41 28 -71 82 -71h6c69 0 112 57 125 129l13 73c-15 -19 -36 -28 -57 -28c-55 0 -64 59 -107 59c-17 0 -41 -12 -48 -49zM297 -10h-7c-125 0 -204 81 -215 187c-3 26 0 65 5 93l41 236c25 142 113 254 273 254h8
c123 0 203 -81 214 -188c3 -25 1 -64 -4 -92l-42 -236c-25 -142 -113 -254 -273 -254zM262 492l-10 -58c14 18 33 29 56 29c56 0 64 -59 107 -59c17 0 42 13 49 49l7 37c3 18 6 44 4 60c-4 41 -26 71 -81 71h-8c-70 0 -112 -57 -124 -129z" />
    <glyph glyph-name="afii10195" unicode="&#x473;" horiz-adv-x="545" 
d="M380 330c4 19 5 40 3 57c-3 28 -21 52 -61 52c-37 0 -62 -19 -80 -48c-11 -18 -19 -43 -24 -71c12 14 26 22 45 22c43 0 51 -43 80 -43c13 0 29 7 37 31zM203 231c-3 -19 -5 -41 -3 -58c3 -28 21 -52 61 -52c37 0 62 19 80 48c11 18 19 43 24 69c-13 -15 -27 -22 -45 -22
c-43 0 -52 43 -82 43c-13 0 -27 -7 -35 -28zM253 -10c-93 0 -159 54 -183 126c-13 37 -11 84 -4 125l17 95c7 41 24 90 47 126c41 63 108 108 200 108c93 0 159 -54 183 -126c13 -37 11 -84 4 -125l-17 -95c-7 -41 -24 -90 -47 -126c-41 -63 -108 -108 -200 -108z" />
    <glyph glyph-name="afii10148" unicode="&#x474;" horiz-adv-x="650" 
d="M588 540l-241 -540h-162l-73 750h144l38 -555h2l167 394c45 107 109 161 208 161c25 0 55 -1 75 -3l-22 -126c-12 1 -24 2 -37 2c-47 0 -73 -24 -99 -83z" />
    <glyph glyph-name="afii10196" unicode="&#x475;" horiz-adv-x="557" 
d="M477 373l-186 -373h-135l-81 560h137l38 -387h2l119 253c47 101 105 134 189 134c20 0 46 -1 61 -3l-21 -117c-2 0 -22 1 -34 1c-39 0 -63 -18 -89 -68z" />
    <glyph glyph-name="uni0476" unicode="&#x476;" horiz-adv-x="650" 
d="M383 982l3 12h128l82 -187h-91zM177 982l3 12h128l82 -187h-91zM588 540l-241 -540h-162l-73 750h144l38 -555h2l167 394c45 107 109 161 208 161c25 0 55 -1 75 -3l-22 -126c-12 1 -24 2 -37 2c-47 0 -73 -24 -99 -83z" />
    <glyph glyph-name="uni0477" unicode="&#x477;" horiz-adv-x="557" 
d="M306 832l3 12h128l82 -187h-91zM100 832l3 12h128l82 -187h-91zM477 373l-186 -373h-135l-81 560h137l38 -387h2l119 253c47 101 105 134 189 134c20 0 46 -1 61 -3l-21 -117c-2 0 -22 1 -34 1c-39 0 -63 -18 -89 -68z" />
    <glyph glyph-name="uni0478" unicode="&#x478;" horiz-adv-x="1153" 
d="M80 270l41 236c25 142 113 254 273 254h8c123 0 203 -81 214 -188c3 -25 1 -64 -4 -92l-41 -236c-25 -142 -113 -254 -273 -254h-8c-123 0 -203 81 -214 188c-3 25 -1 64 4 92zM430 258l40 232c3 18 6 44 4 60c-4 41 -35 71 -84 71h-4c-70 0 -111 -57 -124 -129l-40 -232
c-3 -18 -6 -44 -4 -60c4 -41 35 -71 84 -71h4c70 0 111 57 124 129zM789 21l-97 539h141l52 -369h2l176 369h151l-306 -585c-69 -132 -153 -191 -256 -191c-36 0 -68 5 -94 13l23 133c25 -6 49 -12 81 -12c58 0 91 33 117 83z" />
    <glyph glyph-name="uni0479" unicode="&#x479;" horiz-adv-x="1068" 
d="M260 121c37 0 62 19 80 48c11 18 19 43 24 69l15 91c3 19 5 41 3 58c-3 28 -21 52 -61 52c-37 0 -62 -19 -80 -48c-11 -18 -19 -43 -24 -69l-15 -91c-3 -19 -5 -41 -3 -58c3 -28 21 -52 61 -52zM252 -10c-93 0 -159 54 -183 126c-13 37 -11 84 -4 125l17 95
c7 41 24 90 47 126c41 63 108 108 200 108c93 0 159 -54 183 -126c13 -37 11 -84 4 -125l-17 -95c-7 -41 -24 -90 -47 -126c-41 -63 -108 -108 -200 -108zM704 21l-97 539h141l52 -369h2l176 369h151l-306 -585c-69 -132 -153 -191 -256 -191c-36 0 -68 5 -94 13l23 133
c25 -6 49 -12 81 -12c58 0 91 33 117 83z" />
    <glyph glyph-name="uni047A" unicode="&#x47a;" horiz-adv-x="621" 
d="M80 270l41 236c23 132 101 239 242 252c9 26 33 47 61 47s47 -22 45 -54c84 -24 138 -93 147 -179c3 -25 1 -64 -4 -92l-41 -236c-23 -132 -101 -239 -242 -252c-9 -26 -33 -47 -61 -47s-47 22 -45 54c-84 24 -138 93 -147 179c-3 25 -1 64 4 92zM430 258l40 232
c3 18 6 44 4 60c-3 24 -15 45 -35 58c-11 -22 -33 -36 -56 -36c-25 0 -41 16 -43 39c-43 -19 -68 -65 -78 -119l-40 -232c-3 -18 -6 -44 -4 -60c3 -24 15 -45 35 -58c11 22 33 36 56 36c25 0 41 -16 43 -39c43 19 68 65 78 119z" />
    <glyph glyph-name="uni047B" unicode="&#x47b;" horiz-adv-x="543" 
d="M65 241l17 95c7 41 24 90 47 126c36 56 93 98 169 106c9 25 30 45 57 45c28 0 44 -22 42 -54c57 -19 97 -62 115 -115c13 -37 11 -84 4 -125l-17 -95c-7 -41 -24 -90 -47 -126c-36 -56 -93 -98 -169 -106c-9 -25 -30 -45 -57 -45c-28 0 -44 22 -42 54
c-57 19 -97 62 -115 115c-13 37 -11 84 -4 125zM364 238l15 91c3 19 5 41 3 58c-2 12 -6 24 -14 33c-10 -21 -29 -36 -52 -36c-25 0 -40 17 -42 42c-13 -9 -24 -21 -33 -35c-11 -18 -19 -43 -24 -69l-15 -91c-3 -19 -5 -41 -3 -58c2 -12 6 -24 14 -33c10 21 29 36 52 36
c25 0 40 -17 42 -42c13 9 24 21 33 35c11 18 19 43 24 69z" />
    <glyph glyph-name="uni047C" unicode="&#x47c;" horiz-adv-x="873" 
d="M430 112c-49 -86 -114 -122 -184 -122c-111 0 -200 104 -152 397c19 116 63 257 123 363h154c-57 -104 -112 -247 -132 -364c-33 -184 -9 -253 42 -253c46 0 87 50 104 149l41 229h143l-41 -229c-17 -99 5 -149 51 -149c51 0 99 69 132 253c20 117 18 260 2 364h141
c19 -106 21 -247 2 -363c-48 -293 -173 -397 -284 -397c-70 0 -123 36 -142 122zM344 800l23 128h245l8 48h117l-22 -128h-245l-9 -48h-117z" />
    <glyph glyph-name="uni047D" unicode="&#x47d;" horiz-adv-x="740" 
d="M341 389h137l-32 -181c-11 -65 4 -98 36 -98c35 0 69 53 91 177c15 83 11 191 -6 273h136c19 -82 20 -188 7 -272c-34 -219 -135 -298 -231 -298c-56 0 -102 23 -122 86c-41 -63 -95 -86 -151 -86c-96 0 -169 79 -135 298c13 84 50 190 96 272h147
c-47 -82 -89 -190 -104 -273c-22 -124 -6 -177 29 -177c32 0 59 33 70 98zM276 650l23 128h245l8 48h117l-22 -128h-245l-9 -48h-117z" />
    <glyph glyph-name="uni047E" unicode="&#x47e;" horiz-adv-x="873" 
d="M519 853h-74l-17 -46h-64l23 133h367l-23 -133h-63l-2 46h-74l-17 -46h-54zM430 112c-49 -86 -114 -122 -184 -122c-111 0 -200 104 -152 397c19 116 63 257 123 363h154c-57 -104 -112 -247 -132 -364c-33 -184 -9 -253 42 -253c46 0 87 50 104 149l41 229h143l-41 -229
c-17 -99 5 -149 51 -149c51 0 99 69 132 253c20 117 18 260 2 364h141c19 -106 21 -247 2 -363c-48 -293 -173 -397 -284 -397c-70 0 -123 36 -142 122z" />
    <glyph glyph-name="uni047F" unicode="&#x47f;" horiz-adv-x="740" 
d="M424 693h-73l-18 -46h-64l23 133h368l-23 -133h-64l-2 46h-73l-18 -46h-54zM341 389h137l-32 -181c-11 -65 4 -98 36 -98c35 0 69 53 91 177c15 83 11 191 -6 273h136c19 -82 20 -188 7 -272c-34 -219 -135 -298 -231 -298c-56 0 -102 23 -122 86
c-41 -63 -95 -86 -151 -86c-96 0 -169 79 -135 298c13 84 50 190 96 272h147c-47 -82 -89 -190 -104 -273c-22 -124 -6 -177 29 -177c32 0 59 33 70 98z" />
    <glyph glyph-name="uni0480" unicode="&#x480;" horiz-adv-x="619" 
d="M78 257l43 249c25 142 113 254 273 254h8c123 0 205 -76 214 -188c2 -24 1 -58 -3 -86h-142c3 18 6 48 4 64c-4 41 -26 71 -81 71h-8c-70 0 -111 -57 -124 -129l-42 -238c-5 -28 -6 -56 -1 -73c11 -38 47 -56 82 -56h4c33 0 75 17 99 56c11 17 21 49 28 89h146l-89 -504
h-138l48 273c-42 -35 -88 -49 -130 -49c-92 0 -176 53 -194 151c-6 31 -5 69 3 116z" />
    <glyph glyph-name="uni0481" unicode="&#x481;" horiz-adv-x="539" 
d="M64 233l18 103c7 41 24 90 47 126c41 63 108 108 200 108c93 0 160 -54 183 -126c8 -26 11 -56 9 -86h-139c1 10 0 20 -1 29c-3 28 -21 52 -61 52c-37 0 -62 -19 -80 -48c-11 -18 -18 -43 -23 -69l-15 -84c-5 -27 -5 -48 -2 -64c6 -34 29 -53 63 -53c35 0 64 19 82 53
c3 5 5 13 9 20h140l-70 -394h-129l40 227c-37 -26 -75 -37 -116 -37c-86 0 -154 56 -162 148c-2 24 1 62 7 95z" />
    <glyph glyph-name="uni0482" unicode="&#x482;" horiz-adv-x="576" 
d="M229 326l97 154l-126 82l55 86l126 -79l127 198l91 -59l-125 -199l126 -80l-56 -87l-125 81l-98 -155l126 -80l-56 -88l-125 80l-127 -198l-91 58l125 199l-126 81l56 86z" />
    <glyph glyph-name="uni0483" unicode="&#x483;" horiz-adv-x="500" 
d="M153 650l23 128h245l8 48h117l-22 -128h-245l-9 -48h-117z" />
    <glyph glyph-name="uni0484" unicode="&#x484;" horiz-adv-x="500" 
d="M420 733c-26 0 -49 -15 -73 -30c-22 -14 -42 -27 -73 -36c-22 -7 -55 -10 -91 -10h-61l17 94h58c32 0 49 3 65 10c17 7 33 18 50 30c37 26 76 52 129 52c80 0 124 -63 113 -173h-100c0 45 -15 63 -34 63z" />
    <glyph glyph-name="uni0485" unicode="&#x485;" horiz-adv-x="500" 
d="M268 775h274l-14 -79h-274l-8 -49h-93l31 177h93z" />
    <glyph glyph-name="uni0486" unicode="&#x486;" horiz-adv-x="500" 
d="M170 775h274l9 49h93l-31 -177h-93l8 49h-274z" />
    <glyph glyph-name="uni0487" unicode="&#x487;" horiz-adv-x="500" 
d="M279 733c-22 0 -41 -18 -57 -63h-100c27 110 93 173 172 173c54 0 85 -26 112 -52c30 -27 55 -40 101 -40h58l-17 -94h-61c-57 0 -102 10 -148 46c-18 15 -34 30 -60 30z" />
    <glyph glyph-name="uni0488" unicode="&#x488;" horiz-adv-x="833" 
d="M423 660c59 0 98 -41 101 -103h-44c-5 34 -27 56 -57 56s-52 -22 -57 -56h-44c3 62 42 103 101 103zM423 111c59 0 98 -41 101 -103h-44c-5 34 -27 56 -57 56s-52 -22 -57 -56h-44c3 62 42 103 101 103zM154 386c59 0 98 -41 101 -103h-44c-5 34 -27 56 -57 56
s-52 -22 -57 -56h-44c3 62 42 103 101 103zM692 386c59 0 98 -41 101 -103h-44c-5 34 -27 56 -57 56s-52 -22 -57 -56h-44c3 62 42 103 101 103zM239 546c59 0 98 -41 101 -103h-44c-5 34 -27 56 -57 56s-52 -22 -57 -56h-44c3 62 42 103 101 103zM607 546
c59 0 98 -41 101 -103h-44c-5 34 -27 56 -57 56s-52 -22 -57 -56h-44c3 62 42 103 101 103zM239 221c59 0 98 -41 101 -103h-44c-5 34 -27 56 -57 56s-52 -22 -57 -56h-44c3 62 42 103 101 103zM607 221c59 0 98 -41 101 -103h-44c-5 34 -27 56 -57 56s-52 -22 -57 -56h-44
c3 62 42 103 101 103z" />
    <glyph glyph-name="uni0489" unicode="&#x489;" horiz-adv-x="833" 
d="M387 64v86h88v-69c0 -52 -22 -106 -94 -116v38c36 11 45 35 45 57c0 3 -1 4 -3 4h-36zM475 622v-86h-88v69c0 52 22 106 94 116v-38c-36 -11 -45 -36 -45 -57c0 -3 1 -4 3 -4h36zM702 299h-86v88h69c52 0 106 -22 116 -94h-38c-11 36 -36 45 -57 45c-3 0 -4 -1 -4 -3v-36
zM160 387h86v-88h-69c-52 0 -106 22 -116 94h38c11 -36 35 -45 57 -45c3 0 4 1 4 3v36zM593 114l-61 61l63 63l49 -49c23 -23 40 -50 40 -83c0 -20 -7 -41 -26 -65l-26 26c7 13 10 24 10 33c0 16 -9 30 -19 39c-2 1 -3 2 -4 1zM269 572l61 -61l-63 -63l-49 49
c-23 23 -40 50 -40 83c0 19 7 41 26 65l26 -26c-7 -13 -10 -24 -10 -33c0 -17 9 -30 19 -39c1 -2 3 -2 4 -1zM656 509l-61 -61l-63 63l49 49c23 23 50 40 83 40c19 0 41 -7 65 -26l-26 -26c-13 7 -24 10 -33 10c-17 0 -30 -9 -39 -19c-2 -2 -2 -3 -1 -4zM206 177l61 61
l63 -63l-49 -49c-23 -23 -50 -40 -83 -40c-20 0 -41 7 -65 26l26 26c13 -7 24 -10 33 -10c16 0 30 9 39 19c2 2 2 3 1 4z" />
    <glyph glyph-name="uni048A" unicode="&#x48a;" horiz-adv-x="711" 
d="M518 0h-104l72 415c5 25 12 58 12 58h-1l-303 -473h-150l132 750h137l-73 -415c-5 -25 -11 -58 -11 -58h1l303 473h150l-108 -612h124l-146 -372h-126zM430 803c-106 0 -165 71 -160 182h93c3 -58 20 -95 75 -95s79 37 90 95h93c-15 -111 -86 -182 -191 -182z" />
    <glyph glyph-name="uni048B" unicode="&#x48b;" horiz-adv-x="630" 
d="M528 119h86l-125 -319h-119l78 200c-37 0 -60 28 -55 76h-1c-44 -57 -103 -86 -168 -86c-79 0 -141 53 -151 143c-3 24 -1 61 4 91l59 336h138l-55 -320c-4 -23 -6 -41 -5 -55c2 -35 16 -63 56 -63c50 0 108 57 126 159l48 279h138l-73 -419c-3 -15 6 -22 19 -22z
M367 623c-106 0 -165 71 -160 182h93c3 -58 20 -95 75 -95s79 37 90 95h93c-15 -111 -86 -182 -191 -182z" />
    <glyph glyph-name="uni048C" unicode="&#x48c;" horiz-adv-x="693" 
d="M336 475h81c42 0 86 -6 112 -16c85 -33 138 -120 128 -225c-9 -103 -73 -183 -163 -218c-26 -10 -65 -16 -110 -16h-274l98 562h-120l13 73h120l21 115h143l-21 -115h139l-13 -73h-139zM277 138h112c34 0 55 5 71 13c31 16 51 48 54 87c4 39 -11 70 -36 85
c-13 9 -36 14 -66 14h-100z" />
    <glyph glyph-name="uni048D" unicode="&#x48d;" horiz-adv-x="596" 
d="M313 0h-232l73 420h-99l13 73h99l12 67h138l-12 -67h108l-13 -73h-108l-9 -57h63c28 0 48 -2 66 -5c88 -16 149 -74 139 -176c-10 -103 -79 -161 -171 -177c-18 -3 -39 -5 -67 -5zM262 244l-23 -125h79c18 0 37 1 47 4c26 7 46 26 49 59c3 32 -13 51 -39 58
c-10 3 -27 4 -45 4h-68z" />
    <glyph glyph-name="uni048E" unicode="&#x48e;" horiz-adv-x="616" 
d="M235 275l-48 -275h-143l132 750h213c42 0 86 -6 112 -16c85 -33 138 -120 128 -225c-9 -101 -70 -179 -157 -216l24 -58l-62 -32l-30 74c-15 -1 -31 -2 -48 -2h-121zM259 412h92l-23 58l62 31l31 -81c36 8 62 54 65 93c4 39 -11 70 -36 85c-13 9 -36 14 -66 14h-90z" />
    <glyph glyph-name="uni048F" unicode="&#x48f;" 
d="M303 -10c-46 0 -84 18 -116 56h-1s-5 -33 -9 -58l-42 -232h-138l142 804h91v-76h1c44 57 102 86 166 86c82 0 144 -53 154 -143c3 -24 1 -61 -4 -91l-19 -104c-6 -31 -14 -68 -27 -98c-20 -48 -51 -88 -92 -114l28 -69l-62 -32l-29 76c-14 -3 -28 -5 -43 -5zM228 278
l-6 -37c-9 -54 4 -121 69 -121h5l-26 66l61 31l25 -65c18 21 31 51 36 83l14 84c4 23 6 41 5 55c-2 35 -17 63 -57 63c-50 0 -109 -57 -126 -159z" />
    <glyph glyph-name="afii10050" unicode="&#x490;" horiz-adv-x="530" 
d="M44 0l132 750h300l41 233h138l-66 -371h-295l-107 -612h-143z" />
    <glyph glyph-name="afii10098" unicode="&#x491;" horiz-adv-x="483" 
d="M41 0l98 560h256l36 200h132l-57 -319h-250l-77 -441h-138z" />
    <glyph glyph-name="uni0492" unicode="&#x492;" horiz-adv-x="585" 
d="M89 0l62 355h-106l14 78h106l56 317h438l-25 -138h-295l-31 -179h180l-14 -78h-180l-62 -355h-143z" />
    <glyph glyph-name="uni0493" unicode="&#x493;" horiz-adv-x="520" 
d="M78 0l42 240h-92l13 73h92l43 247h388l-21 -119h-250l-22 -128h156l-13 -73h-156l-42 -240h-138z" />
    <glyph glyph-name="uni0494" unicode="&#x494;" horiz-adv-x="637" 
d="M294 612l-23 -132c35 4 73 7 109 7c135 0 215 -64 215 -192c0 -18 -3 -49 -9 -81l-32 -184c-28 -160 -108 -271 -255 -271c-70 0 -144 31 -187 86l92 93c22 -25 55 -41 88 -41c56 0 102 40 117 125l34 192c4 23 7 44 7 59c0 47 -23 76 -104 76c-40 0 -67 -2 -99 -6
l-60 -343h-143l132 750h438l-25 -138h-295z" />
    <glyph glyph-name="uni0495" unicode="&#x495;" horiz-adv-x="553" 
d="M492 124l-27 -157c-27 -152 -112 -203 -237 -203c-27 0 -48 2 -57 3l24 132c12 -1 23 -2 35 -2c57 0 88 23 99 84l26 148c3 19 5 38 4 49c-3 40 -27 53 -86 53c-20 0 -39 -1 -54 -3l-40 -228h-138l98 560h388l-21 -119h-250l-17 -94c22 1 44 3 67 3
c115 0 192 -54 193 -163c0 -16 -3 -41 -7 -63z" />
    <glyph glyph-name="uni0496" unicode="&#x496;" horiz-adv-x="1007" 
d="M517 750h143l-51 -290h43c62 0 93 29 115 89l18 51c39 111 86 157 183 157c23 0 47 -2 78 -7l-23 -130c-17 3 -26 4 -39 4c-32 0 -53 -20 -68 -66l-9 -27c-25 -76 -59 -133 -116 -165l92 -228h106l-66 -372h-137l42 234h-47l-125 322h-72l-56 -322h-143l56 322h-57
l-236 -322h-175l277 366c-36 32 -60 89 -59 165l1 27c2 46 -12 66 -43 66c-14 0 -25 -1 -42 -4l23 130c33 5 47 7 70 7c85 0 125 -47 127 -157l1 -51c1 -60 22 -89 85 -89h53z" />
    <glyph glyph-name="uni0497" unicode="&#x497;" horiz-adv-x="856" 
d="M84 446l20 113c28 4 41 6 61 6c76 0 113 -35 118 -114l2 -36c2 -43 11 -64 64 -64h31l36 209h138l-36 -209h19c52 0 68 21 86 64l14 36c32 79 71 114 158 114c24 0 45 -2 71 -6l-20 -113c-14 2 -21 3 -34 3c-27 0 -43 -17 -56 -54l-4 -12c-17 -51 -41 -90 -87 -112
l75 -152h94l-56 -319h-129l36 200h-41l-108 232h-40l-40 -232h-138l40 232h-29l-187 -232h-167l228 271c-35 20 -48 61 -47 112v12c-1 37 -11 54 -38 54c-13 0 -20 -1 -34 -3z" />
    <glyph glyph-name="uni0498" unicode="&#x498;" horiz-adv-x="583" 
d="M594 546c-9 -68 -54 -132 -136 -173c70 -45 90 -106 81 -176c-14 -109 -100 -186 -218 -203c20 -40 33 -85 26 -127c-11 -71 -61 -105 -131 -105c-41 0 -78 13 -102 26l33 69c18 -9 41 -17 62 -17c27 0 45 14 50 45c5 28 -6 66 -24 107c-130 13 -199 107 -186 233h141
c-8 -62 21 -101 90 -101c60 0 113 35 121 93c7 54 -22 99 -111 99h-84l22 125h83c88 0 132 47 139 100c7 56 -27 84 -84 84c-66 0 -111 -39 -123 -101h-141c21 143 131 236 284 236c136 0 225 -89 208 -214z" />
    <glyph glyph-name="uni0499" unicode="&#x499;" horiz-adv-x="504" 
d="M500 409c-7 -54 -41 -99 -112 -131c62 -33 79 -77 72 -132c-11 -82 -76 -139 -179 -152c20 -40 33 -85 26 -127c-11 -71 -61 -105 -131 -105c-41 0 -78 13 -102 26l33 69c18 -9 41 -17 62 -17c27 0 45 14 50 45c5 28 -6 66 -24 107c-109 11 -170 83 -158 180h133
c-5 -40 19 -66 72 -66c44 0 78 24 85 62s-18 63 -84 63h-56l18 103h54c67 0 97 29 103 66c7 37 -19 54 -61 54c-50 0 -83 -25 -90 -66h-136c16 112 108 182 238 182c124 0 199 -65 187 -161z" />
    <glyph glyph-name="uni049A" unicode="&#x49a;" horiz-adv-x="681" 
d="M44 0l132 750h143l-51 -290h51c63 0 94 29 115 89l19 51c42 110 90 157 183 157c18 0 48 -2 79 -7l-23 -129c-16 3 -26 4 -40 4c-31 0 -53 -22 -68 -68l-8 -26c-25 -76 -58 -131 -117 -165l93 -228h113l-66 -372h-138l42 234h-52l-124 322h-84l-56 -322h-143z" />
    <glyph glyph-name="uni049B" unicode="&#x49b;" horiz-adv-x="597" 
d="M602 559l-20 -113c-14 2 -19 3 -32 3c-28 0 -44 -18 -57 -55l-4 -11c-18 -51 -41 -90 -88 -112l75 -152h98l-56 -319h-129l36 200h-42l-108 232h-57l-40 -232h-138l98 560h138l-37 -209h33c53 0 70 21 87 64l14 36c31 80 72 114 158 114c20 0 46 -2 71 -6z" />
    <glyph glyph-name="uni049C" unicode="&#x49c;" horiz-adv-x="670" 
d="M43 0l132 750h143l-51 -290h55l32 179h59l-32 -176c42 9 65 37 82 86l19 51c42 110 90 157 183 157c18 0 48 -2 79 -7l-23 -129c-16 3 -26 4 -40 4c-31 0 -53 -22 -68 -68l-8 -26c-25 -76 -58 -131 -117 -165l149 -366h-157l-124 321l-28 -157h-59l28 158h-55l-56 -322
h-143z" />
    <glyph glyph-name="uni049D" unicode="&#x49d;" horiz-adv-x="599" 
d="M632 559l-20 -113c-14 2 -19 3 -32 3c-28 0 -44 -18 -57 -55l-4 -11c-18 -51 -41 -90 -88 -112l134 -271h-152l-101 217l-23 -133h-55l25 148h-41l-40 -232h-138l98 560h138l-37 -209h41l28 160h55l-27 -156c27 8 40 28 53 60l14 36c31 80 72 114 158 114
c20 0 46 -2 71 -6z" />
    <glyph glyph-name="uni049E" unicode="&#x49e;" horiz-adv-x="694" 
d="M97 0l104 592h-103l13 73h103l15 85h143l-15 -85h88l-15 -73h-86l-23 -132h51c63 0 94 29 115 89l19 51c42 110 90 157 183 157c18 0 48 -2 79 -7l-23 -129c-16 3 -26 4 -40 4c-31 0 -53 -22 -68 -68l-8 -26c-25 -76 -58 -131 -117 -165l149 -366h-157l-124 322h-84
l-56 -322h-143z" />
    <glyph glyph-name="uni049F" unicode="&#x49f;" horiz-adv-x="598" 
d="M631 559l-20 -113c-14 2 -19 3 -32 3c-28 0 -44 -18 -57 -55l-4 -11c-18 -51 -41 -90 -88 -112l134 -271h-152l-108 232h-57l-40 -232h-138l74 425h-87l13 73h87l11 62h138l-11 -62h62l-14 -73h-61l-13 -74h33c53 0 70 21 87 64l14 36c31 80 72 114 158 114
c20 0 46 -2 71 -6z" />
    <glyph glyph-name="uni04A0" unicode="&#x4a0;" horiz-adv-x="776" 
d="M179 0l107 612h-189l25 138h332l-51 -290h51c63 0 94 29 115 89l19 51c42 110 90 157 183 157c18 0 48 -2 79 -7l-23 -129c-16 3 -26 4 -40 4c-31 0 -53 -22 -68 -68l-8 -26c-25 -76 -58 -131 -117 -165l149 -366h-157l-124 322h-84l-56 -322h-143z" />
    <glyph glyph-name="uni04A1" unicode="&#x4a1;" horiz-adv-x="673" 
d="M706 559l-20 -113c-14 2 -19 3 -32 3c-28 0 -44 -18 -57 -55l-4 -11c-18 -51 -41 -90 -88 -112l134 -271h-152l-108 232h-57l-40 -232h-138l77 441h-156l21 119h294l-37 -209h33c53 0 70 21 87 64l14 36c31 80 72 114 158 114c20 0 46 -2 71 -6z" />
    <glyph glyph-name="uni04A2" unicode="&#x4a2;" horiz-adv-x="713" 
d="M532 0h-124l56 322h-221l-56 -322h-143l132 750h143l-51 -290h221l51 290h143l-108 -612h118l-66 -372h-137z" />
    <glyph glyph-name="uni04A3" unicode="&#x4a3;" horiz-adv-x="622" 
d="M452 0h-110l40 232h-163l-40 -232h-138l98 560h138l-37 -209h163l37 209h139l-78 -441h101l-56 -319h-130z" />
    <glyph glyph-name="uni04A4" unicode="&#x4a4;" horiz-adv-x="794" 
d="M44 0l132 750h143l-51 -290h221l51 290h334l-25 -138h-191l-107 -612h-143l56 322h-221l-56 -322h-143z" />
    <glyph glyph-name="uni04A5" unicode="&#x4a5;" horiz-adv-x="687" 
d="M558 441l-77 -441h-139l40 232h-163l-40 -232h-138l98 560h138l-37 -209h163l37 209h295l-21 -119h-156z" />
    <glyph glyph-name="uni04A6" unicode="&#x4a6;" horiz-adv-x="983" 
d="M665 750l-48 -270c35 4 73 7 109 7c135 0 215 -64 215 -192c0 -18 -3 -49 -9 -81l-32 -184c-28 -160 -108 -271 -255 -271c-70 0 -144 31 -187 86l92 93c22 -25 55 -41 88 -41c56 0 102 40 117 125l34 192c4 23 7 44 7 59c0 47 -23 76 -104 76c-40 0 -67 -2 -99 -6
l-60 -343h-144l107 612h-202l-107 -612h-143l132 750h489z" />
    <glyph glyph-name="uni04A7" unicode="&#x4a7;" horiz-adv-x="840" 
d="M564 560l-34 -195c22 1 43 3 66 3c115 0 192 -54 193 -163c0 -16 -3 -41 -7 -63l-30 -175c-27 -152 -112 -203 -237 -203c-27 0 -48 2 -57 3l24 132c12 -1 23 -2 35 -2c57 0 88 23 99 84l29 166c3 19 5 38 4 49c-3 40 -27 53 -86 53c-20 0 -39 -1 -54 -3l-43 -246h-138
l77 441h-149l-77 -441h-138l98 560h425z" />
    <glyph glyph-name="uni04A8" unicode="&#x4a8;" horiz-adv-x="689" 
d="M311 -10h-21c-125 0 -204 81 -215 187c-3 26 0 65 5 93l41 236c25 142 117 254 277 254h4c129 0 210 -83 215 -213h-142c-4 44 -26 74 -81 74h-8c-70 0 -111 -57 -124 -129l-43 -247c-3 -18 -6 -44 -4 -60c4 -41 28 -71 82 -71h11l34 193c20 112 69 189 180 189
c103 0 158 -76 136 -199l-11 -61c-19 -104 -74 -205 -196 -230c21 -15 54 -19 78 -19c36 0 76 8 114 22l-21 -118c-41 -14 -75 -21 -111 -21c-114 0 -180 49 -200 120zM473 307l-33 -187c39 13 63 56 73 112l14 75c6 35 6 63 -17 63c-19 0 -30 -23 -37 -63z" />
    <glyph glyph-name="uni04A9" unicode="&#x4a9;" horiz-adv-x="592" 
d="M456 1c29 0 60 5 94 19l-19 -101c-31 -10 -66 -16 -91 -16c-104 0 -157 40 -178 90h-14c-120 0 -213 78 -190 209l32 179c20 118 107 189 234 189h5c99 0 181 -60 191 -172h-136c-6 34 -31 56 -65 56h-6c-49 0 -82 -34 -89 -82l-33 -185c-3 -20 -3 -39 1 -49
c11 -24 34 -38 65 -38l21 119c16 86 57 139 154 139c89 0 135 -64 118 -159l-5 -30c-12 -69 -48 -131 -153 -154c16 -10 48 -14 64 -14zM391 217l-20 -110c34 7 53 33 59 66l8 44c3 20 -2 33 -18 33c-15 0 -25 -10 -29 -33z" />
    <glyph glyph-name="uni04AA" unicode="&#x4aa;" horiz-adv-x="603" 
d="M432 270h141c-9 -132 -93 -259 -238 -277c19 -40 31 -84 25 -126c-11 -71 -61 -105 -131 -105c-41 0 -78 13 -102 26l33 69c18 -9 41 -17 62 -17c27 0 45 14 50 45c5 28 -6 67 -24 108c-100 16 -164 90 -173 184c-3 26 0 65 5 93l41 236c25 142 113 254 273 254h8
c123 0 205 -76 214 -188c2 -24 1 -58 -3 -86h-142c3 18 6 48 4 64c-4 41 -26 71 -81 71h-8c-70 0 -111 -57 -124 -129l-41 -232c-3 -18 -6 -44 -4 -60c4 -41 28 -71 82 -71h6c69 0 113 54 125 129z" />
    <glyph glyph-name="uni04AB" unicode="&#x4ab;" horiz-adv-x="532" 
d="M353 194h141c-9 -34 -23 -68 -41 -96c-35 -54 -90 -95 -163 -105c19 -40 31 -84 25 -126c-11 -71 -61 -105 -131 -105c-41 0 -78 13 -102 26l33 69c18 -9 41 -17 62 -17c27 0 45 14 50 45c5 28 -7 69 -25 110c-64 13 -113 61 -133 121c-13 37 -11 84 -4 125l17 95
c7 41 24 90 47 126c41 63 108 108 200 108c93 0 160 -54 183 -126c8 -26 11 -56 9 -86h-139c1 10 0 20 -1 29c-3 28 -21 52 -61 52c-37 0 -62 -19 -80 -48c-11 -18 -18 -43 -23 -69l-15 -91c-3 -19 -4 -41 -2 -58c3 -28 21 -52 61 -52c45 0 81 30 92 73z" />
    <glyph glyph-name="uni04AC" unicode="&#x4ac;" horiz-adv-x="554" 
d="M299 0h-123l107 612h-186l25 138h514l-25 -138h-185l-83 -474h117l-66 -372h-137z" />
    <glyph glyph-name="uni04AD" unicode="&#x4ad;" horiz-adv-x="871" 
d="M525 279l-49 -279h-138l55 320c4 23 6 41 5 55c-2 35 -17 63 -54 63c-48 0 -99 -57 -117 -159l-48 -279h-138l98 560h91v-76h1c44 57 97 86 157 86c63 0 112 -34 134 -94l7 8c44 57 97 86 157 86c79 0 141 -53 151 -143c3 -24 1 -61 -4 -91l-38 -217h101l-56 -319h-130
l36 200h-110l55 320c4 23 6 41 5 55c-2 35 -17 63 -54 63c-48 0 -99 -57 -117 -159z" />
    <glyph glyph-name="uni04AE" unicode="&#x4ae;" horiz-adv-x="606" 
d="M103 750h155l90 -280h2l191 280h166l-305 -421l-58 -329h-143l57 328z" />
    <glyph glyph-name="uni04AF" unicode="&#x4af;" horiz-adv-x="518" 
d="M579 560l-282 -560l-44 -244h-138l44 244l-84 560h141l38 -387h2l173 387h150z" />
    <glyph glyph-name="uni04B0" unicode="&#x4b0;" horiz-adv-x="606" 
d="M103 750h155l90 -280h2l191 280h166l-305 -421l-5 -29h162l-13 -78h-163l-39 -222h-143l38 222h-160l13 78h161l5 28z" />
    <glyph glyph-name="uni04B1" unicode="&#x4b1;" horiz-adv-x="518" 
d="M579 560l-282 -560h122l-13 -73h-122l-31 -171h-138l31 171h-121l13 73h121l-84 560h141l38 -387h2l173 387h150z" />
    <glyph glyph-name="uni04B2" unicode="&#x4b2;" horiz-adv-x="661" 
d="M266 399l-133 351h156l77 -224l150 224h172l-265 -364l97 -248h123l-66 -372h-137l42 234h-62l-94 260l-178 -260h-172z" />
    <glyph glyph-name="uni04B3" unicode="&#x4b3;" horiz-adv-x="544" 
d="M93 560h144l60 -160l108 160h158l-210 -271l74 -170h95l-56 -319h-129l36 200h-39l-69 185l-128 -185h-157l228 295z" />
    <glyph glyph-name="uni04B4" unicode="&#x4b4;" horiz-adv-x="804" 
d="M122 750h416l-25 -138h-136l-83 -474h229l108 612h143l-108 -612h118l-66 -372h-137l42 234h-496l107 612h-137z" />
    <glyph glyph-name="uni04B5" unicode="&#x4b5;" horiz-adv-x="685" 
d="M587 119h78l-56 -319h-130l36 200c-42 -1 -68 25 -63 76h-1c-44 -57 -103 -86 -168 -86c-79 0 -141 53 -151 143c-3 24 -1 61 4 91l38 217h-109l21 119h343l-21 -119h-95l-35 -201c-4 -23 -6 -41 -5 -55c2 -35 16 -63 56 -63c50 0 108 57 126 159l48 279h138l-73 -419
c-3 -15 6 -22 19 -22z" />
    <glyph glyph-name="uni04B6" unicode="&#x4b6;" horiz-adv-x="685" 
d="M452 407l61 343h143l-108 -612h117l-66 -372h-137l42 234h-123l47 270c-35 -4 -71 -7 -104 -7c-132 0 -211 64 -211 192c0 18 3 49 9 81l38 214h143l-38 -214c-4 -23 -7 -44 -7 -59c0 -47 22 -76 100 -76c37 0 62 2 94 6z" />
    <glyph glyph-name="uni04B7" unicode="&#x4b7;" horiz-adv-x="595" 
d="M316 0l34 196c-25 -2 -51 -4 -77 -4c-115 0 -192 54 -193 163c0 16 3 41 7 63l25 142h138l-26 -147c-3 -19 -5 -38 -4 -49c3 -40 27 -53 86 -53c25 0 48 2 65 5l43 244h138l-77 -441h100l-56 -319h-129l36 200h-110z" />
    <glyph glyph-name="uni04B8" unicode="&#x4b8;" horiz-adv-x="647" 
d="M400 0l47 270c-23 -3 -52 -6 -84 -7l-27 -148h-59l27 151c-122 10 -195 76 -189 200c0 18 3 48 9 80l36 204h143l-38 -214c-5 -26 -8 -50 -7 -59c0 -39 15 -66 71 -74l26 152h59l-27 -154c34 0 58 2 84 6l61 343h143l-132 -750h-143z" />
    <glyph glyph-name="uni04B9" unicode="&#x4b9;" horiz-adv-x="575" 
d="M336 0l34 196c-18 -2 -39 -3 -64 -4l-19 -112h-55l19 114c-109 11 -172 65 -170 166c0 16 3 41 7 63l24 137h138l-26 -147c-3 -19 -5 -38 -4 -49c1 -30 16 -45 53 -51l22 129h55l-23 -131c28 0 49 2 64 5l43 244h138l-98 -560h-138z" />
    <glyph glyph-name="uni04BA" unicode="&#x4ba;" horiz-adv-x="627" 
d="M318 750l-47 -270c35 4 71 7 104 7c132 0 211 -64 211 -192c0 -18 -3 -49 -9 -81l-38 -214h-143l38 214c4 23 7 44 7 59c0 47 -22 76 -100 76c-37 0 -62 -2 -94 -6l-61 -343h-143l132 750h143z" />
    <glyph glyph-name="uni04BB" unicode="&#x4bb;" horiz-adv-x="555" 
d="M277 560l-34 -196c25 2 51 4 77 4c115 0 192 -54 193 -163c0 -16 -3 -41 -7 -63l-25 -142h-138l26 147c3 19 5 38 4 49c-3 40 -27 53 -86 53c-25 0 -48 -2 -65 -5l-43 -244h-138l98 560h138z" />
    <glyph glyph-name="uni04BC" unicode="&#x4bc;" horiz-adv-x="764" 
d="M194 510c-4 -25 0 -54 49 -54h10l9 50c25 142 113 254 273 254h8c123 0 203 -81 214 -188c3 -25 1 -64 -4 -92l-26 -153h-353l-11 -67c-3 -18 -6 -44 -4 -60c4 -41 35 -71 84 -71h4c61 0 100 43 117 102h146c-28 -136 -116 -241 -271 -241h-8c-123 0 -203 81 -214 188
c-3 25 -1 64 4 92l10 57h-4c-132 0 -174 75 -163 166c2 20 8 38 15 59h127c-5 -14 -9 -26 -12 -42zM397 456h209l5 34c3 18 6 44 4 60c-4 41 -35 71 -84 71h-4c-70 0 -112 -57 -124 -129z" />
    <glyph glyph-name="uni04BD" unicode="&#x4bd;" horiz-adv-x="654" 
d="M369 109c43 0 72 28 88 63h140c-9 -27 -20 -53 -34 -74c-41 -63 -108 -108 -200 -108c-93 0 -159 54 -183 126c-13 37 -11 84 -4 126h-6c-99 0 -135 60 -126 137c2 20 7 34 12 51h104c-4 -11 -7 -21 -10 -37c-4 -23 0 -47 40 -47h4c8 39 25 83 46 116
c41 63 108 108 200 108c93 0 159 -51 183 -123c13 -37 11 -87 4 -128l-14 -76h-298l-4 -24c-3 -19 -5 -41 -3 -58c3 -28 21 -52 61 -52zM355 406c-10 -16 -17 -37 -22 -59h160c3 18 5 39 3 55c-3 28 -21 52 -61 52c-37 0 -62 -19 -80 -48z" />
    <glyph glyph-name="uni04BE" unicode="&#x4be;" horiz-adv-x="764" 
d="M194 510c-4 -25 0 -54 49 -54h10l9 50c25 142 113 254 273 254h8c123 0 203 -81 214 -188c3 -25 1 -64 -4 -92l-26 -153h-353l-11 -67c-3 -18 -6 -44 -4 -60c4 -41 35 -71 84 -71h4c61 0 100 43 117 102h146c-25 -122 -98 -218 -224 -237l-40 -228h-137l42 237
c-77 27 -126 93 -134 175c-3 25 -1 64 4 92l10 57h-4c-132 0 -174 75 -163 166c2 20 8 38 15 59h127c-5 -14 -9 -26 -12 -42zM397 456h209l5 34c3 18 6 44 4 60c-4 41 -35 71 -84 71h-4c-70 0 -112 -57 -124 -129z" />
    <glyph glyph-name="uni04BF" unicode="&#x4bf;" horiz-adv-x="654" 
d="M369 109c43 0 72 28 88 63h140c-9 -27 -20 -53 -34 -74c-35 -53 -88 -93 -158 -104l-34 -194h-129l36 207c-48 22 -82 61 -98 109c-13 37 -11 84 -4 126h-6c-99 0 -135 60 -126 137c2 20 7 34 12 51h104c-4 -11 -7 -21 -10 -37c-4 -23 0 -47 40 -47h4c8 39 25 83 46 116
c41 63 108 108 200 108c93 0 159 -51 183 -123c13 -37 11 -87 4 -128l-14 -76h-298l-4 -24c-3 -19 -5 -41 -3 -58c3 -28 21 -52 61 -52zM355 406c-10 -16 -17 -37 -22 -59h160c3 18 5 39 3 55c-3 28 -21 52 -61 52c-37 0 -62 -19 -80 -48z" />
    <glyph glyph-name="uni04C0" unicode="&#x4c0;" horiz-adv-x="291" 
d="M44 0l132 750h143l-132 -750h-143z" />
    <glyph glyph-name="uni04C1" unicode="&#x4c1;" horiz-adv-x="972" 
d="M517 750h143l-51 -290h43c62 0 93 29 115 89l18 51c42 110 86 157 183 157c23 0 47 -2 78 -7l-23 -130c-17 3 -26 4 -39 4c-32 0 -53 -20 -68 -66l-9 -27c-25 -76 -59 -133 -116 -165l148 -366h-158l-125 322h-72l-56 -322h-143l56 322h-57l-236 -322h-175l277 366
c-36 32 -60 89 -59 165l1 27c2 46 -12 66 -43 66c-14 0 -25 -1 -42 -4l23 130c33 5 47 7 70 7c85 0 125 -47 127 -157l1 -51c1 -60 22 -89 85 -89h53zM600 803c-106 0 -165 71 -160 182h93c3 -58 20 -95 75 -95s79 37 90 95h93c-15 -111 -86 -182 -191 -182z" />
    <glyph glyph-name="uni04C2" unicode="&#x4c2;" horiz-adv-x="834" 
d="M84 446l20 113c28 4 41 6 61 6c76 0 113 -35 118 -114l2 -36c2 -43 11 -64 64 -64h31l36 209h138l-36 -209h19c52 0 68 21 86 64l14 36c32 79 71 114 158 114c24 0 45 -2 71 -6l-20 -113c-14 2 -21 3 -34 3c-27 0 -43 -17 -56 -54l-4 -12c-17 -51 -41 -90 -87 -112
l134 -271h-155l-108 232h-40l-40 -232h-138l40 232h-29l-187 -232h-167l228 271c-35 20 -48 61 -47 112v12c-1 37 -11 54 -38 54c-13 0 -20 -1 -34 -3zM495 623c-106 0 -165 71 -160 182h93c3 -58 20 -95 75 -95s79 37 90 95h93c-15 -111 -86 -182 -191 -182z" />
    <glyph glyph-name="uni04C3" unicode="&#x4c3;" horiz-adv-x="650" 
d="M457 24c16 94 -30 207 -101 298h-113l-56 -322h-143l132 750h143l-51 -290h51c63 0 94 29 115 89l19 51c42 110 90 157 183 157c18 0 48 -2 79 -7l-23 -129c-16 3 -26 4 -40 4c-31 0 -53 -22 -68 -68l-8 -26c-22 -65 -48 -112 -92 -145c86 -115 131 -238 116 -366
c-19 -157 -115 -261 -258 -261c-70 0 -139 31 -182 84l100 94c20 -23 51 -38 84 -38c54 0 98 40 113 125z" />
    <glyph glyph-name="uni04C4" unicode="&#x4c4;" horiz-adv-x="579" 
d="M493 394l-4 -11c-16 -46 -35 -78 -72 -100c74 -89 104 -171 94 -266c-14 -132 -104 -210 -214 -210c-61 0 -122 29 -155 71l84 84c19 -20 45 -32 72 -32c34 0 74 24 82 85c9 75 -20 151 -83 217h-79l-40 -232h-138l98 560h138l-37 -209h33c53 0 70 21 87 64l14 36
c31 80 72 114 158 114c20 0 46 -2 71 -6l-20 -113c-14 2 -19 3 -32 3c-28 0 -44 -18 -57 -55z" />
    <glyph glyph-name="uni04C5" unicode="&#x4c5;" horiz-adv-x="721" 
d="M360 612l-62 -272c-35 -152 -84 -335 -321 -342l25 140c97 6 129 104 153 208l93 404h442l-108 -612h127l-145 -372h-126l91 234h-114l107 612h-162z" />
    <glyph glyph-name="uni04C6" unicode="&#x4c6;" horiz-adv-x="638" 
d="M291 353c-48 -208 -74 -358 -313 -352l23 127c103 0 117 72 146 197l15 63c35 144 137 179 213 179c61 0 139 -12 216 -30l-73 -418h104l-125 -319h-119l78 200h-97l75 433c-16 3 -34 6 -57 6c-28 0 -69 -10 -86 -86z" />
    <glyph glyph-name="uni04C7" unicode="&#x4c7;" horiz-adv-x="655" 
d="M404 -21l60 343h-221l-56 -322h-143l132 750h143l-51 -290h221l51 290h143l-138 -778c-27 -152 -107 -208 -229 -208c-26 0 -63 2 -71 3l23 130c11 -1 24 -2 36 -2c58 0 89 23 100 84z" />
    <glyph glyph-name="uni04C8" unicode="&#x4c8;" horiz-adv-x="582" 
d="M338 -21l44 253h-163l-40 -232h-138l98 560h138l-37 -209h163l37 209h139l-104 -588c-27 -152 -109 -208 -230 -208c-27 0 -57 2 -66 3l23 130c12 -1 24 -2 36 -2c58 0 89 23 100 84z" />
    <glyph glyph-name="uni04C9" unicode="&#x4c9;" horiz-adv-x="715" 
d="M522 0h-114l56 322h-221l-56 -322h-143l132 750h143l-51 -290h221l51 290h143l-108 -612h128l-146 -372h-126z" />
    <glyph glyph-name="uni04CA" unicode="&#x4ca;" horiz-adv-x="621" 
d="M439 0h-97l40 232h-163l-40 -232h-138l98 560h138l-37 -209h163l37 209h139l-78 -441h104l-125 -319h-119z" />
    <glyph glyph-name="uni04CB" unicode="&#x4cb;" horiz-adv-x="628" 
d="M452 407l61 343h143l-132 -750h-124l-42 -234h-137l66 372h118l23 132c-35 -4 -71 -7 -104 -7c-132 0 -211 64 -211 192c0 18 3 49 9 81l38 214h143l-38 -214c-4 -23 -7 -44 -7 -59c0 -47 22 -76 100 -76c37 0 62 2 94 6z" />
    <glyph glyph-name="uni04CC" unicode="&#x4cc;" horiz-adv-x="552" 
d="M374 331l40 229h138l-98 -560h-110l-36 -200h-129l56 319h101l17 92c-25 -2 -51 -4 -77 -4c-115 0 -192 54 -193 163c0 16 3 41 7 63l22 127h138l-23 -132c-3 -19 -5 -38 -4 -49c3 -40 27 -53 86 -53c25 0 48 2 65 5z" />
    <glyph glyph-name="uni04CD" unicode="&#x4cd;" horiz-adv-x="830" 
d="M618 477l-198 -340h-82l-77 340h-1s-5 -33 -10 -58l-73 -419h-133l132 750h151l85 -400l227 400h160l-108 -612h127l-145 -372h-127l91 234h-103l73 419c5 25 11 58 11 58z" />
    <glyph glyph-name="uni04CE" unicode="&#x4ce;" horiz-adv-x="757" 
d="M249 266l-14 -81c-25 -141 -93 -185 -199 -185c-18 0 -42 2 -58 5l21 119c14 -2 27 -3 41 -3c35 0 58 24 68 82l62 357h140l75 -302l181 302h148l-77 -441h104l-125 -319h-119l78 200h-90l46 266c4 25 16 71 16 71h-1l-145 -239h-80l-61 239h-1s-6 -46 -10 -71z" />
    <glyph glyph-name="uni04CF" unicode="&#x4cf;" horiz-adv-x="274" 
d="M38 0l98 560h138l-98 -560h-138z" />
    <glyph glyph-name="uni04D0" unicode="&#x4d0;" horiz-adv-x="600" 
d="M391 329l-18 237h-4l-98 -237h120zM402 193h-190l-83 -193h-149l338 750h168l74 -750h-143zM404 803c-106 0 -165 71 -160 182h93c3 -58 20 -95 75 -95s79 37 90 95h93c-15 -111 -86 -182 -191 -182z" />
    <glyph glyph-name="uni04D1" unicode="&#x4d1;" horiz-adv-x="549" 
d="M236 401h-132c27 113 115 169 230 169c98 0 159 -45 179 -120c7 -27 5 -67 -1 -103l-61 -347h-84v86h-1c-35 -58 -80 -96 -156 -96c-100 0 -173 62 -162 186c7 81 54 137 126 162c27 9 60 14 103 14h98l2 14c10 58 -9 93 -62 93c-44 0 -69 -24 -79 -58zM185 181
c-4 -44 16 -72 62 -72c52 0 94 46 106 116l4 23h-81c-15 0 -34 -2 -45 -6c-27 -10 -43 -32 -46 -61zM369 623c-106 0 -165 71 -160 182h93c3 -58 20 -95 75 -95s79 37 90 95h93c-15 -111 -86 -182 -191 -182z" />
    <glyph glyph-name="uni04D2" unicode="&#x4d2;" horiz-adv-x="600" 
d="M391 329l-18 237h-4l-98 -237h120zM402 193h-190l-83 -193h-149l338 750h168l74 -750h-143zM371 824h-123l23 131h123zM585 824h-122l23 131h122z" />
    <glyph glyph-name="uni04D3" unicode="&#x4d3;" horiz-adv-x="549" 
d="M236 401h-132c27 113 115 169 230 169c98 0 159 -45 179 -120c7 -27 5 -67 -1 -103l-61 -347h-84v86h-1c-35 -58 -80 -96 -156 -96c-100 0 -173 62 -162 186c7 81 54 137 126 162c27 9 60 14 103 14h98l2 14c10 58 -9 93 -62 93c-44 0 -69 -24 -79 -58zM185 181
c-4 -44 16 -72 62 -72c52 0 94 46 106 116l4 23h-81c-15 0 -34 -2 -45 -6c-27 -10 -43 -32 -46 -61zM318 644h-123l23 131h123zM532 644h-122l23 131h122z" />
    <glyph glyph-name="uni04D4" unicode="&#x4d4;" horiz-adv-x="892" 
d="M414 0l38 219h-210l-128 -219h-158l457 750h543l-24 -133h-267l-29 -166h214l-24 -133h-214l-32 -184h267l-23 -134h-410zM481 623l-158 -268h153l47 268h-42z" />
    <glyph glyph-name="uni04D5" unicode="&#x4d5;" horiz-adv-x="833" 
d="M549 109c43 0 72 28 88 63h140c-9 -27 -20 -53 -34 -74c-41 -63 -108 -108 -197 -108c-84 0 -133 41 -155 105c-43 -66 -106 -105 -178 -105c-100 0 -176 62 -165 186c7 81 54 137 126 162c27 9 60 14 103 14h98l2 14c10 58 -9 93 -62 93c-44 0 -69 -24 -79 -58h-132
c27 113 115 169 223 169c71 0 118 -27 143 -73c37 44 89 73 160 73c88 0 149 -51 173 -123c13 -37 11 -87 4 -128l-14 -76h-298l-4 -24c-3 -19 -5 -41 -3 -58c3 -28 21 -52 61 -52zM185 181c-4 -44 16 -72 62 -72c52 0 94 46 106 116l4 23h-81c-15 0 -34 -2 -45 -6
c-27 -10 -43 -32 -46 -61zM535 406c-10 -16 -17 -37 -22 -59h160c3 18 5 39 3 55c-3 28 -21 52 -61 52c-37 0 -62 -19 -80 -48z" />
    <glyph glyph-name="uni04D6" unicode="&#x4d6;" horiz-adv-x="555" 
d="M404 803c-106 0 -165 71 -160 182h93c3 -58 20 -95 75 -95s79 37 90 95h93c-15 -111 -86 -182 -191 -182zM44 0l132 750h443l-24 -133h-300l-29 -166h248l-24 -133h-248l-32 -185h300l-23 -133h-443z" />
    <glyph glyph-name="uni04D7" unicode="&#x4d7;" horiz-adv-x="542" 
d="M258 109c43 0 72 28 88 63h140c-9 -27 -20 -53 -34 -74c-41 -63 -108 -108 -200 -108c-93 0 -159 54 -183 126c-13 37 -11 84 -4 125l17 95c7 41 24 90 47 126c41 63 108 108 200 108c93 0 159 -51 183 -123c13 -37 11 -87 4 -128l-14 -76h-298l-4 -24
c-3 -19 -5 -41 -3 -58c3 -28 21 -52 61 -52zM244 406c-10 -16 -17 -37 -22 -59h160c3 18 5 39 3 55c-3 28 -21 52 -61 52c-37 0 -62 -19 -80 -48zM358 623c-106 0 -165 71 -160 182h93c3 -58 20 -95 75 -95s79 37 90 95h93c-15 -111 -86 -182 -191 -182z" />
    <glyph glyph-name="uni04D8" unicode="&#x4d8;" horiz-adv-x="623" 
d="M613 480l-41 -236c-25 -142 -113 -254 -273 -254h-8c-123 0 -203 81 -214 188c-3 25 -1 64 4 92l26 153h353l11 67c3 18 6 44 4 60c-4 41 -35 71 -84 71h-4c-61 0 -100 -43 -117 -102h-146c28 136 116 241 271 241h8c123 0 203 -81 214 -188c3 -25 1 -64 -4 -92zM437 294
h-209l-5 -34c-3 -18 -6 -44 -4 -60c4 -41 35 -71 84 -71h4c70 0 112 57 124 129z" />
    <glyph glyph-name="afii10846" unicode="&#x4d9;" horiz-adv-x="542" 
d="M319 451c-43 0 -68 -28 -84 -63h-140c9 27 20 53 34 74c41 63 108 108 200 108c93 0 161 -53 183 -126c11 -37 11 -84 4 -125l-17 -95c-7 -41 -24 -90 -47 -126c-41 -63 -108 -108 -200 -108c-93 0 -159 51 -183 123c-13 37 -11 87 -4 128l14 76h298l4 24c3 19 4 41 2 58
c-3 28 -24 52 -64 52zM337 154c10 16 17 37 22 59h-160c-3 -18 -5 -39 -3 -55c3 -28 21 -52 61 -52c37 0 62 19 80 48z" />
    <glyph glyph-name="uni04DA" unicode="&#x4da;" horiz-adv-x="623" 
d="M613 480l-41 -236c-25 -142 -113 -254 -273 -254h-8c-123 0 -203 81 -214 188c-3 25 -1 64 4 92l26 153h353l11 67c3 18 6 44 4 60c-4 41 -35 71 -84 71h-4c-61 0 -100 -43 -117 -102h-146c28 136 116 241 271 241h8c123 0 203 -81 214 -188c3 -25 1 -64 -4 -92zM437 294
h-209l-5 -34c-3 -18 -6 -44 -4 -60c4 -41 35 -71 84 -71h4c70 0 112 57 124 129zM367 824h-123l23 131h123zM581 824h-122l23 131h122z" />
    <glyph glyph-name="uni04DB" unicode="&#x4db;" horiz-adv-x="542" 
d="M319 451c-43 0 -68 -28 -84 -63h-140c9 27 20 53 34 74c41 63 108 108 200 108c93 0 161 -53 183 -126c11 -37 11 -84 4 -125l-17 -95c-7 -41 -24 -90 -47 -126c-41 -63 -108 -108 -200 -108c-93 0 -159 51 -183 123c-13 37 -11 87 -4 128l14 76h298l4 24c3 19 4 41 2 58
c-3 28 -24 52 -64 52zM337 154c10 16 17 37 22 59h-160c-3 -18 -5 -39 -3 -55c3 -28 21 -52 61 -52c37 0 62 19 80 48zM311 644h-123l23 131h123zM525 644h-122l23 131h122z" />
    <glyph glyph-name="uni04DC" unicode="&#x4dc;" horiz-adv-x="972" 
d="M517 750h143l-51 -290h43c62 0 93 29 115 89l18 51c42 110 86 157 183 157c23 0 47 -2 78 -7l-23 -130c-17 3 -26 4 -39 4c-32 0 -53 -20 -68 -66l-9 -27c-25 -76 -59 -133 -116 -165l148 -366h-158l-125 322h-72l-56 -322h-143l56 322h-57l-236 -322h-175l277 366
c-36 32 -60 89 -59 165l1 27c2 46 -12 66 -43 66c-14 0 -25 -1 -42 -4l23 130c33 5 47 7 70 7c85 0 125 -47 127 -157l1 -51c1 -60 22 -89 85 -89h53zM548 824h-123l23 131h123zM762 824h-122l23 131h122z" />
    <glyph glyph-name="uni04DD" unicode="&#x4dd;" horiz-adv-x="834" 
d="M84 446l20 113c28 4 41 6 61 6c76 0 113 -35 118 -114l2 -36c2 -43 11 -64 64 -64h31l36 209h138l-36 -209h19c52 0 68 21 86 64l14 36c32 79 71 114 158 114c24 0 45 -2 71 -6l-20 -113c-14 2 -21 3 -34 3c-27 0 -43 -17 -56 -54l-4 -12c-17 -51 -41 -90 -87 -112
l134 -271h-155l-108 232h-40l-40 -232h-138l40 232h-29l-187 -232h-167l228 271c-35 20 -48 61 -47 112v12c-1 37 -11 54 -38 54c-13 0 -20 -1 -34 -3zM448 644h-123l23 131h123zM662 644h-122l23 131h122z" />
    <glyph glyph-name="uni04DE" unicode="&#x4de;" horiz-adv-x="583" 
d="M594 546c-9 -68 -54 -132 -136 -173c70 -45 90 -106 81 -176c-16 -124 -125 -207 -269 -207c-153 0 -235 98 -221 235h141c-8 -62 21 -101 90 -101c60 0 113 35 121 93c7 54 -22 99 -111 99h-84l22 125h83c88 0 132 47 139 100c7 56 -27 84 -84 84
c-66 0 -111 -39 -123 -101h-141c21 143 131 236 284 236c136 0 225 -89 208 -214zM343 824h-123l23 131h123zM557 824h-122l23 131h122z" />
    <glyph glyph-name="uni04DF" unicode="&#x4df;" horiz-adv-x="504" 
d="M500 409c-7 -54 -41 -99 -112 -131c62 -33 79 -77 72 -132c-12 -95 -98 -156 -230 -156c-130 0 -206 75 -193 182h133c-5 -40 19 -66 72 -66c44 0 78 24 85 62s-18 63 -84 63h-56l18 103h54c67 0 97 29 103 66c7 37 -19 54 -61 54c-50 0 -83 -25 -90 -66h-136
c16 112 108 182 238 182c124 0 199 -65 187 -161zM285 644h-123l23 131h123zM499 644h-122l23 131h122z" />
    <glyph glyph-name="uni04E0" unicode="&#x4e0;" horiz-adv-x="568" 
d="M595 633l-199 -175c89 -24 150 -96 139 -213c-13 -142 -116 -254 -275 -254c-139 0 -236 98 -223 250h143c-6 -74 30 -114 92 -114c71 0 112 51 119 115c8 69 -27 110 -116 110h-54l-10 101l176 159h-265l25 138h469z" />
    <glyph glyph-name="uni04E1" unicode="&#x4e1;" horiz-adv-x="515" 
d="M164 167l-15 97l183 163h-254l23 133h446l-20 -111l-206 -185c116 -30 153 -124 139 -240c-16 -136 -109 -247 -252 -247c-126 0 -227 76 -227 201c0 17 1 30 3 48h129c-8 -80 31 -122 95 -122c65 0 110 59 119 134c9 79 -24 129 -112 129h-51z" />
    <glyph glyph-name="uni04E2" unicode="&#x4e2;" horiz-adv-x="655" 
d="M498 473h-1l-303 -473h-150l132 750h137l-73 -415c-5 -25 -11 -58 -11 -58h1l303 473h150l-132 -750h-137l72 415c5 25 12 58 12 58zM616 920l-16 -95h-324l16 95h324z" />
    <glyph glyph-name="uni04E3" unicode="&#x4e3;" horiz-adv-x="585" 
d="M224 -10c-79 0 -141 53 -151 143c-3 24 -1 61 4 91l59 336h138l-55 -320c-4 -23 -6 -41 -5 -55c2 -35 16 -63 56 -63c50 0 108 57 126 159l48 279h138l-98 -560h-91v76h-1c-44 -57 -103 -86 -168 -86zM548 740l-16 -95h-324l16 95h324z" />
    <glyph glyph-name="uni04E4" unicode="&#x4e4;" horiz-adv-x="655" 
d="M498 473h-1l-303 -473h-150l132 750h137l-73 -415c-5 -25 -11 -58 -11 -58h1l303 473h150l-132 -750h-137l72 415c5 25 12 58 12 58zM392 824h-123l23 131h123zM606 824h-122l23 131h122z" />
    <glyph glyph-name="uni04E5" unicode="&#x4e5;" horiz-adv-x="585" 
d="M224 -10c-79 0 -141 53 -151 143c-3 24 -1 61 4 91l59 336h138l-55 -320c-4 -23 -6 -41 -5 -55c2 -35 16 -63 56 -63c50 0 108 57 126 159l48 279h138l-98 -560h-91v76h-1c-44 -57 -103 -86 -168 -86zM323 644h-123l23 131h123zM537 644h-122l23 131h122z" />
    <glyph glyph-name="uni04E6" unicode="&#x4e6;" horiz-adv-x="621" 
d="M80 270l41 236c25 142 113 254 273 254h8c123 0 203 -81 214 -188c3 -25 1 -64 -4 -92l-41 -236c-25 -142 -113 -254 -273 -254h-8c-123 0 -203 81 -214 188c-3 25 -1 64 4 92zM430 258l40 232c3 18 6 44 4 60c-4 41 -35 71 -84 71h-4c-70 0 -111 -57 -124 -129l-40 -232
c-3 -18 -6 -44 -4 -60c4 -41 35 -71 84 -71h4c70 0 111 57 124 129zM382 824h-123l23 131h123zM596 824h-122l23 131h122z" />
    <glyph glyph-name="uni04E7" unicode="&#x4e7;" horiz-adv-x="543" 
d="M260 121c37 0 62 19 80 48c11 18 19 43 24 69l15 91c3 19 5 41 3 58c-3 28 -21 52 -61 52c-37 0 -62 -19 -80 -48c-11 -18 -19 -43 -24 -69l-15 -91c-3 -19 -5 -41 -3 -58c3 -28 21 -52 61 -52zM252 -10c-93 0 -159 54 -183 126c-13 37 -11 84 -4 125l17 95
c7 41 24 90 47 126c41 63 108 108 200 108c93 0 159 -54 183 -126c13 -37 11 -84 4 -125l-17 -95c-7 -41 -24 -90 -47 -126c-41 -63 -108 -108 -200 -108zM311 644h-123l23 131h123zM525 644h-122l23 131h122z" />
    <glyph glyph-name="uni04E8" unicode="&#x4e8;" horiz-adv-x="621" 
d="M80 270l41 236c25 142 113 254 273 254h8c123 0 203 -81 214 -188c3 -25 1 -64 -4 -92l-41 -236c-25 -142 -113 -254 -273 -254h-8c-123 0 -203 81 -214 188c-3 25 -1 64 4 92zM430 258l9 55h-208l-9 -53c-3 -18 -6 -44 -4 -60c4 -41 35 -71 84 -71h4
c70 0 111 57 124 129zM262 492l-9 -50h208l9 48c3 18 6 44 4 60c-4 41 -35 71 -84 71h-4c-70 0 -111 -57 -124 -129z" />
    <glyph glyph-name="uni04E9" unicode="&#x4e9;" horiz-adv-x="543" 
d="M252 -10c-93 0 -159 54 -183 126c-13 37 -11 84 -4 125l17 95c7 41 24 90 47 126c41 63 108 108 200 108c93 0 159 -54 183 -126c13 -37 11 -84 4 -125l-17 -95c-7 -41 -24 -90 -47 -126c-41 -63 -108 -108 -200 -108zM260 121c37 0 62 19 80 48c10 16 18 39 23 63h-161
c-3 -20 -5 -42 -3 -59c3 -28 21 -52 61 -52zM241 391c-9 -15 -16 -34 -21 -55h160c2 17 4 36 2 51c-3 28 -21 52 -61 52c-37 0 -62 -19 -80 -48z" />
    <glyph glyph-name="uni04EA" unicode="&#x4ea;" horiz-adv-x="621" 
d="M80 270l41 236c25 142 113 254 273 254h8c123 0 203 -81 214 -188c3 -25 1 -64 -4 -92l-41 -236c-25 -142 -113 -254 -273 -254h-8c-123 0 -203 81 -214 188c-3 25 -1 64 4 92zM430 258l9 55h-208l-9 -53c-3 -18 -6 -44 -4 -60c4 -41 35 -71 84 -71h4
c70 0 111 57 124 129zM262 492l-9 -50h208l9 48c3 18 6 44 4 60c-4 41 -35 71 -84 71h-4c-70 0 -111 -57 -124 -129zM382 824h-123l23 131h123zM596 824h-122l23 131h122z" />
    <glyph glyph-name="uni04EB" unicode="&#x4eb;" horiz-adv-x="543" 
d="M252 -10c-93 0 -159 54 -183 126c-13 37 -11 84 -4 125l17 95c7 41 24 90 47 126c41 63 108 108 200 108c93 0 159 -54 183 -126c13 -37 11 -84 4 -125l-17 -95c-7 -41 -24 -90 -47 -126c-41 -63 -108 -108 -200 -108zM260 121c37 0 62 19 80 48c10 16 18 39 23 63h-161
c-3 -20 -5 -42 -3 -59c3 -28 21 -52 61 -52zM241 391c-9 -15 -16 -34 -21 -55h160c2 17 4 36 2 51c-3 28 -21 52 -61 52c-37 0 -62 -19 -80 -48zM311 644h-123l23 131h123zM525 644h-122l23 131h122z" />
    <glyph glyph-name="uni04EC" unicode="&#x4ec;" horiz-adv-x="608" 
d="M380 621h-6c-62 0 -103 -40 -121 -98h-145c25 126 119 237 274 237h7c125 0 204 -81 215 -187c3 -26 0 -65 -5 -93l-41 -236c-25 -142 -113 -254 -276 -254h-8c-123 0 -205 75 -217 188c-2 15 -2 34 -1 54h142c-1 -12 -1 -24 0 -32c4 -41 26 -71 84 -71h8
c73 0 114 57 127 129l10 58h-210l24 133h209l8 41c3 18 6 44 4 60c-4 41 -28 71 -82 71zM360 824h-123l23 131h123zM574 824h-122l23 131h122z" />
    <glyph glyph-name="uni04ED" unicode="&#x4ed;" horiz-adv-x="532" 
d="M204 227l18 104h146c3 19 4 39 2 56c-3 28 -21 52 -61 52c-41 0 -74 -25 -88 -61h-142c9 30 22 59 38 84c41 63 109 108 201 108c93 0 159 -54 183 -126c13 -37 11 -84 4 -125l-17 -95c-7 -41 -24 -90 -47 -126c-41 -63 -108 -108 -200 -108c-93 0 -160 54 -183 126
c-6 18 -9 37 -10 58h141c3 -29 21 -53 61 -53c37 0 62 19 80 48c9 15 16 36 21 58h-147zM299 644h-123l23 131h123zM513 644h-122l23 131h122z" />
    <glyph glyph-name="uni04EE" unicode="&#x4ee;" horiz-adv-x="587" 
d="M121 129c46 0 80 23 110 70l-115 551h146l70 -381h2l191 381h156l-316 -587c-68 -125 -142 -173 -243 -173c-42 0 -71 4 -96 13l24 136c20 -5 41 -10 71 -10zM572 920l-16 -95h-324l16 95h324z" />
    <glyph glyph-name="uni04EF" unicode="&#x4ef;" horiz-adv-x="537" 
d="M173 21l-97 539h141l52 -369h2l176 369h151l-306 -585c-69 -132 -153 -191 -256 -191c-36 0 -68 5 -94 13l23 133c25 -6 49 -12 81 -12c58 0 91 33 117 83zM519 740l-16 -95h-324l16 95h324z" />
    <glyph glyph-name="uni04F0" unicode="&#x4f0;" horiz-adv-x="587" 
d="M121 129c46 0 80 23 110 70l-115 551h146l70 -381h2l191 381h156l-316 -587c-68 -125 -142 -173 -243 -173c-42 0 -71 4 -96 13l24 136c20 -5 41 -10 71 -10zM347 824h-123l23 131h123zM561 824h-122l23 131h122z" />
    <glyph glyph-name="uni04F1" unicode="&#x4f1;" horiz-adv-x="537" 
d="M173 21l-97 539h141l52 -369h2l176 369h151l-306 -585c-69 -132 -153 -191 -256 -191c-36 0 -68 5 -94 13l23 133c25 -6 49 -12 81 -12c58 0 91 33 117 83zM296 644h-123l23 131h123zM510 644h-122l23 131h122z" />
    <glyph glyph-name="uni04F2" unicode="&#x4f2;" horiz-adv-x="587" 
d="M121 129c46 0 80 23 110 70l-115 551h146l70 -381h2l191 381h156l-316 -587c-68 -125 -142 -173 -243 -173c-42 0 -71 4 -96 13l24 136c20 -5 41 -10 71 -10zM478 994l1 -12l-153 -175h-95l115 187h132zM684 994l1 -12l-153 -175h-95l115 187h132z" />
    <glyph glyph-name="uni04F3" unicode="&#x4f3;" horiz-adv-x="537" 
d="M173 21l-97 539h141l52 -369h2l176 369h151l-306 -585c-69 -132 -153 -191 -256 -191c-36 0 -68 5 -94 13l23 133c25 -6 49 -12 81 -12c58 0 91 33 117 83zM422 814l1 -12l-153 -175h-95l115 187h132zM628 814l1 -12l-153 -175h-95l115 187h132z" />
    <glyph glyph-name="uni04F4" unicode="&#x4f4;" horiz-adv-x="628" 
d="M381 0l47 270c-35 -4 -71 -7 -104 -7c-132 0 -211 64 -211 192c0 18 3 49 9 81l38 214h143l-38 -214c-4 -23 -7 -44 -7 -59c0 -47 22 -76 100 -76c37 0 62 2 94 6l61 343h143l-132 -750h-143zM373 824h-123l23 131h123zM587 824h-122l23 131h122z" />
    <glyph glyph-name="uni04F5" unicode="&#x4f5;" horiz-adv-x="555" 
d="M316 0l34 196c-25 -2 -51 -4 -77 -4c-115 0 -192 54 -193 163c0 16 3 41 7 63l25 142h138l-26 -147c-3 -19 -5 -38 -4 -49c3 -40 27 -53 86 -53c25 0 48 2 65 5l43 244h138l-98 -560h-138zM299 644h-123l23 131h123zM513 644h-122l23 131h122z" />
    <glyph glyph-name="uni04F6" unicode="&#x4f6;" horiz-adv-x="628" 
d="M44 0l132 750h438l-25 -138h-295l-83 -474h117l-66 -372h-137l42 234h-123z" />
    <glyph glyph-name="uni04F7" unicode="&#x4f7;" horiz-adv-x="483" 
d="M41 0l98 560h388l-21 -119h-250l-57 -322h101l-56 -319h-130l36 200h-109z" />
    <glyph glyph-name="uni04F8" unicode="&#x4f8;" horiz-adv-x="843" 
d="M596 0l132 750h143l-132 -750h-143zM270 475h51c42 0 86 -6 112 -16c85 -33 138 -120 128 -225c-9 -103 -73 -183 -163 -218c-26 -10 -65 -16 -110 -16h-244l132 750h143zM211 138h82c34 0 55 5 71 13c31 16 51 48 54 87c4 39 -11 70 -36 85c-13 9 -36 14 -66 14h-70z
M488 824h-123l23 131h123zM702 824h-122l23 131h122z" />
    <glyph glyph-name="uni04F9" unicode="&#x4f9;" horiz-adv-x="763" 
d="M524 0l98 560h138l-98 -560h-138zM222 244l-23 -125h59c18 0 37 1 47 4c26 7 46 26 49 59c3 32 -13 51 -39 58c-10 3 -27 4 -45 4h-48zM253 0h-212l98 560h138l-34 -197h43c28 0 48 -2 66 -5c88 -16 149 -74 139 -176c-10 -103 -79 -161 -171 -177c-18 -3 -39 -5 -67 -5z
M416 644h-123l23 131h123zM630 644h-122l23 131h122z" />
    <glyph glyph-name="uni04FA" unicode="&#x4fa;" horiz-adv-x="585" 
d="M373 138l-29 -161c-26 -152 -118 -213 -249 -213c-33 0 -56 2 -65 3l22 124c12 -1 25 -2 45 -2c68 0 101 28 112 89l4 22h-124l62 355h-106l14 78h106l56 317h438l-25 -138h-295l-31 -179h180l-14 -78h-180l-38 -217h117z" />
    <glyph glyph-name="uni04FB" unicode="&#x4fb;" horiz-adv-x="520" 
d="M78 0l42 240h-92l13 73h92l43 247h388l-21 -119h-250l-22 -128h156l-13 -73h-156l-22 -121h105l-23 -136c-27 -150 -116 -207 -236 -207c-30 0 -55 2 -62 3l20 114c10 -1 26 -2 43 -2c63 0 95 27 107 93l3 16h-115z" />
    <glyph glyph-name="uni04FC" unicode="&#x4fc;" horiz-adv-x="646" 
d="M266 399l-133 351h156l77 -224l150 224h172l-265 -364l97 -248h105l-29 -161c-27 -152 -118 -213 -250 -213c-32 0 -55 2 -64 3l22 124c12 -1 25 -2 45 -2c67 0 101 27 112 89l4 22h-45l-94 260l-178 -260h-172z" />
    <glyph glyph-name="uni04FD" unicode="&#x4fd;" horiz-adv-x="548" 
d="M93 560h144l60 -160l108 160h158l-210 -271l74 -170h96l-23 -136c-25 -150 -115 -207 -236 -207c-30 0 -55 2 -62 3l20 114c10 -1 26 -2 44 -2c62 0 95 27 107 93l3 16h-42l-69 185l-128 -185h-157l228 295z" />
    <glyph glyph-name="uni04FE" unicode="&#x4fe;" horiz-adv-x="625" 
d="M86 356l14 78h160l-123 316h156l77 -224l150 224h172l-234 -316h159l-14 -78h-168l143 -356h-154l-94 260l-178 -260h-172l262 356h-156z" />
    <glyph glyph-name="uni04FF" unicode="&#x4ff;" horiz-adv-x="529" 
d="M98 560h144l60 -160l108 160h158l-183 -232h129l-13 -73h-131l115 -255h-146l-69 185l-128 -185h-157l199 255h-129l13 73h133z" />
    <glyph glyph-name="endash" unicode="&#x2013;" horiz-adv-x="572" 
d="M557 331h-486l21 118h486z" />
    <glyph glyph-name="emdash" unicode="&#x2014;" horiz-adv-x="685" 
d="M675 331h-604l21 118h604z" />
    <glyph glyph-name="quoteleft" unicode="&#x2018;" horiz-adv-x="244" 
d="M283 627l-29 -164h-160l22 124c5 27 12 56 22 77c28 69 83 129 180 142l-11 -58c-72 -22 -97 -69 -103 -107c-2 -11 2 -14 9 -14h70z" />
    <glyph glyph-name="quoteright" unicode="&#x2019;" horiz-adv-x="219" 
d="M114 642l29 164h160l-22 -124c-5 -27 -12 -56 -22 -77c-27 -69 -83 -129 -180 -142l10 58c73 22 99 69 105 107c2 11 -3 14 -10 14h-70z" />
    <glyph glyph-name="quotesinglbase" unicode="&#x201a;" horiz-adv-x="252" 
d="M11 0l30 173h168l-23 -131c-5 -28 -12 -58 -22 -81c-30 -72 -88 -135 -190 -149l11 61c76 23 102 73 109 113c2 11 -2 14 -9 14h-74z" />
    <glyph glyph-name="quotedblleft" unicode="&#x201c;" horiz-adv-x="459" 
d="M280 627l-29 -164h-160l22 124c5 27 12 56 22 77c28 69 82 129 179 142l-11 -58c-71 -22 -96 -69 -102 -107c-2 -11 2 -14 8 -14h71zM496 627l-29 -164h-159l22 124c5 27 11 56 21 77c27 69 82 129 179 142l-11 -58c-71 -22 -97 -69 -103 -107c-2 -11 3 -14 10 -14h70z
" />
    <glyph glyph-name="quotedblright" unicode="&#x201d;" horiz-adv-x="459" 
d="M345 642l29 164h159l-22 -124c-5 -27 -12 -56 -21 -77c-28 -69 -84 -129 -179 -142l10 58c71 22 97 69 103 107c2 11 -3 14 -9 14h-70zM129 642l29 164h159l-22 -124c-5 -27 -11 -56 -21 -77c-28 -69 -84 -129 -180 -142l10 58c72 22 98 69 104 107c2 11 -2 14 -9 14h-70
z" />
    <glyph glyph-name="quotedblbase" unicode="&#x201e;" horiz-adv-x="479" 
d="M239 0l30 173h167l-23 -131c-5 -28 -12 -58 -22 -81c-29 -72 -87 -135 -189 -149l11 61c75 23 102 73 109 113c2 11 -3 14 -10 14h-73zM11 0l30 173h168l-23 -131c-5 -28 -12 -58 -22 -81c-30 -72 -88 -135 -190 -149l11 61c76 23 102 73 109 113c2 11 -2 14 -9 14h-74z
" />
    <glyph glyph-name="dagger" unicode="&#x2020;" horiz-adv-x="505" 
d="M346 450l-109 -619h-88l109 619h-171l15 87h171l38 213h88l-38 -213h170l-15 -87h-170z" />
    <glyph glyph-name="daggerdbl" unicode="&#x2021;" horiz-adv-x="515" 
d="M207 131l56 319h-171l15 87h171l38 213h88l-38 -213h170l-15 -87h-170l-56 -319h170l-16 -87h-170l-37 -213h-88l37 213h-171l16 87h171z" />
    <glyph glyph-name="bullet" unicode="&#x2022;" horiz-adv-x="340" 
d="M304 295h-224l41 237h224z" />
    <glyph glyph-name="ellipsis" unicode="&#x2026;" horiz-adv-x="736" 
d="M19 0l30 173h164l-30 -173h-164zM256 0l30 173h164l-30 -173h-164zM493 0l30 173h164l-30 -173h-164z" />
    <glyph glyph-name="perthousand" unicode="&#x2030;" horiz-adv-x="927" 
d="M143 0h-82l485 750h83zM232 526c29 0 49 26 59 69c12 53 -3 78 -32 78s-49 -26 -59 -69c-12 -53 3 -78 32 -78zM267 760c79 0 137 -61 116 -165c-19 -95 -80 -157 -159 -157s-137 61 -116 165c19 95 80 157 159 157zM429 78c29 0 49 26 59 69c12 53 -3 78 -32 78
s-49 -26 -59 -69c-12 -53 3 -78 32 -78zM464 312c79 0 137 -61 116 -165c-19 -95 -80 -157 -159 -157s-137 61 -116 165c19 95 80 157 159 157zM739 78c29 0 49 26 59 69c12 53 -3 78 -32 78s-49 -26 -59 -69c-12 -53 3 -78 32 -78zM774 312c79 0 137 -61 116 -165
c-19 -95 -80 -157 -159 -157s-137 61 -116 165c19 95 80 157 159 157z" />
    <glyph glyph-name="guilsinglleft" unicode="&#x2039;" horiz-adv-x="324" 
d="M252 41l-203 265l297 265l-27 -151l-141 -120l99 -120z" />
    <glyph glyph-name="guilsinglright" unicode="&#x203a;" horiz-adv-x="324" 
d="M321 306l-297 -265l27 151l142 120l-100 120l25 139z" />
    <glyph glyph-name="fraction" unicode="&#x2044;" horiz-adv-x="331" 
d="M-69 -130l-75 49l613 929l76 -50z" />
    <glyph glyph-name="Euro" unicode="&#x20ac;" horiz-adv-x="565" 
d="M277 484h209l-42 -80h-182l-13 -70h161l-41 -80h-133l-3 -18c-15 -88 32 -127 85 -127c44 0 89 24 109 96h127c-23 -142 -129 -215 -248 -215c-117 0 -225 92 -198 243l3 21h-88l39 80h62l13 70h-87l39 80h63l6 33c26 151 131 243 250 243c114 0 210 -74 207 -217h-126
c-5 72 -47 98 -94 98c-51 0 -98 -41 -113 -127z" />
    <glyph glyph-name="uni2120" unicode="&#x2120;" horiz-adv-x="580" 
d="M318 655h-57c4 25 -7 47 -39 47c-28 0 -41 -14 -42 -30c-1 -19 8 -28 26 -35l27 -11c37 -14 72 -37 67 -90c-5 -54 -52 -89 -111 -89c-66 0 -106 43 -97 99h57c-5 -30 16 -47 44 -47c25 0 47 15 48 38s-16 33 -32 39l-28 11c-30 11 -62 30 -59 84c3 53 49 83 105 83
c57 0 105 -31 91 -99zM441 450l-29 207l-36 -207h-51l53 300h70l26 -219l105 219h72l-53 -301h-51l36 207l-101 -206h-41z" />
    <glyph glyph-name="trademark" unicode="&#x2122;" horiz-adv-x="576" 
d="M118 750h213l-10 -54h-76l-43 -246h-59l43 246h-78zM425 450l-28 207l-36 -207h-51l53 300h69l26 -219l106 219h71l-53 -301h-51l36 207l-101 -206h-41z" />
    <glyph glyph-name="partialdiff" unicode="&#x2202;" 
d="M632 750l-132 -750h-490l132 750h490zM292 374l-118 281l-99 -562zM349 374l118 -281l99 562zM212 700l117 -279l216 279h-333zM312 326l-214 -276h330z" />
    <glyph glyph-name="product" unicode="&#x220f;" 
d="M632 750l-132 -750h-490l132 750h490zM292 374l-118 281l-99 -562zM349 374l118 -281l99 562zM212 700l117 -279l216 279h-333zM312 326l-214 -276h330z" />
    <glyph glyph-name="summation" unicode="&#x2211;" 
d="M632 750l-132 -750h-490l132 750h490zM292 374l-118 281l-99 -562zM349 374l118 -281l99 562zM212 700l117 -279l216 279h-333zM312 326l-214 -276h330z" />
    <glyph glyph-name="minus" unicode="&#x2212;" 
d="M535 241h-476l21 118h476z" />
    <glyph glyph-name="radical" unicode="&#x221a;" 
d="M632 750l-132 -750h-490l132 750h490zM292 374l-118 281l-99 -562zM349 374l118 -281l99 562zM212 700l117 -279l216 279h-333zM312 326l-214 -276h330z" />
    <glyph glyph-name="infinity" unicode="&#x221e;" 
d="M632 750l-132 -750h-490l132 750h490zM292 374l-118 281l-99 -562zM349 374l118 -281l99 562zM212 700l117 -279l216 279h-333zM312 326l-214 -276h330z" />
    <glyph glyph-name="integral" unicode="&#x222b;" 
d="M632 750l-132 -750h-490l132 750h490zM292 374l-118 281l-99 -562zM349 374l118 -281l99 562zM212 700l117 -279l216 279h-333zM312 326l-214 -276h330z" />
    <glyph glyph-name="approxequal" unicode="&#x2248;" 
d="M632 750l-132 -750h-490l132 750h490zM292 374l-118 281l-99 -562zM349 374l118 -281l99 562zM212 700l117 -279l216 279h-333zM312 326l-214 -276h330z" />
    <glyph glyph-name="notequal" unicode="&#x2260;" 
d="M511 131h-275l-93 -131h-99l94 131h-93l20 118h156l73 102h-211l21 118h274l95 132h98l-95 -132h94l-21 -118h-157l-73 -102h212z" />
    <glyph glyph-name="lessequal" unicode="&#x2264;" 
d="M584 557l-353 -146l301 -146l-22 -124l-414 215l22 122l490 215zM484 -10h-456l21 118h456z" />
    <glyph glyph-name="greaterequal" unicode="&#x2265;" 
d="M430 423l-300 146l22 124l414 -215l-22 -122l-490 -215l24 136zM484 -10h-456l21 118h456z" />
    <glyph glyph-name="lozenge" unicode="&#x25ca;" 
d="M632 750l-132 -750h-490l132 750h490zM292 374l-118 281l-99 -562zM349 374l118 -281l99 562zM212 700l117 -279l216 279h-333zM312 326l-214 -276h330z" />
    <glyph glyph-name="brevecyrillic" horiz-adv-x="536" 
d="M366 653c-106 0 -165 71 -160 182h93c3 -58 20 -95 75 -95s79 37 90 95h93c-15 -111 -86 -182 -191 -182z" />
    <glyph glyph-name="registered.001" horiz-adv-x="839" 
d="M635 153l-4 -11h-89c-19 19 -24 46 -26 68l-5 70c-3 33 -23 45 -61 45h-54v-183h-93v472h141c23 0 42 -2 55 -5c66 -16 109 -59 109 -130c0 -43 -21 -79 -66 -103c40 -18 59 -51 62 -96l4 -68c1 -23 8 -44 27 -59zM441 524h-45v-109h48c47 0 71 25 71 61
c0 38 -38 48 -74 48zM85 375c0 213 143 385 361 385c219 0 362 -172 362 -385s-143 -385 -362 -385c-218 0 -361 172 -361 385zM135 375c0 -185 120 -336 311 -336c192 0 312 151 312 336s-120 336 -312 336c-191 0 -311 -151 -311 -336z" />
    <glyph glyph-name="regsound" horiz-adv-x="839" 
d="M412 382h56c25 0 36 4 46 9c17 9 28 31 28 54c0 25 -11 47 -28 56c-10 5 -21 9 -46 9h-56v-128zM465 293h-53v-165h-92v472h145c31 0 58 -4 77 -11c52 -21 93 -78 93 -144c0 -67 -37 -121 -94 -143c-18 -7 -41 -9 -76 -9zM85 375c0 213 143 385 361 385
c219 0 362 -172 362 -385s-143 -385 -362 -385c-218 0 -361 172 -361 385zM135 375c0 -185 120 -336 311 -336c192 0 312 151 312 336s-120 336 -312 336c-191 0 -311 -151 -311 -336z" />
    <glyph glyph-name="commaaccentlow" horiz-adv-x="500" 
d="M129 -169l21 119h121l-15 -86c-4 -19 -8 -39 -15 -55c-21 -49 -60 -86 -130 -96l7 43c53 15 68 49 71 66c2 8 -3 9 -7 9h-53z" />
    <glyph glyph-name="commaacaron" horiz-adv-x="191" 
d="M125 666l21 119h121l-15 -86c-4 -19 -8 -39 -15 -55c-21 -49 -60 -86 -130 -96l8 43c52 15 67 49 70 66c2 8 -3 9 -7 9h-53z" />
    <glyph glyph-name="CR" horiz-adv-x="220" 
 />
    <glyph glyph-name="apple" horiz-adv-x="947" 
 />
    <glyph glyph-name="_0000" horiz-adv-x="500" 
 />
    <glyph glyph-name=".null" horiz-adv-x="0" 
 />
    </font>
</defs>
</svg>
